%TF.GenerationSoftware,KiCad,Pcbnew,(5.1.12)-1*%
%TF.CreationDate,2022-01-20T18:25:14-05:00*%
%TF.ProjectId,PCB-ESP32S,5043422d-4553-4503-9332-532e6b696361,rev?*%
%TF.SameCoordinates,Original*%
%TF.FileFunction,Soldermask,Bot*%
%TF.FilePolarity,Negative*%
%FSLAX46Y46*%
G04 Gerber Fmt 4.6, Leading zero omitted, Abs format (unit mm)*
G04 Created by KiCad (PCBNEW (5.1.12)-1) date 2022-01-20 18:25:14*
%MOMM*%
%LPD*%
G01*
G04 APERTURE LIST*
%ADD10C,2.200000*%
%ADD11O,1.950000X1.700000*%
%ADD12O,1.700000X1.950000*%
%ADD13O,2.000000X1.905000*%
%ADD14R,2.000000X1.905000*%
%ADD15C,3.000000*%
%ADD16R,3.000000X3.000000*%
G04 APERTURE END LIST*
D10*
%TO.C,*%
X173990000Y-78740000D03*
%TD*%
%TO.C,*%
X238760000Y-125730000D03*
%TD*%
%TO.C,*%
X238760000Y-78740000D03*
%TD*%
%TO.C,*%
X173990000Y-125730000D03*
%TD*%
D11*
%TO.C,J1*%
X232410000Y-112475000D03*
X232410000Y-114975000D03*
G36*
G01*
X233135000Y-118325000D02*
X231685000Y-118325000D01*
G75*
G02*
X231435000Y-118075000I0J250000D01*
G01*
X231435000Y-116875000D01*
G75*
G02*
X231685000Y-116625000I250000J0D01*
G01*
X233135000Y-116625000D01*
G75*
G02*
X233385000Y-116875000I0J-250000D01*
G01*
X233385000Y-118075000D01*
G75*
G02*
X233135000Y-118325000I-250000J0D01*
G01*
G37*
%TD*%
D12*
%TO.C,J3*%
X179865000Y-125730000D03*
X182365000Y-125730000D03*
X184865000Y-125730000D03*
X187365000Y-125730000D03*
G36*
G01*
X190715000Y-125005000D02*
X190715000Y-126455000D01*
G75*
G02*
X190465000Y-126705000I-250000J0D01*
G01*
X189265000Y-126705000D01*
G75*
G02*
X189015000Y-126455000I0J250000D01*
G01*
X189015000Y-125005000D01*
G75*
G02*
X189265000Y-124755000I250000J0D01*
G01*
X190465000Y-124755000D01*
G75*
G02*
X190715000Y-125005000I0J-250000D01*
G01*
G37*
%TD*%
%TO.C,J4*%
X196335000Y-125730000D03*
X198835000Y-125730000D03*
X201335000Y-125730000D03*
G36*
G01*
X204685000Y-125005000D02*
X204685000Y-126455000D01*
G75*
G02*
X204435000Y-126705000I-250000J0D01*
G01*
X203235000Y-126705000D01*
G75*
G02*
X202985000Y-126455000I0J250000D01*
G01*
X202985000Y-125005000D01*
G75*
G02*
X203235000Y-124755000I250000J0D01*
G01*
X204435000Y-124755000D01*
G75*
G02*
X204685000Y-125005000I0J-250000D01*
G01*
G37*
%TD*%
%TO.C,J5*%
X210940000Y-125730000D03*
X213440000Y-125730000D03*
X215940000Y-125730000D03*
G36*
G01*
X219290000Y-125005000D02*
X219290000Y-126455000D01*
G75*
G02*
X219040000Y-126705000I-250000J0D01*
G01*
X217840000Y-126705000D01*
G75*
G02*
X217590000Y-126455000I0J250000D01*
G01*
X217590000Y-125005000D01*
G75*
G02*
X217840000Y-124755000I250000J0D01*
G01*
X219040000Y-124755000D01*
G75*
G02*
X219290000Y-125005000I0J-250000D01*
G01*
G37*
%TD*%
%TO.C,TH1*%
X225545000Y-125730000D03*
X228045000Y-125730000D03*
X230545000Y-125730000D03*
G36*
G01*
X233895000Y-125005000D02*
X233895000Y-126455000D01*
G75*
G02*
X233645000Y-126705000I-250000J0D01*
G01*
X232445000Y-126705000D01*
G75*
G02*
X232195000Y-126455000I0J250000D01*
G01*
X232195000Y-125005000D01*
G75*
G02*
X232445000Y-124755000I250000J0D01*
G01*
X233645000Y-124755000D01*
G75*
G02*
X233895000Y-125005000I0J-250000D01*
G01*
G37*
%TD*%
D13*
%TO.C,U3*%
X192024000Y-96291400D03*
X192024000Y-93751400D03*
D14*
X192024000Y-91211400D03*
%TD*%
D13*
%TO.C,Q1*%
X173990000Y-114300000D03*
X173990000Y-116840000D03*
D14*
X173990000Y-119380000D03*
%TD*%
D15*
%TO.C,J2*%
X174244000Y-101854000D03*
D16*
X174244000Y-106934000D03*
%TD*%
D13*
%TO.C,U2*%
X191643000Y-110896400D03*
X191643000Y-108356400D03*
D14*
X191643000Y-105816400D03*
%TD*%
M02*
