%TF.GenerationSoftware,KiCad,Pcbnew,(5.1.12)-1*%
%TF.CreationDate,2022-01-20T18:25:14-05:00*%
%TF.ProjectId,PCB-ESP32S,5043422d-4553-4503-9332-532e6b696361,rev?*%
%TF.SameCoordinates,Original*%
%TF.FileFunction,Paste,Top*%
%TF.FilePolarity,Positive*%
%FSLAX46Y46*%
G04 Gerber Fmt 4.6, Leading zero omitted, Abs format (unit mm)*
G04 Created by KiCad (PCBNEW (5.1.12)-1) date 2022-01-20 18:25:14*
%MOMM*%
%LPD*%
G01*
G04 APERTURE LIST*
%ADD10R,1.600000X1.400000*%
%ADD11R,6.000000X6.000000*%
%ADD12O,2.500000X0.900000*%
%ADD13O,0.900000X2.500000*%
G04 APERTURE END LIST*
%TO.C,R5*%
G36*
G01*
X177740999Y-116724000D02*
X179891001Y-116724000D01*
G75*
G02*
X180141000Y-116973999I0J-249999D01*
G01*
X180141000Y-117774001D01*
G75*
G02*
X179891001Y-118024000I-249999J0D01*
G01*
X177740999Y-118024000D01*
G75*
G02*
X177491000Y-117774001I0J249999D01*
G01*
X177491000Y-116973999D01*
G75*
G02*
X177740999Y-116724000I249999J0D01*
G01*
G37*
G36*
G01*
X177740999Y-113624000D02*
X179891001Y-113624000D01*
G75*
G02*
X180141000Y-113873999I0J-249999D01*
G01*
X180141000Y-114674001D01*
G75*
G02*
X179891001Y-114924000I-249999J0D01*
G01*
X177740999Y-114924000D01*
G75*
G02*
X177491000Y-114674001I0J249999D01*
G01*
X177491000Y-113873999D01*
G75*
G02*
X177740999Y-113624000I249999J0D01*
G01*
G37*
%TD*%
D10*
%TO.C,SW2*%
X227146300Y-107062400D03*
X234346300Y-107062400D03*
X227146300Y-104062400D03*
X234346300Y-104062400D03*
%TD*%
%TO.C,SW1*%
X188271600Y-81103600D03*
X195471600Y-81103600D03*
X188271600Y-78103600D03*
X195471600Y-78103600D03*
%TD*%
%TO.C,R8*%
G36*
G01*
X221811900Y-112579999D02*
X221811900Y-113480001D01*
G75*
G02*
X221561901Y-113730000I-249999J0D01*
G01*
X220861899Y-113730000D01*
G75*
G02*
X220611900Y-113480001I0J249999D01*
G01*
X220611900Y-112579999D01*
G75*
G02*
X220861899Y-112330000I249999J0D01*
G01*
X221561901Y-112330000D01*
G75*
G02*
X221811900Y-112579999I0J-249999D01*
G01*
G37*
G36*
G01*
X223811900Y-112579999D02*
X223811900Y-113480001D01*
G75*
G02*
X223561901Y-113730000I-249999J0D01*
G01*
X222861899Y-113730000D01*
G75*
G02*
X222611900Y-113480001I0J249999D01*
G01*
X222611900Y-112579999D01*
G75*
G02*
X222861899Y-112330000I249999J0D01*
G01*
X223561901Y-112330000D01*
G75*
G02*
X223811900Y-112579999I0J-249999D01*
G01*
G37*
%TD*%
%TO.C,Cdes1*%
G36*
G01*
X209085200Y-78671000D02*
X208135200Y-78671000D01*
G75*
G02*
X207885200Y-78421000I0J250000D01*
G01*
X207885200Y-77746000D01*
G75*
G02*
X208135200Y-77496000I250000J0D01*
G01*
X209085200Y-77496000D01*
G75*
G02*
X209335200Y-77746000I0J-250000D01*
G01*
X209335200Y-78421000D01*
G75*
G02*
X209085200Y-78671000I-250000J0D01*
G01*
G37*
G36*
G01*
X209085200Y-80746000D02*
X208135200Y-80746000D01*
G75*
G02*
X207885200Y-80496000I0J250000D01*
G01*
X207885200Y-79821000D01*
G75*
G02*
X208135200Y-79571000I250000J0D01*
G01*
X209085200Y-79571000D01*
G75*
G02*
X209335200Y-79821000I0J-250000D01*
G01*
X209335200Y-80496000D01*
G75*
G02*
X209085200Y-80746000I-250000J0D01*
G01*
G37*
%TD*%
%TO.C,C2*%
G36*
G01*
X174717800Y-90490000D02*
X173617800Y-90490000D01*
G75*
G02*
X173367800Y-90240000I0J250000D01*
G01*
X173367800Y-87240000D01*
G75*
G02*
X173617800Y-86990000I250000J0D01*
G01*
X174717800Y-86990000D01*
G75*
G02*
X174967800Y-87240000I0J-250000D01*
G01*
X174967800Y-90240000D01*
G75*
G02*
X174717800Y-90490000I-250000J0D01*
G01*
G37*
G36*
G01*
X174717800Y-95890000D02*
X173617800Y-95890000D01*
G75*
G02*
X173367800Y-95640000I0J250000D01*
G01*
X173367800Y-92640000D01*
G75*
G02*
X173617800Y-92390000I250000J0D01*
G01*
X174717800Y-92390000D01*
G75*
G02*
X174967800Y-92640000I0J-250000D01*
G01*
X174967800Y-95640000D01*
G75*
G02*
X174717800Y-95890000I-250000J0D01*
G01*
G37*
%TD*%
%TO.C,D2*%
G36*
G01*
X216172201Y-107868300D02*
X215272199Y-107868300D01*
G75*
G02*
X215022200Y-107618301I0J249999D01*
G01*
X215022200Y-106968299D01*
G75*
G02*
X215272199Y-106718300I249999J0D01*
G01*
X216172201Y-106718300D01*
G75*
G02*
X216422200Y-106968299I0J-249999D01*
G01*
X216422200Y-107618301D01*
G75*
G02*
X216172201Y-107868300I-249999J0D01*
G01*
G37*
G36*
G01*
X216172201Y-109918300D02*
X215272199Y-109918300D01*
G75*
G02*
X215022200Y-109668301I0J249999D01*
G01*
X215022200Y-109018299D01*
G75*
G02*
X215272199Y-108768300I249999J0D01*
G01*
X216172201Y-108768300D01*
G75*
G02*
X216422200Y-109018299I0J-249999D01*
G01*
X216422200Y-109668301D01*
G75*
G02*
X216172201Y-109918300I-249999J0D01*
G01*
G37*
%TD*%
%TO.C,D1*%
G36*
G01*
X203878601Y-85699400D02*
X202978599Y-85699400D01*
G75*
G02*
X202728600Y-85449401I0J249999D01*
G01*
X202728600Y-84799399D01*
G75*
G02*
X202978599Y-84549400I249999J0D01*
G01*
X203878601Y-84549400D01*
G75*
G02*
X204128600Y-84799399I0J-249999D01*
G01*
X204128600Y-85449401D01*
G75*
G02*
X203878601Y-85699400I-249999J0D01*
G01*
G37*
G36*
G01*
X203878601Y-83649400D02*
X202978599Y-83649400D01*
G75*
G02*
X202728600Y-83399401I0J249999D01*
G01*
X202728600Y-82749399D01*
G75*
G02*
X202978599Y-82499400I249999J0D01*
G01*
X203878601Y-82499400D01*
G75*
G02*
X204128600Y-82749399I0J-249999D01*
G01*
X204128600Y-83399401D01*
G75*
G02*
X203878601Y-83649400I-249999J0D01*
G01*
G37*
%TD*%
%TO.C,D3*%
G36*
G01*
X201228000Y-106901401D02*
X201228000Y-106001399D01*
G75*
G02*
X201477999Y-105751400I249999J0D01*
G01*
X202128001Y-105751400D01*
G75*
G02*
X202378000Y-106001399I0J-249999D01*
G01*
X202378000Y-106901401D01*
G75*
G02*
X202128001Y-107151400I-249999J0D01*
G01*
X201477999Y-107151400D01*
G75*
G02*
X201228000Y-106901401I0J249999D01*
G01*
G37*
G36*
G01*
X199178000Y-106901401D02*
X199178000Y-106001399D01*
G75*
G02*
X199427999Y-105751400I249999J0D01*
G01*
X200078001Y-105751400D01*
G75*
G02*
X200328000Y-106001399I0J-249999D01*
G01*
X200328000Y-106901401D01*
G75*
G02*
X200078001Y-107151400I-249999J0D01*
G01*
X199427999Y-107151400D01*
G75*
G02*
X199178000Y-106901401I0J249999D01*
G01*
G37*
%TD*%
%TO.C,C5*%
G36*
G01*
X186324002Y-91302000D02*
X185023998Y-91302000D01*
G75*
G02*
X184774000Y-91052002I0J249998D01*
G01*
X184774000Y-90226998D01*
G75*
G02*
X185023998Y-89977000I249998J0D01*
G01*
X186324002Y-89977000D01*
G75*
G02*
X186574000Y-90226998I0J-249998D01*
G01*
X186574000Y-91052002D01*
G75*
G02*
X186324002Y-91302000I-249998J0D01*
G01*
G37*
G36*
G01*
X186324002Y-94427000D02*
X185023998Y-94427000D01*
G75*
G02*
X184774000Y-94177002I0J249998D01*
G01*
X184774000Y-93351998D01*
G75*
G02*
X185023998Y-93102000I249998J0D01*
G01*
X186324002Y-93102000D01*
G75*
G02*
X186574000Y-93351998I0J-249998D01*
G01*
X186574000Y-94177002D01*
G75*
G02*
X186324002Y-94427000I-249998J0D01*
G01*
G37*
%TD*%
%TO.C,C3*%
G36*
G01*
X180890000Y-81600000D02*
X179790000Y-81600000D01*
G75*
G02*
X179540000Y-81350000I0J250000D01*
G01*
X179540000Y-78350000D01*
G75*
G02*
X179790000Y-78100000I250000J0D01*
G01*
X180890000Y-78100000D01*
G75*
G02*
X181140000Y-78350000I0J-250000D01*
G01*
X181140000Y-81350000D01*
G75*
G02*
X180890000Y-81600000I-250000J0D01*
G01*
G37*
G36*
G01*
X180890000Y-87000000D02*
X179790000Y-87000000D01*
G75*
G02*
X179540000Y-86750000I0J250000D01*
G01*
X179540000Y-83750000D01*
G75*
G02*
X179790000Y-83500000I250000J0D01*
G01*
X180890000Y-83500000D01*
G75*
G02*
X181140000Y-83750000I0J-250000D01*
G01*
X181140000Y-86750000D01*
G75*
G02*
X180890000Y-87000000I-250000J0D01*
G01*
G37*
%TD*%
%TO.C,C4*%
G36*
G01*
X185943002Y-108980400D02*
X184642998Y-108980400D01*
G75*
G02*
X184393000Y-108730402I0J249998D01*
G01*
X184393000Y-107905398D01*
G75*
G02*
X184642998Y-107655400I249998J0D01*
G01*
X185943002Y-107655400D01*
G75*
G02*
X186193000Y-107905398I0J-249998D01*
G01*
X186193000Y-108730402D01*
G75*
G02*
X185943002Y-108980400I-249998J0D01*
G01*
G37*
G36*
G01*
X185943002Y-112105400D02*
X184642998Y-112105400D01*
G75*
G02*
X184393000Y-111855402I0J249998D01*
G01*
X184393000Y-111030398D01*
G75*
G02*
X184642998Y-110780400I249998J0D01*
G01*
X185943002Y-110780400D01*
G75*
G02*
X186193000Y-111030398I0J-249998D01*
G01*
X186193000Y-111855402D01*
G75*
G02*
X185943002Y-112105400I-249998J0D01*
G01*
G37*
%TD*%
%TO.C,R4*%
G36*
G01*
X216134101Y-102063600D02*
X215234099Y-102063600D01*
G75*
G02*
X214984100Y-101813601I0J249999D01*
G01*
X214984100Y-101113599D01*
G75*
G02*
X215234099Y-100863600I249999J0D01*
G01*
X216134101Y-100863600D01*
G75*
G02*
X216384100Y-101113599I0J-249999D01*
G01*
X216384100Y-101813601D01*
G75*
G02*
X216134101Y-102063600I-249999J0D01*
G01*
G37*
G36*
G01*
X216134101Y-104063600D02*
X215234099Y-104063600D01*
G75*
G02*
X214984100Y-103813601I0J249999D01*
G01*
X214984100Y-103113599D01*
G75*
G02*
X215234099Y-102863600I249999J0D01*
G01*
X216134101Y-102863600D01*
G75*
G02*
X216384100Y-103113599I0J-249999D01*
G01*
X216384100Y-103813601D01*
G75*
G02*
X216134101Y-104063600I-249999J0D01*
G01*
G37*
%TD*%
%TO.C,R2*%
G36*
G01*
X203904001Y-78695600D02*
X203003999Y-78695600D01*
G75*
G02*
X202754000Y-78445601I0J249999D01*
G01*
X202754000Y-77745599D01*
G75*
G02*
X203003999Y-77495600I249999J0D01*
G01*
X203904001Y-77495600D01*
G75*
G02*
X204154000Y-77745599I0J-249999D01*
G01*
X204154000Y-78445601D01*
G75*
G02*
X203904001Y-78695600I-249999J0D01*
G01*
G37*
G36*
G01*
X203904001Y-80695600D02*
X203003999Y-80695600D01*
G75*
G02*
X202754000Y-80445601I0J249999D01*
G01*
X202754000Y-79745599D01*
G75*
G02*
X203003999Y-79495600I249999J0D01*
G01*
X203904001Y-79495600D01*
G75*
G02*
X204154000Y-79745599I0J-249999D01*
G01*
X204154000Y-80445601D01*
G75*
G02*
X203904001Y-80695600I-249999J0D01*
G01*
G37*
%TD*%
%TO.C,R7*%
G36*
G01*
X201793300Y-96576301D02*
X201793300Y-95676299D01*
G75*
G02*
X202043299Y-95426300I249999J0D01*
G01*
X202743301Y-95426300D01*
G75*
G02*
X202993300Y-95676299I0J-249999D01*
G01*
X202993300Y-96576301D01*
G75*
G02*
X202743301Y-96826300I-249999J0D01*
G01*
X202043299Y-96826300D01*
G75*
G02*
X201793300Y-96576301I0J249999D01*
G01*
G37*
G36*
G01*
X199793300Y-96576301D02*
X199793300Y-95676299D01*
G75*
G02*
X200043299Y-95426300I249999J0D01*
G01*
X200743301Y-95426300D01*
G75*
G02*
X200993300Y-95676299I0J-249999D01*
G01*
X200993300Y-96576301D01*
G75*
G02*
X200743301Y-96826300I-249999J0D01*
G01*
X200043299Y-96826300D01*
G75*
G02*
X199793300Y-96576301I0J249999D01*
G01*
G37*
%TD*%
%TO.C,R6*%
G36*
G01*
X201187000Y-111727401D02*
X201187000Y-110827399D01*
G75*
G02*
X201436999Y-110577400I249999J0D01*
G01*
X202137001Y-110577400D01*
G75*
G02*
X202387000Y-110827399I0J-249999D01*
G01*
X202387000Y-111727401D01*
G75*
G02*
X202137001Y-111977400I-249999J0D01*
G01*
X201436999Y-111977400D01*
G75*
G02*
X201187000Y-111727401I0J249999D01*
G01*
G37*
G36*
G01*
X199187000Y-111727401D02*
X199187000Y-110827399D01*
G75*
G02*
X199436999Y-110577400I249999J0D01*
G01*
X200137001Y-110577400D01*
G75*
G02*
X200387000Y-110827399I0J-249999D01*
G01*
X200387000Y-111727401D01*
G75*
G02*
X200137001Y-111977400I-249999J0D01*
G01*
X199436999Y-111977400D01*
G75*
G02*
X199187000Y-111727401I0J249999D01*
G01*
G37*
%TD*%
%TO.C,R3*%
G36*
G01*
X234295900Y-100094201D02*
X234295900Y-99194199D01*
G75*
G02*
X234545899Y-98944200I249999J0D01*
G01*
X235245901Y-98944200D01*
G75*
G02*
X235495900Y-99194199I0J-249999D01*
G01*
X235495900Y-100094201D01*
G75*
G02*
X235245901Y-100344200I-249999J0D01*
G01*
X234545899Y-100344200D01*
G75*
G02*
X234295900Y-100094201I0J249999D01*
G01*
G37*
G36*
G01*
X232295900Y-100094201D02*
X232295900Y-99194199D01*
G75*
G02*
X232545899Y-98944200I249999J0D01*
G01*
X233245901Y-98944200D01*
G75*
G02*
X233495900Y-99194199I0J-249999D01*
G01*
X233495900Y-100094201D01*
G75*
G02*
X233245901Y-100344200I-249999J0D01*
G01*
X232545899Y-100344200D01*
G75*
G02*
X232295900Y-100094201I0J249999D01*
G01*
G37*
%TD*%
%TO.C,R1*%
G36*
G01*
X197821600Y-84766999D02*
X197821600Y-85667001D01*
G75*
G02*
X197571601Y-85917000I-249999J0D01*
G01*
X196871599Y-85917000D01*
G75*
G02*
X196621600Y-85667001I0J249999D01*
G01*
X196621600Y-84766999D01*
G75*
G02*
X196871599Y-84517000I249999J0D01*
G01*
X197571601Y-84517000D01*
G75*
G02*
X197821600Y-84766999I0J-249999D01*
G01*
G37*
G36*
G01*
X199821600Y-84766999D02*
X199821600Y-85667001D01*
G75*
G02*
X199571601Y-85917000I-249999J0D01*
G01*
X198871599Y-85917000D01*
G75*
G02*
X198621600Y-85667001I0J249999D01*
G01*
X198621600Y-84766999D01*
G75*
G02*
X198871599Y-84517000I249999J0D01*
G01*
X199571601Y-84517000D01*
G75*
G02*
X199821600Y-84766999I0J-249999D01*
G01*
G37*
%TD*%
%TO.C,D4*%
G36*
G01*
X201859300Y-91750301D02*
X201859300Y-90850299D01*
G75*
G02*
X202109299Y-90600300I249999J0D01*
G01*
X202759301Y-90600300D01*
G75*
G02*
X203009300Y-90850299I0J-249999D01*
G01*
X203009300Y-91750301D01*
G75*
G02*
X202759301Y-92000300I-249999J0D01*
G01*
X202109299Y-92000300D01*
G75*
G02*
X201859300Y-91750301I0J249999D01*
G01*
G37*
G36*
G01*
X199809300Y-91750301D02*
X199809300Y-90850299D01*
G75*
G02*
X200059299Y-90600300I249999J0D01*
G01*
X200709301Y-90600300D01*
G75*
G02*
X200959300Y-90850299I0J-249999D01*
G01*
X200959300Y-91750301D01*
G75*
G02*
X200709301Y-92000300I-249999J0D01*
G01*
X200059299Y-92000300D01*
G75*
G02*
X199809300Y-91750301I0J249999D01*
G01*
G37*
%TD*%
D11*
%TO.C,U1*%
X224437434Y-85812662D03*
D12*
X215737434Y-78112662D03*
X215737434Y-79382662D03*
X215737434Y-80652662D03*
X215737434Y-81922662D03*
X215737434Y-83192662D03*
X215737434Y-84462662D03*
X215737434Y-85732662D03*
X215737434Y-87002662D03*
X215737434Y-88272662D03*
X215737434Y-89542662D03*
X215737434Y-90812662D03*
X215737434Y-92082662D03*
X215737434Y-93352662D03*
X215737434Y-94622662D03*
D13*
X219022434Y-96112662D03*
X220292434Y-96112662D03*
X221562434Y-96112662D03*
X222832434Y-96112662D03*
X224102434Y-96112662D03*
X225372434Y-96112662D03*
X226642434Y-96112662D03*
X227912434Y-96112662D03*
X229182434Y-96112662D03*
X230452434Y-96112662D03*
D12*
X233737434Y-94622662D03*
X233737434Y-93352662D03*
X233737434Y-92082662D03*
X233737434Y-90812662D03*
X233737434Y-89542662D03*
X233737434Y-88272662D03*
X233737434Y-87002662D03*
X233737434Y-85732662D03*
X233737434Y-84462662D03*
X233737434Y-83192662D03*
X233737434Y-81922662D03*
X233737434Y-80652662D03*
X233737434Y-79382662D03*
X233737434Y-78112662D03*
%TD*%
M02*
