M48
; DRILL file {KiCad (5.1.12)-1} date 01/20/22 18:25:11
; FORMAT={-:-/ absolute / inch / decimal}
; #@! TF.CreationDate,2022-01-20T18:25:11-05:00
; #@! TF.GenerationSoftware,Kicad,Pcbnew,(5.1.12)-1
; #@! TF.FileFunction,Plated,1,2,PTH
FMAT,2
INCH
T1C0.0157
T2C0.0374
T3C0.0433
T4C0.0598
%
G90
G05
T1
X7.752Y-4.67
X7.904Y-3.224
X8.1Y-4.008
X8.261Y-4.67
X8.545Y-4.67
X8.837Y-4.2125
X8.977Y-4.72
X9.0775Y-3.9235
T2
X7.0813Y-4.95
X7.1797Y-4.95
X7.2781Y-4.95
X7.3766Y-4.95
X7.475Y-4.95
X7.7297Y-4.95
X7.8281Y-4.95
X7.9266Y-4.95
X8.025Y-4.95
X8.3047Y-4.95
X8.4031Y-4.95
X8.5016Y-4.95
X8.6Y-4.95
X8.8797Y-4.95
X8.9781Y-4.95
X9.0766Y-4.95
X9.15Y-4.4281
X9.15Y-4.5266
X9.15Y-4.625
X9.175Y-4.95
T3
X6.85Y-4.5
X6.85Y-4.6
X6.85Y-4.7
X7.545Y-4.166
X7.545Y-4.266
X7.545Y-4.366
X7.56Y-3.591
X7.56Y-3.691
X7.56Y-3.791
T4
X6.86Y-4.01
X6.86Y-4.21
T0
M30
