%TF.GenerationSoftware,KiCad,Pcbnew,(5.1.12)-1*%
%TF.CreationDate,2022-01-20T18:25:14-05:00*%
%TF.ProjectId,PCB-ESP32S,5043422d-4553-4503-9332-532e6b696361,rev?*%
%TF.SameCoordinates,Original*%
%TF.FileFunction,Copper,L2,Bot*%
%TF.FilePolarity,Positive*%
%FSLAX46Y46*%
G04 Gerber Fmt 4.6, Leading zero omitted, Abs format (unit mm)*
G04 Created by KiCad (PCBNEW (5.1.12)-1) date 2022-01-20 18:25:14*
%MOMM*%
%LPD*%
G01*
G04 APERTURE LIST*
%TA.AperFunction,ComponentPad*%
%ADD10O,1.950000X1.700000*%
%TD*%
%TA.AperFunction,ComponentPad*%
%ADD11O,1.700000X1.950000*%
%TD*%
%TA.AperFunction,ComponentPad*%
%ADD12O,2.000000X1.905000*%
%TD*%
%TA.AperFunction,ComponentPad*%
%ADD13R,2.000000X1.905000*%
%TD*%
%TA.AperFunction,ComponentPad*%
%ADD14C,3.000000*%
%TD*%
%TA.AperFunction,ComponentPad*%
%ADD15R,3.000000X3.000000*%
%TD*%
%TA.AperFunction,ViaPad*%
%ADD16C,0.800000*%
%TD*%
%TA.AperFunction,Conductor*%
%ADD17C,0.600000*%
%TD*%
%TA.AperFunction,Conductor*%
%ADD18C,1.000000*%
%TD*%
%TA.AperFunction,Conductor*%
%ADD19C,0.254000*%
%TD*%
%TA.AperFunction,Conductor*%
%ADD20C,0.100000*%
%TD*%
G04 APERTURE END LIST*
D10*
%TO.P,J1,3*%
%TO.N,Net-(J1-Pad3)*%
X232410000Y-112475000D03*
%TO.P,J1,2*%
%TO.N,Net-(J1-Pad2)*%
X232410000Y-114975000D03*
%TO.P,J1,1*%
%TO.N,GND*%
%TA.AperFunction,ComponentPad*%
G36*
G01*
X233135000Y-118325000D02*
X231685000Y-118325000D01*
G75*
G02*
X231435000Y-118075000I0J250000D01*
G01*
X231435000Y-116875000D01*
G75*
G02*
X231685000Y-116625000I250000J0D01*
G01*
X233135000Y-116625000D01*
G75*
G02*
X233385000Y-116875000I0J-250000D01*
G01*
X233385000Y-118075000D01*
G75*
G02*
X233135000Y-118325000I-250000J0D01*
G01*
G37*
%TD.AperFunction*%
%TD*%
D11*
%TO.P,J3,5*%
%TO.N,+3V3*%
X179865000Y-125730000D03*
%TO.P,J3,4*%
%TO.N,IO32*%
X182365000Y-125730000D03*
%TO.P,J3,3*%
%TO.N,IO33*%
X184865000Y-125730000D03*
%TO.P,J3,2*%
%TO.N,N/C*%
X187365000Y-125730000D03*
%TO.P,J3,1*%
%TO.N,GND*%
%TA.AperFunction,ComponentPad*%
G36*
G01*
X190715000Y-125005000D02*
X190715000Y-126455000D01*
G75*
G02*
X190465000Y-126705000I-250000J0D01*
G01*
X189265000Y-126705000D01*
G75*
G02*
X189015000Y-126455000I0J250000D01*
G01*
X189015000Y-125005000D01*
G75*
G02*
X189265000Y-124755000I250000J0D01*
G01*
X190465000Y-124755000D01*
G75*
G02*
X190715000Y-125005000I0J-250000D01*
G01*
G37*
%TD.AperFunction*%
%TD*%
%TO.P,J4,4*%
%TO.N,+5V*%
X196335000Y-125730000D03*
%TO.P,J4,3*%
%TO.N,IO14*%
X198835000Y-125730000D03*
%TO.P,J4,2*%
%TO.N,N/C*%
X201335000Y-125730000D03*
%TO.P,J4,1*%
%TO.N,GND*%
%TA.AperFunction,ComponentPad*%
G36*
G01*
X204685000Y-125005000D02*
X204685000Y-126455000D01*
G75*
G02*
X204435000Y-126705000I-250000J0D01*
G01*
X203235000Y-126705000D01*
G75*
G02*
X202985000Y-126455000I0J250000D01*
G01*
X202985000Y-125005000D01*
G75*
G02*
X203235000Y-124755000I250000J0D01*
G01*
X204435000Y-124755000D01*
G75*
G02*
X204685000Y-125005000I0J-250000D01*
G01*
G37*
%TD.AperFunction*%
%TD*%
%TO.P,J5,4*%
%TO.N,+5V*%
X210940000Y-125730000D03*
%TO.P,J5,3*%
%TO.N,IO12*%
X213440000Y-125730000D03*
%TO.P,J5,2*%
%TO.N,N/C*%
X215940000Y-125730000D03*
%TO.P,J5,1*%
%TO.N,GND*%
%TA.AperFunction,ComponentPad*%
G36*
G01*
X219290000Y-125005000D02*
X219290000Y-126455000D01*
G75*
G02*
X219040000Y-126705000I-250000J0D01*
G01*
X217840000Y-126705000D01*
G75*
G02*
X217590000Y-126455000I0J250000D01*
G01*
X217590000Y-125005000D01*
G75*
G02*
X217840000Y-124755000I250000J0D01*
G01*
X219040000Y-124755000D01*
G75*
G02*
X219290000Y-125005000I0J-250000D01*
G01*
G37*
%TD.AperFunction*%
%TD*%
%TO.P,TH1,4*%
%TO.N,GND*%
X225545000Y-125730000D03*
%TO.P,TH1,3*%
%TO.N,N/C*%
X228045000Y-125730000D03*
%TO.P,TH1,2*%
%TO.N,IO2*%
X230545000Y-125730000D03*
%TO.P,TH1,1*%
%TO.N,+5V*%
%TA.AperFunction,ComponentPad*%
G36*
G01*
X233895000Y-125005000D02*
X233895000Y-126455000D01*
G75*
G02*
X233645000Y-126705000I-250000J0D01*
G01*
X232445000Y-126705000D01*
G75*
G02*
X232195000Y-126455000I0J250000D01*
G01*
X232195000Y-125005000D01*
G75*
G02*
X232445000Y-124755000I250000J0D01*
G01*
X233645000Y-124755000D01*
G75*
G02*
X233895000Y-125005000I0J-250000D01*
G01*
G37*
%TD.AperFunction*%
%TD*%
D12*
%TO.P,U3,3*%
%TO.N,+5V*%
X192024000Y-96291400D03*
%TO.P,U3,2*%
%TO.N,+3V3*%
X192024000Y-93751400D03*
D13*
%TO.P,U3,1*%
%TO.N,GND*%
X192024000Y-91211400D03*
%TD*%
D12*
%TO.P,Q1,3*%
%TO.N,/Sheet61A8C81E/12v*%
X173990000Y-114300000D03*
%TO.P,Q1,2*%
%TO.N,+5V*%
X173990000Y-116840000D03*
D13*
%TO.P,Q1,1*%
%TO.N,Net-(C2-Pad1)*%
X173990000Y-119380000D03*
%TD*%
D14*
%TO.P,J2,2*%
%TO.N,GND*%
X174244000Y-101854000D03*
D15*
%TO.P,J2,1*%
%TO.N,/Sheet61A8C81E/12v*%
X174244000Y-106934000D03*
%TD*%
D12*
%TO.P,U2,3*%
%TO.N,+5V*%
X191643000Y-110896400D03*
%TO.P,U2,2*%
%TO.N,GND*%
X191643000Y-108356400D03*
D13*
%TO.P,U2,1*%
%TO.N,Net-(C2-Pad1)*%
X191643000Y-105816400D03*
%TD*%
D16*
%TO.N,+3V3*%
X200761600Y-81889600D03*
X205740000Y-101803200D03*
X230568500Y-99656900D03*
%TO.N,GND*%
X217043000Y-118618000D03*
X209829400Y-118618000D03*
X224459800Y-106997500D03*
X196900800Y-118618000D03*
%TO.N,+5V*%
X228015800Y-119888000D03*
%TD*%
D17*
%TO.N,+3V3*%
X192024000Y-93751400D02*
X192336502Y-93751400D01*
X205740000Y-101803200D02*
X205740000Y-101854000D01*
X205740000Y-101803200D02*
X200761600Y-96824800D01*
X200761600Y-96824800D02*
X200761600Y-81889600D01*
X228422200Y-101803200D02*
X228949250Y-101276150D01*
X205740000Y-101803200D02*
X228422200Y-101803200D01*
X228949250Y-101276150D02*
X230568500Y-99656900D01*
X228536500Y-101688900D02*
X228949250Y-101276150D01*
%TO.N,GND*%
X191643000Y-108356400D02*
X193040000Y-108356400D01*
X193040000Y-108356400D02*
X194691000Y-110007400D01*
D18*
X178587400Y-91211400D02*
X192024000Y-91211400D01*
D17*
X191643000Y-108356400D02*
X193243000Y-108356400D01*
X217043000Y-118618000D02*
X210312000Y-118618000D01*
X210312000Y-118618000D02*
X209829400Y-118618000D01*
X194678300Y-115912900D02*
X194691000Y-115900200D01*
X198081900Y-118618000D02*
X196900800Y-118618000D01*
X209829400Y-118618000D02*
X198081900Y-118618000D01*
X194691000Y-116408200D02*
X194691000Y-115519200D01*
X196900800Y-118618000D02*
X194691000Y-116408200D01*
X194691000Y-115519200D02*
X194691000Y-115900200D01*
X194691000Y-110007400D02*
X194691000Y-115519200D01*
X194652800Y-106908700D02*
X194691000Y-106870500D01*
X194652800Y-106946600D02*
X194652800Y-106908700D01*
X193243000Y-108356400D02*
X194652800Y-106946600D01*
X192024000Y-91211400D02*
X193560700Y-91211400D01*
X194652800Y-92303500D02*
X194652800Y-106946600D01*
X193560700Y-91211400D02*
X194652800Y-92303500D01*
X223951800Y-106997500D02*
X224459800Y-106997500D01*
X217043000Y-118618000D02*
X218325700Y-117335300D01*
X224459800Y-106997500D02*
X220091000Y-106997500D01*
X218325700Y-108762800D02*
X218325700Y-113766600D01*
X220091000Y-106997500D02*
X218325700Y-108762800D01*
X218325700Y-113766600D02*
X218325700Y-112623600D01*
X218325700Y-117335300D02*
X218325700Y-113766600D01*
D18*
X173990000Y-95808800D02*
X174904400Y-94894400D01*
X173990000Y-102870000D02*
X173990000Y-95808800D01*
X174904400Y-94894400D02*
X178587400Y-91211400D01*
D17*
X225545000Y-125730000D02*
X218440000Y-125730000D01*
%TO.N,+5V*%
X191643000Y-110896400D02*
X192278000Y-110896400D01*
D18*
X192024000Y-96291400D02*
X189153800Y-96291400D01*
X189153800Y-96291400D02*
X187553600Y-97891600D01*
X187553600Y-97891600D02*
X187553600Y-109194600D01*
X189255400Y-110896400D02*
X191643000Y-110896400D01*
X187553600Y-109194600D02*
X189255400Y-110896400D01*
D17*
X206502000Y-119888000D02*
X200164700Y-119888000D01*
X213283800Y-119888000D02*
X228015800Y-119888000D01*
X191643000Y-118046500D02*
X193484500Y-119888000D01*
X191643000Y-110896400D02*
X191643000Y-118046500D01*
D18*
X184531000Y-110896400D02*
X179857400Y-115570000D01*
X179857400Y-115570000D02*
X180282308Y-115145092D01*
X190423800Y-110896400D02*
X184531000Y-110896400D01*
X187579000Y-110896400D02*
X190423800Y-110896400D01*
X190423800Y-110896400D02*
X191643000Y-110896400D01*
X178562000Y-116840000D02*
X178574700Y-116852700D01*
X173990000Y-116840000D02*
X178562000Y-116840000D01*
X178574700Y-116852700D02*
X179857400Y-115570000D01*
D17*
X196342000Y-119888000D02*
X193484500Y-119888000D01*
X212217000Y-119888000D02*
X213283800Y-119888000D01*
X206502000Y-119888000D02*
X212217000Y-119888000D01*
X196335000Y-121165000D02*
X197612000Y-119888000D01*
X196335000Y-125730000D02*
X196335000Y-121165000D01*
X197612000Y-119888000D02*
X196342000Y-119888000D01*
X200164700Y-119888000D02*
X197612000Y-119888000D01*
X210940000Y-121165000D02*
X212217000Y-119888000D01*
X210940000Y-125730000D02*
X210940000Y-121165000D01*
X228015800Y-119888000D02*
X229108000Y-119888000D01*
X233045000Y-123825000D02*
X233045000Y-125730000D01*
X229108000Y-119888000D02*
X233045000Y-123825000D01*
%TD*%
D19*
%TO.N,GND*%
X241910000Y-128880000D02*
X170840000Y-128880000D01*
X170840000Y-125559117D01*
X172255000Y-125559117D01*
X172255000Y-125900883D01*
X172321675Y-126236081D01*
X172452463Y-126551831D01*
X172642337Y-126835998D01*
X172884002Y-127077663D01*
X173168169Y-127267537D01*
X173483919Y-127398325D01*
X173819117Y-127465000D01*
X174160883Y-127465000D01*
X174496081Y-127398325D01*
X174811831Y-127267537D01*
X175095998Y-127077663D01*
X175337663Y-126835998D01*
X175527537Y-126551831D01*
X175658325Y-126236081D01*
X175725000Y-125900883D01*
X175725000Y-125559117D01*
X175719617Y-125532050D01*
X178380000Y-125532050D01*
X178380000Y-125927949D01*
X178401487Y-126146110D01*
X178486401Y-126426033D01*
X178624294Y-126684013D01*
X178809866Y-126910134D01*
X179035986Y-127095706D01*
X179293966Y-127233599D01*
X179573889Y-127318513D01*
X179865000Y-127347185D01*
X180156110Y-127318513D01*
X180436033Y-127233599D01*
X180694013Y-127095706D01*
X180920134Y-126910134D01*
X181105706Y-126684014D01*
X181115000Y-126666626D01*
X181124294Y-126684013D01*
X181309866Y-126910134D01*
X181535986Y-127095706D01*
X181793966Y-127233599D01*
X182073889Y-127318513D01*
X182365000Y-127347185D01*
X182656110Y-127318513D01*
X182936033Y-127233599D01*
X183194013Y-127095706D01*
X183420134Y-126910134D01*
X183605706Y-126684014D01*
X183615000Y-126666626D01*
X183624294Y-126684013D01*
X183809866Y-126910134D01*
X184035986Y-127095706D01*
X184293966Y-127233599D01*
X184573889Y-127318513D01*
X184865000Y-127347185D01*
X185156110Y-127318513D01*
X185436033Y-127233599D01*
X185694013Y-127095706D01*
X185920134Y-126910134D01*
X186105706Y-126684014D01*
X186115000Y-126666626D01*
X186124294Y-126684013D01*
X186309866Y-126910134D01*
X186535986Y-127095706D01*
X186793966Y-127233599D01*
X187073889Y-127318513D01*
X187365000Y-127347185D01*
X187656110Y-127318513D01*
X187936033Y-127233599D01*
X188194013Y-127095706D01*
X188414945Y-126914392D01*
X188425498Y-126949180D01*
X188484463Y-127059494D01*
X188563815Y-127156185D01*
X188660506Y-127235537D01*
X188770820Y-127294502D01*
X188890518Y-127330812D01*
X189015000Y-127343072D01*
X189579250Y-127340000D01*
X189738000Y-127181250D01*
X189738000Y-125857000D01*
X189992000Y-125857000D01*
X189992000Y-127181250D01*
X190150750Y-127340000D01*
X190715000Y-127343072D01*
X190839482Y-127330812D01*
X190959180Y-127294502D01*
X191069494Y-127235537D01*
X191166185Y-127156185D01*
X191245537Y-127059494D01*
X191304502Y-126949180D01*
X191340812Y-126829482D01*
X191353072Y-126705000D01*
X191350000Y-126015750D01*
X191191250Y-125857000D01*
X189992000Y-125857000D01*
X189738000Y-125857000D01*
X189718000Y-125857000D01*
X189718000Y-125603000D01*
X189738000Y-125603000D01*
X189738000Y-124278750D01*
X189992000Y-124278750D01*
X189992000Y-125603000D01*
X191191250Y-125603000D01*
X191350000Y-125444250D01*
X191353072Y-124755000D01*
X191340812Y-124630518D01*
X191304502Y-124510820D01*
X191245537Y-124400506D01*
X191166185Y-124303815D01*
X191069494Y-124224463D01*
X190959180Y-124165498D01*
X190839482Y-124129188D01*
X190715000Y-124116928D01*
X190150750Y-124120000D01*
X189992000Y-124278750D01*
X189738000Y-124278750D01*
X189579250Y-124120000D01*
X189015000Y-124116928D01*
X188890518Y-124129188D01*
X188770820Y-124165498D01*
X188660506Y-124224463D01*
X188563815Y-124303815D01*
X188484463Y-124400506D01*
X188425498Y-124510820D01*
X188414945Y-124545608D01*
X188194014Y-124364294D01*
X187936034Y-124226401D01*
X187656111Y-124141487D01*
X187365000Y-124112815D01*
X187073890Y-124141487D01*
X186793967Y-124226401D01*
X186535987Y-124364294D01*
X186309866Y-124549866D01*
X186124294Y-124775986D01*
X186115000Y-124793374D01*
X186105706Y-124775986D01*
X185920134Y-124549866D01*
X185694014Y-124364294D01*
X185436034Y-124226401D01*
X185156111Y-124141487D01*
X184865000Y-124112815D01*
X184573890Y-124141487D01*
X184293967Y-124226401D01*
X184035987Y-124364294D01*
X183809866Y-124549866D01*
X183624294Y-124775986D01*
X183615000Y-124793374D01*
X183605706Y-124775986D01*
X183420134Y-124549866D01*
X183194014Y-124364294D01*
X182936034Y-124226401D01*
X182656111Y-124141487D01*
X182365000Y-124112815D01*
X182073890Y-124141487D01*
X181793967Y-124226401D01*
X181535987Y-124364294D01*
X181309866Y-124549866D01*
X181124294Y-124775986D01*
X181115000Y-124793374D01*
X181105706Y-124775986D01*
X180920134Y-124549866D01*
X180694014Y-124364294D01*
X180436034Y-124226401D01*
X180156111Y-124141487D01*
X179865000Y-124112815D01*
X179573890Y-124141487D01*
X179293967Y-124226401D01*
X179035987Y-124364294D01*
X178809866Y-124549866D01*
X178624294Y-124775986D01*
X178486401Y-125033966D01*
X178401487Y-125313889D01*
X178380000Y-125532050D01*
X175719617Y-125532050D01*
X175658325Y-125223919D01*
X175527537Y-124908169D01*
X175337663Y-124624002D01*
X175095998Y-124382337D01*
X174811831Y-124192463D01*
X174496081Y-124061675D01*
X174160883Y-123995000D01*
X173819117Y-123995000D01*
X173483919Y-124061675D01*
X173168169Y-124192463D01*
X172884002Y-124382337D01*
X172642337Y-124624002D01*
X172452463Y-124908169D01*
X172321675Y-125223919D01*
X172255000Y-125559117D01*
X170840000Y-125559117D01*
X170840000Y-114300000D01*
X172347319Y-114300000D01*
X172377970Y-114611204D01*
X172468745Y-114910449D01*
X172616155Y-115186235D01*
X172814537Y-115427963D01*
X172987609Y-115570000D01*
X172814537Y-115712037D01*
X172616155Y-115953765D01*
X172468745Y-116229551D01*
X172377970Y-116528796D01*
X172347319Y-116840000D01*
X172377970Y-117151204D01*
X172468745Y-117450449D01*
X172616155Y-117726235D01*
X172719446Y-117852095D01*
X172635506Y-117896963D01*
X172538815Y-117976315D01*
X172459463Y-118073006D01*
X172400498Y-118183320D01*
X172364188Y-118303018D01*
X172351928Y-118427500D01*
X172351928Y-120332500D01*
X172364188Y-120456982D01*
X172400498Y-120576680D01*
X172459463Y-120686994D01*
X172538815Y-120783685D01*
X172635506Y-120863037D01*
X172745820Y-120922002D01*
X172865518Y-120958312D01*
X172990000Y-120970572D01*
X174990000Y-120970572D01*
X175114482Y-120958312D01*
X175234180Y-120922002D01*
X175344494Y-120863037D01*
X175441185Y-120783685D01*
X175520537Y-120686994D01*
X175579502Y-120576680D01*
X175615812Y-120456982D01*
X175628072Y-120332500D01*
X175628072Y-118427500D01*
X175615812Y-118303018D01*
X175579502Y-118183320D01*
X175520537Y-118073006D01*
X175441185Y-117976315D01*
X175439583Y-117975000D01*
X178390002Y-117975000D01*
X178574700Y-117993191D01*
X178797199Y-117971277D01*
X179011147Y-117906376D01*
X179208323Y-117800984D01*
X179381149Y-117659149D01*
X179416695Y-117615836D01*
X180699389Y-116333144D01*
X180699398Y-116333133D01*
X180858716Y-116173815D01*
X181124297Y-115908235D01*
X181124301Y-115908231D01*
X185001133Y-112031400D01*
X189199648Y-112031400D01*
X189255400Y-112036891D01*
X189311152Y-112031400D01*
X190476112Y-112031400D01*
X190708000Y-112221707D01*
X190708001Y-118000558D01*
X190703476Y-118046500D01*
X190721529Y-118229791D01*
X190750411Y-118325000D01*
X190774994Y-118406040D01*
X190861815Y-118568472D01*
X190978657Y-118710844D01*
X191014336Y-118740125D01*
X192790874Y-120516664D01*
X192820156Y-120552344D01*
X192962528Y-120669186D01*
X193124960Y-120756007D01*
X193216203Y-120783685D01*
X193301207Y-120809471D01*
X193484499Y-120827524D01*
X193530431Y-120823000D01*
X195461673Y-120823000D01*
X195413529Y-120981709D01*
X195395476Y-121165000D01*
X195400001Y-121210942D01*
X195400000Y-124451275D01*
X195279866Y-124549866D01*
X195094294Y-124775986D01*
X194956401Y-125033966D01*
X194871487Y-125313889D01*
X194850000Y-125532050D01*
X194850000Y-125927949D01*
X194871487Y-126146110D01*
X194956401Y-126426033D01*
X195094294Y-126684013D01*
X195279866Y-126910134D01*
X195505986Y-127095706D01*
X195763966Y-127233599D01*
X196043889Y-127318513D01*
X196335000Y-127347185D01*
X196626110Y-127318513D01*
X196906033Y-127233599D01*
X197164013Y-127095706D01*
X197390134Y-126910134D01*
X197575706Y-126684014D01*
X197585000Y-126666626D01*
X197594294Y-126684013D01*
X197779866Y-126910134D01*
X198005986Y-127095706D01*
X198263966Y-127233599D01*
X198543889Y-127318513D01*
X198835000Y-127347185D01*
X199126110Y-127318513D01*
X199406033Y-127233599D01*
X199664013Y-127095706D01*
X199890134Y-126910134D01*
X200075706Y-126684014D01*
X200085000Y-126666626D01*
X200094294Y-126684013D01*
X200279866Y-126910134D01*
X200505986Y-127095706D01*
X200763966Y-127233599D01*
X201043889Y-127318513D01*
X201335000Y-127347185D01*
X201626110Y-127318513D01*
X201906033Y-127233599D01*
X202164013Y-127095706D01*
X202384945Y-126914392D01*
X202395498Y-126949180D01*
X202454463Y-127059494D01*
X202533815Y-127156185D01*
X202630506Y-127235537D01*
X202740820Y-127294502D01*
X202860518Y-127330812D01*
X202985000Y-127343072D01*
X203549250Y-127340000D01*
X203708000Y-127181250D01*
X203708000Y-125857000D01*
X203962000Y-125857000D01*
X203962000Y-127181250D01*
X204120750Y-127340000D01*
X204685000Y-127343072D01*
X204809482Y-127330812D01*
X204929180Y-127294502D01*
X205039494Y-127235537D01*
X205136185Y-127156185D01*
X205215537Y-127059494D01*
X205274502Y-126949180D01*
X205310812Y-126829482D01*
X205323072Y-126705000D01*
X205320000Y-126015750D01*
X205161250Y-125857000D01*
X203962000Y-125857000D01*
X203708000Y-125857000D01*
X203688000Y-125857000D01*
X203688000Y-125603000D01*
X203708000Y-125603000D01*
X203708000Y-124278750D01*
X203962000Y-124278750D01*
X203962000Y-125603000D01*
X205161250Y-125603000D01*
X205320000Y-125444250D01*
X205323072Y-124755000D01*
X205310812Y-124630518D01*
X205274502Y-124510820D01*
X205215537Y-124400506D01*
X205136185Y-124303815D01*
X205039494Y-124224463D01*
X204929180Y-124165498D01*
X204809482Y-124129188D01*
X204685000Y-124116928D01*
X204120750Y-124120000D01*
X203962000Y-124278750D01*
X203708000Y-124278750D01*
X203549250Y-124120000D01*
X202985000Y-124116928D01*
X202860518Y-124129188D01*
X202740820Y-124165498D01*
X202630506Y-124224463D01*
X202533815Y-124303815D01*
X202454463Y-124400506D01*
X202395498Y-124510820D01*
X202384945Y-124545608D01*
X202164014Y-124364294D01*
X201906034Y-124226401D01*
X201626111Y-124141487D01*
X201335000Y-124112815D01*
X201043890Y-124141487D01*
X200763967Y-124226401D01*
X200505987Y-124364294D01*
X200279866Y-124549866D01*
X200094294Y-124775986D01*
X200085000Y-124793374D01*
X200075706Y-124775986D01*
X199890134Y-124549866D01*
X199664014Y-124364294D01*
X199406034Y-124226401D01*
X199126111Y-124141487D01*
X198835000Y-124112815D01*
X198543890Y-124141487D01*
X198263967Y-124226401D01*
X198005987Y-124364294D01*
X197779866Y-124549866D01*
X197594294Y-124775986D01*
X197585000Y-124793374D01*
X197575706Y-124775986D01*
X197390134Y-124549866D01*
X197270000Y-124451275D01*
X197270000Y-121552289D01*
X197999289Y-120823000D01*
X210066673Y-120823000D01*
X210018529Y-120981709D01*
X210000476Y-121165000D01*
X210005001Y-121210942D01*
X210005000Y-124451275D01*
X209884866Y-124549866D01*
X209699294Y-124775986D01*
X209561401Y-125033966D01*
X209476487Y-125313889D01*
X209455000Y-125532050D01*
X209455000Y-125927949D01*
X209476487Y-126146110D01*
X209561401Y-126426033D01*
X209699294Y-126684013D01*
X209884866Y-126910134D01*
X210110986Y-127095706D01*
X210368966Y-127233599D01*
X210648889Y-127318513D01*
X210940000Y-127347185D01*
X211231110Y-127318513D01*
X211511033Y-127233599D01*
X211769013Y-127095706D01*
X211995134Y-126910134D01*
X212180706Y-126684014D01*
X212190000Y-126666626D01*
X212199294Y-126684013D01*
X212384866Y-126910134D01*
X212610986Y-127095706D01*
X212868966Y-127233599D01*
X213148889Y-127318513D01*
X213440000Y-127347185D01*
X213731110Y-127318513D01*
X214011033Y-127233599D01*
X214269013Y-127095706D01*
X214495134Y-126910134D01*
X214680706Y-126684014D01*
X214690000Y-126666626D01*
X214699294Y-126684013D01*
X214884866Y-126910134D01*
X215110986Y-127095706D01*
X215368966Y-127233599D01*
X215648889Y-127318513D01*
X215940000Y-127347185D01*
X216231110Y-127318513D01*
X216511033Y-127233599D01*
X216769013Y-127095706D01*
X216989945Y-126914392D01*
X217000498Y-126949180D01*
X217059463Y-127059494D01*
X217138815Y-127156185D01*
X217235506Y-127235537D01*
X217345820Y-127294502D01*
X217465518Y-127330812D01*
X217590000Y-127343072D01*
X218154250Y-127340000D01*
X218313000Y-127181250D01*
X218313000Y-125857000D01*
X218567000Y-125857000D01*
X218567000Y-127181250D01*
X218725750Y-127340000D01*
X219290000Y-127343072D01*
X219414482Y-127330812D01*
X219534180Y-127294502D01*
X219644494Y-127235537D01*
X219741185Y-127156185D01*
X219820537Y-127059494D01*
X219879502Y-126949180D01*
X219915812Y-126829482D01*
X219928072Y-126705000D01*
X219925328Y-126089267D01*
X224078680Y-126089267D01*
X224152558Y-126370830D01*
X224279947Y-126632570D01*
X224455951Y-126864429D01*
X224673807Y-127057496D01*
X224925142Y-127204352D01*
X225188110Y-127296476D01*
X225418000Y-127175155D01*
X225418000Y-125857000D01*
X224218835Y-125857000D01*
X224078680Y-126089267D01*
X219925328Y-126089267D01*
X219925000Y-126015750D01*
X219766250Y-125857000D01*
X218567000Y-125857000D01*
X218313000Y-125857000D01*
X218293000Y-125857000D01*
X218293000Y-125603000D01*
X218313000Y-125603000D01*
X218313000Y-124278750D01*
X218567000Y-124278750D01*
X218567000Y-125603000D01*
X219766250Y-125603000D01*
X219925000Y-125444250D01*
X219925327Y-125370733D01*
X224078680Y-125370733D01*
X224218835Y-125603000D01*
X225418000Y-125603000D01*
X225418000Y-124284845D01*
X225188110Y-124163524D01*
X224925142Y-124255648D01*
X224673807Y-124402504D01*
X224455951Y-124595571D01*
X224279947Y-124827430D01*
X224152558Y-125089170D01*
X224078680Y-125370733D01*
X219925327Y-125370733D01*
X219928072Y-124755000D01*
X219915812Y-124630518D01*
X219879502Y-124510820D01*
X219820537Y-124400506D01*
X219741185Y-124303815D01*
X219644494Y-124224463D01*
X219534180Y-124165498D01*
X219414482Y-124129188D01*
X219290000Y-124116928D01*
X218725750Y-124120000D01*
X218567000Y-124278750D01*
X218313000Y-124278750D01*
X218154250Y-124120000D01*
X217590000Y-124116928D01*
X217465518Y-124129188D01*
X217345820Y-124165498D01*
X217235506Y-124224463D01*
X217138815Y-124303815D01*
X217059463Y-124400506D01*
X217000498Y-124510820D01*
X216989945Y-124545608D01*
X216769014Y-124364294D01*
X216511034Y-124226401D01*
X216231111Y-124141487D01*
X215940000Y-124112815D01*
X215648890Y-124141487D01*
X215368967Y-124226401D01*
X215110987Y-124364294D01*
X214884866Y-124549866D01*
X214699294Y-124775986D01*
X214690000Y-124793374D01*
X214680706Y-124775986D01*
X214495134Y-124549866D01*
X214269014Y-124364294D01*
X214011034Y-124226401D01*
X213731111Y-124141487D01*
X213440000Y-124112815D01*
X213148890Y-124141487D01*
X212868967Y-124226401D01*
X212610987Y-124364294D01*
X212384866Y-124549866D01*
X212199294Y-124775986D01*
X212190000Y-124793374D01*
X212180706Y-124775986D01*
X211995134Y-124549866D01*
X211875000Y-124451275D01*
X211875000Y-121552289D01*
X212604289Y-120823000D01*
X227568505Y-120823000D01*
X227713902Y-120883226D01*
X227913861Y-120923000D01*
X228117739Y-120923000D01*
X228317698Y-120883226D01*
X228463095Y-120823000D01*
X228720711Y-120823000D01*
X232090220Y-124192509D01*
X231951614Y-124266595D01*
X231817038Y-124377038D01*
X231706595Y-124511614D01*
X231652223Y-124613337D01*
X231600134Y-124549866D01*
X231374014Y-124364294D01*
X231116034Y-124226401D01*
X230836111Y-124141487D01*
X230545000Y-124112815D01*
X230253890Y-124141487D01*
X229973967Y-124226401D01*
X229715987Y-124364294D01*
X229489866Y-124549866D01*
X229304294Y-124775986D01*
X229295000Y-124793374D01*
X229285706Y-124775986D01*
X229100134Y-124549866D01*
X228874014Y-124364294D01*
X228616034Y-124226401D01*
X228336111Y-124141487D01*
X228045000Y-124112815D01*
X227753890Y-124141487D01*
X227473967Y-124226401D01*
X227215987Y-124364294D01*
X226989866Y-124549866D01*
X226804294Y-124775986D01*
X226790538Y-124801722D01*
X226634049Y-124595571D01*
X226416193Y-124402504D01*
X226164858Y-124255648D01*
X225901890Y-124163524D01*
X225672000Y-124284845D01*
X225672000Y-125603000D01*
X225692000Y-125603000D01*
X225692000Y-125857000D01*
X225672000Y-125857000D01*
X225672000Y-127175155D01*
X225901890Y-127296476D01*
X226164858Y-127204352D01*
X226416193Y-127057496D01*
X226634049Y-126864429D01*
X226790538Y-126658278D01*
X226804294Y-126684013D01*
X226989866Y-126910134D01*
X227215986Y-127095706D01*
X227473966Y-127233599D01*
X227753889Y-127318513D01*
X228045000Y-127347185D01*
X228336110Y-127318513D01*
X228616033Y-127233599D01*
X228874013Y-127095706D01*
X229100134Y-126910134D01*
X229285706Y-126684014D01*
X229295000Y-126666626D01*
X229304294Y-126684013D01*
X229489866Y-126910134D01*
X229715986Y-127095706D01*
X229973966Y-127233599D01*
X230253889Y-127318513D01*
X230545000Y-127347185D01*
X230836110Y-127318513D01*
X231116033Y-127233599D01*
X231374013Y-127095706D01*
X231600134Y-126910134D01*
X231652223Y-126846663D01*
X231706595Y-126948386D01*
X231817038Y-127082962D01*
X231951614Y-127193405D01*
X232105150Y-127275472D01*
X232271746Y-127326008D01*
X232445000Y-127343072D01*
X233645000Y-127343072D01*
X233818254Y-127326008D01*
X233984850Y-127275472D01*
X234138386Y-127193405D01*
X234272962Y-127082962D01*
X234383405Y-126948386D01*
X234465472Y-126794850D01*
X234516008Y-126628254D01*
X234533072Y-126455000D01*
X234533072Y-125559117D01*
X237025000Y-125559117D01*
X237025000Y-125900883D01*
X237091675Y-126236081D01*
X237222463Y-126551831D01*
X237412337Y-126835998D01*
X237654002Y-127077663D01*
X237938169Y-127267537D01*
X238253919Y-127398325D01*
X238589117Y-127465000D01*
X238930883Y-127465000D01*
X239266081Y-127398325D01*
X239581831Y-127267537D01*
X239865998Y-127077663D01*
X240107663Y-126835998D01*
X240297537Y-126551831D01*
X240428325Y-126236081D01*
X240495000Y-125900883D01*
X240495000Y-125559117D01*
X240428325Y-125223919D01*
X240297537Y-124908169D01*
X240107663Y-124624002D01*
X239865998Y-124382337D01*
X239581831Y-124192463D01*
X239266081Y-124061675D01*
X238930883Y-123995000D01*
X238589117Y-123995000D01*
X238253919Y-124061675D01*
X237938169Y-124192463D01*
X237654002Y-124382337D01*
X237412337Y-124624002D01*
X237222463Y-124908169D01*
X237091675Y-125223919D01*
X237025000Y-125559117D01*
X234533072Y-125559117D01*
X234533072Y-125005000D01*
X234516008Y-124831746D01*
X234465472Y-124665150D01*
X234383405Y-124511614D01*
X234272962Y-124377038D01*
X234138386Y-124266595D01*
X233984850Y-124184528D01*
X233980000Y-124183057D01*
X233980000Y-123870935D01*
X233984524Y-123825000D01*
X233966472Y-123641708D01*
X233913007Y-123465461D01*
X233913007Y-123465460D01*
X233826186Y-123303028D01*
X233709344Y-123160656D01*
X233673660Y-123131371D01*
X229801630Y-119259341D01*
X229772344Y-119223656D01*
X229629972Y-119106814D01*
X229467540Y-119019993D01*
X229291292Y-118966529D01*
X229153932Y-118953000D01*
X229108000Y-118948476D01*
X229062068Y-118953000D01*
X228463095Y-118953000D01*
X228317698Y-118892774D01*
X228117739Y-118853000D01*
X227913861Y-118853000D01*
X227713902Y-118892774D01*
X227568505Y-118953000D01*
X212262935Y-118953000D01*
X212217000Y-118948476D01*
X212171065Y-118953000D01*
X197657935Y-118953000D01*
X197612000Y-118948476D01*
X197566065Y-118953000D01*
X193871790Y-118953000D01*
X193243790Y-118325000D01*
X230796928Y-118325000D01*
X230809188Y-118449482D01*
X230845498Y-118569180D01*
X230904463Y-118679494D01*
X230983815Y-118776185D01*
X231080506Y-118855537D01*
X231190820Y-118914502D01*
X231310518Y-118950812D01*
X231435000Y-118963072D01*
X232124250Y-118960000D01*
X232283000Y-118801250D01*
X232283000Y-117602000D01*
X232537000Y-117602000D01*
X232537000Y-118801250D01*
X232695750Y-118960000D01*
X233385000Y-118963072D01*
X233509482Y-118950812D01*
X233629180Y-118914502D01*
X233739494Y-118855537D01*
X233836185Y-118776185D01*
X233915537Y-118679494D01*
X233974502Y-118569180D01*
X234010812Y-118449482D01*
X234023072Y-118325000D01*
X234020000Y-117760750D01*
X233861250Y-117602000D01*
X232537000Y-117602000D01*
X232283000Y-117602000D01*
X230958750Y-117602000D01*
X230800000Y-117760750D01*
X230796928Y-118325000D01*
X193243790Y-118325000D01*
X192578000Y-117659211D01*
X192578000Y-112475000D01*
X230792815Y-112475000D01*
X230821487Y-112766111D01*
X230906401Y-113046034D01*
X231044294Y-113304014D01*
X231229866Y-113530134D01*
X231455986Y-113715706D01*
X231473374Y-113725000D01*
X231455986Y-113734294D01*
X231229866Y-113919866D01*
X231044294Y-114145986D01*
X230906401Y-114403966D01*
X230821487Y-114683889D01*
X230792815Y-114975000D01*
X230821487Y-115266111D01*
X230906401Y-115546034D01*
X231044294Y-115804014D01*
X231225608Y-116024945D01*
X231190820Y-116035498D01*
X231080506Y-116094463D01*
X230983815Y-116173815D01*
X230904463Y-116270506D01*
X230845498Y-116380820D01*
X230809188Y-116500518D01*
X230796928Y-116625000D01*
X230800000Y-117189250D01*
X230958750Y-117348000D01*
X232283000Y-117348000D01*
X232283000Y-117328000D01*
X232537000Y-117328000D01*
X232537000Y-117348000D01*
X233861250Y-117348000D01*
X234020000Y-117189250D01*
X234023072Y-116625000D01*
X234010812Y-116500518D01*
X233974502Y-116380820D01*
X233915537Y-116270506D01*
X233836185Y-116173815D01*
X233739494Y-116094463D01*
X233629180Y-116035498D01*
X233594392Y-116024945D01*
X233775706Y-115804014D01*
X233913599Y-115546034D01*
X233998513Y-115266111D01*
X234027185Y-114975000D01*
X233998513Y-114683889D01*
X233913599Y-114403966D01*
X233775706Y-114145986D01*
X233590134Y-113919866D01*
X233364014Y-113734294D01*
X233346626Y-113725000D01*
X233364014Y-113715706D01*
X233590134Y-113530134D01*
X233775706Y-113304014D01*
X233913599Y-113046034D01*
X233998513Y-112766111D01*
X234027185Y-112475000D01*
X233998513Y-112183889D01*
X233913599Y-111903966D01*
X233775706Y-111645986D01*
X233590134Y-111419866D01*
X233364014Y-111234294D01*
X233106034Y-111096401D01*
X232826111Y-111011487D01*
X232607950Y-110990000D01*
X232212050Y-110990000D01*
X231993889Y-111011487D01*
X231713966Y-111096401D01*
X231455986Y-111234294D01*
X231229866Y-111419866D01*
X231044294Y-111645986D01*
X230906401Y-111903966D01*
X230821487Y-112183889D01*
X230792815Y-112475000D01*
X192578000Y-112475000D01*
X192578000Y-112221707D01*
X192818463Y-112024363D01*
X193016845Y-111782635D01*
X193164255Y-111506849D01*
X193255030Y-111207604D01*
X193285681Y-110896400D01*
X193255030Y-110585196D01*
X193164255Y-110285951D01*
X193016845Y-110010165D01*
X192818463Y-109768437D01*
X192639101Y-109621237D01*
X192824315Y-109465837D01*
X193018969Y-109223323D01*
X193162571Y-108947494D01*
X193233563Y-108729380D01*
X193113594Y-108483400D01*
X191770000Y-108483400D01*
X191770000Y-108503400D01*
X191516000Y-108503400D01*
X191516000Y-108483400D01*
X190172406Y-108483400D01*
X190052437Y-108729380D01*
X190123429Y-108947494D01*
X190267031Y-109223323D01*
X190461685Y-109465837D01*
X190646899Y-109621237D01*
X190476112Y-109761400D01*
X189725533Y-109761400D01*
X188688600Y-108724469D01*
X188688600Y-104863900D01*
X190004928Y-104863900D01*
X190004928Y-106768900D01*
X190017188Y-106893382D01*
X190053498Y-107013080D01*
X190112463Y-107123394D01*
X190191815Y-107220085D01*
X190288506Y-107299437D01*
X190380219Y-107348459D01*
X190267031Y-107489477D01*
X190123429Y-107765306D01*
X190052437Y-107983420D01*
X190172406Y-108229400D01*
X191516000Y-108229400D01*
X191516000Y-108209400D01*
X191770000Y-108209400D01*
X191770000Y-108229400D01*
X193113594Y-108229400D01*
X193233563Y-107983420D01*
X193162571Y-107765306D01*
X193018969Y-107489477D01*
X192905781Y-107348459D01*
X192997494Y-107299437D01*
X193094185Y-107220085D01*
X193173537Y-107123394D01*
X193232502Y-107013080D01*
X193268812Y-106893382D01*
X193281072Y-106768900D01*
X193281072Y-104863900D01*
X193268812Y-104739418D01*
X193232502Y-104619720D01*
X193173537Y-104509406D01*
X193094185Y-104412715D01*
X192997494Y-104333363D01*
X192887180Y-104274398D01*
X192767482Y-104238088D01*
X192643000Y-104225828D01*
X190643000Y-104225828D01*
X190518518Y-104238088D01*
X190398820Y-104274398D01*
X190288506Y-104333363D01*
X190191815Y-104412715D01*
X190112463Y-104509406D01*
X190053498Y-104619720D01*
X190017188Y-104739418D01*
X190004928Y-104863900D01*
X188688600Y-104863900D01*
X188688600Y-98361731D01*
X189623933Y-97426400D01*
X190857112Y-97426400D01*
X191090265Y-97617745D01*
X191366051Y-97765155D01*
X191665296Y-97855930D01*
X191898514Y-97878900D01*
X192149486Y-97878900D01*
X192382704Y-97855930D01*
X192681949Y-97765155D01*
X192957735Y-97617745D01*
X193199463Y-97419363D01*
X193397845Y-97177635D01*
X193545255Y-96901849D01*
X193636030Y-96602604D01*
X193666681Y-96291400D01*
X193636030Y-95980196D01*
X193545255Y-95680951D01*
X193397845Y-95405165D01*
X193199463Y-95163437D01*
X193026391Y-95021400D01*
X193199463Y-94879363D01*
X193397845Y-94637635D01*
X193545255Y-94361849D01*
X193636030Y-94062604D01*
X193666681Y-93751400D01*
X193636030Y-93440196D01*
X193545255Y-93140951D01*
X193397845Y-92865165D01*
X193294554Y-92739305D01*
X193378494Y-92694437D01*
X193475185Y-92615085D01*
X193554537Y-92518394D01*
X193613502Y-92408080D01*
X193649812Y-92288382D01*
X193662072Y-92163900D01*
X193659000Y-91497150D01*
X193500250Y-91338400D01*
X192151000Y-91338400D01*
X192151000Y-91358400D01*
X191897000Y-91358400D01*
X191897000Y-91338400D01*
X190547750Y-91338400D01*
X190389000Y-91497150D01*
X190385928Y-92163900D01*
X190398188Y-92288382D01*
X190434498Y-92408080D01*
X190493463Y-92518394D01*
X190572815Y-92615085D01*
X190669506Y-92694437D01*
X190753446Y-92739305D01*
X190650155Y-92865165D01*
X190502745Y-93140951D01*
X190411970Y-93440196D01*
X190381319Y-93751400D01*
X190411970Y-94062604D01*
X190502745Y-94361849D01*
X190650155Y-94637635D01*
X190848537Y-94879363D01*
X191021609Y-95021400D01*
X190857112Y-95156400D01*
X189209552Y-95156400D01*
X189153800Y-95150909D01*
X188931301Y-95172823D01*
X188717353Y-95237724D01*
X188520177Y-95343116D01*
X188390656Y-95449411D01*
X188390654Y-95449413D01*
X188347351Y-95484951D01*
X188311813Y-95528254D01*
X186790464Y-97049605D01*
X186747151Y-97085151D01*
X186605316Y-97257977D01*
X186515293Y-97426400D01*
X186499924Y-97455154D01*
X186435023Y-97669102D01*
X186413109Y-97891600D01*
X186418600Y-97947352D01*
X186418601Y-109138839D01*
X186413109Y-109194600D01*
X186435023Y-109417098D01*
X186499924Y-109631046D01*
X186499925Y-109631047D01*
X186569600Y-109761400D01*
X184586752Y-109761400D01*
X184531000Y-109755909D01*
X184308501Y-109777823D01*
X184094553Y-109842724D01*
X183897377Y-109948116D01*
X183767856Y-110054411D01*
X183767854Y-110054413D01*
X183724551Y-110089951D01*
X183689013Y-110133254D01*
X179519169Y-114303099D01*
X179519165Y-114303103D01*
X179094266Y-114728003D01*
X179094256Y-114728011D01*
X178117268Y-115705000D01*
X175156888Y-115705000D01*
X174992391Y-115570000D01*
X175165463Y-115427963D01*
X175363845Y-115186235D01*
X175511255Y-114910449D01*
X175602030Y-114611204D01*
X175632681Y-114300000D01*
X175602030Y-113988796D01*
X175511255Y-113689551D01*
X175363845Y-113413765D01*
X175165463Y-113172037D01*
X174923735Y-112973655D01*
X174647949Y-112826245D01*
X174348704Y-112735470D01*
X174115486Y-112712500D01*
X173864514Y-112712500D01*
X173631296Y-112735470D01*
X173332051Y-112826245D01*
X173056265Y-112973655D01*
X172814537Y-113172037D01*
X172616155Y-113413765D01*
X172468745Y-113689551D01*
X172377970Y-113988796D01*
X172347319Y-114300000D01*
X170840000Y-114300000D01*
X170840000Y-105434000D01*
X172105928Y-105434000D01*
X172105928Y-108434000D01*
X172118188Y-108558482D01*
X172154498Y-108678180D01*
X172213463Y-108788494D01*
X172292815Y-108885185D01*
X172389506Y-108964537D01*
X172499820Y-109023502D01*
X172619518Y-109059812D01*
X172744000Y-109072072D01*
X175744000Y-109072072D01*
X175868482Y-109059812D01*
X175988180Y-109023502D01*
X176098494Y-108964537D01*
X176195185Y-108885185D01*
X176274537Y-108788494D01*
X176333502Y-108678180D01*
X176369812Y-108558482D01*
X176382072Y-108434000D01*
X176382072Y-105434000D01*
X176369812Y-105309518D01*
X176333502Y-105189820D01*
X176274537Y-105079506D01*
X176195185Y-104982815D01*
X176098494Y-104903463D01*
X175988180Y-104844498D01*
X175868482Y-104808188D01*
X175744000Y-104795928D01*
X172744000Y-104795928D01*
X172619518Y-104808188D01*
X172499820Y-104844498D01*
X172389506Y-104903463D01*
X172292815Y-104982815D01*
X172213463Y-105079506D01*
X172154498Y-105189820D01*
X172118188Y-105309518D01*
X172105928Y-105434000D01*
X170840000Y-105434000D01*
X170840000Y-103345653D01*
X172931952Y-103345653D01*
X173087962Y-103661214D01*
X173462745Y-103852020D01*
X173867551Y-103966044D01*
X174286824Y-103998902D01*
X174704451Y-103949334D01*
X175104383Y-103819243D01*
X175400038Y-103661214D01*
X175556048Y-103345653D01*
X174244000Y-102033605D01*
X172931952Y-103345653D01*
X170840000Y-103345653D01*
X170840000Y-101896824D01*
X172099098Y-101896824D01*
X172148666Y-102314451D01*
X172278757Y-102714383D01*
X172436786Y-103010038D01*
X172752347Y-103166048D01*
X174064395Y-101854000D01*
X174423605Y-101854000D01*
X175735653Y-103166048D01*
X176051214Y-103010038D01*
X176242020Y-102635255D01*
X176356044Y-102230449D01*
X176388902Y-101811176D01*
X176339334Y-101393549D01*
X176209243Y-100993617D01*
X176051214Y-100697962D01*
X175735653Y-100541952D01*
X174423605Y-101854000D01*
X174064395Y-101854000D01*
X172752347Y-100541952D01*
X172436786Y-100697962D01*
X172245980Y-101072745D01*
X172131956Y-101477551D01*
X172099098Y-101896824D01*
X170840000Y-101896824D01*
X170840000Y-100362347D01*
X172931952Y-100362347D01*
X174244000Y-101674395D01*
X175556048Y-100362347D01*
X175400038Y-100046786D01*
X175025255Y-99855980D01*
X174620449Y-99741956D01*
X174201176Y-99709098D01*
X173783549Y-99758666D01*
X173383617Y-99888757D01*
X173087962Y-100046786D01*
X172931952Y-100362347D01*
X170840000Y-100362347D01*
X170840000Y-90258900D01*
X190385928Y-90258900D01*
X190389000Y-90925650D01*
X190547750Y-91084400D01*
X191897000Y-91084400D01*
X191897000Y-89782650D01*
X192151000Y-89782650D01*
X192151000Y-91084400D01*
X193500250Y-91084400D01*
X193659000Y-90925650D01*
X193662072Y-90258900D01*
X193649812Y-90134418D01*
X193613502Y-90014720D01*
X193554537Y-89904406D01*
X193475185Y-89807715D01*
X193378494Y-89728363D01*
X193268180Y-89669398D01*
X193148482Y-89633088D01*
X193024000Y-89620828D01*
X192309750Y-89623900D01*
X192151000Y-89782650D01*
X191897000Y-89782650D01*
X191738250Y-89623900D01*
X191024000Y-89620828D01*
X190899518Y-89633088D01*
X190779820Y-89669398D01*
X190669506Y-89728363D01*
X190572815Y-89807715D01*
X190493463Y-89904406D01*
X190434498Y-90014720D01*
X190398188Y-90134418D01*
X190385928Y-90258900D01*
X170840000Y-90258900D01*
X170840000Y-81787661D01*
X199726600Y-81787661D01*
X199726600Y-81991539D01*
X199766374Y-82191498D01*
X199826601Y-82336898D01*
X199826600Y-96778868D01*
X199822076Y-96824800D01*
X199826600Y-96870731D01*
X199840129Y-97008091D01*
X199893593Y-97184339D01*
X199980414Y-97346771D01*
X200097256Y-97489144D01*
X200132941Y-97518430D01*
X204762569Y-102148058D01*
X204822795Y-102293456D01*
X204936063Y-102462974D01*
X205080226Y-102607137D01*
X205249744Y-102720405D01*
X205438102Y-102798426D01*
X205638061Y-102838200D01*
X205841939Y-102838200D01*
X206041898Y-102798426D01*
X206187295Y-102738200D01*
X228376268Y-102738200D01*
X228422200Y-102742724D01*
X228468132Y-102738200D01*
X228605492Y-102724671D01*
X228781740Y-102671207D01*
X228944172Y-102584386D01*
X229086544Y-102467544D01*
X229115830Y-102431859D01*
X229642874Y-101904815D01*
X230913359Y-100634331D01*
X231058756Y-100574105D01*
X231228274Y-100460837D01*
X231372437Y-100316674D01*
X231485705Y-100147156D01*
X231563726Y-99958798D01*
X231603500Y-99758839D01*
X231603500Y-99554961D01*
X231563726Y-99355002D01*
X231485705Y-99166644D01*
X231372437Y-98997126D01*
X231228274Y-98852963D01*
X231058756Y-98739695D01*
X230870398Y-98661674D01*
X230670439Y-98621900D01*
X230466561Y-98621900D01*
X230266602Y-98661674D01*
X230078244Y-98739695D01*
X229908726Y-98852963D01*
X229764563Y-98997126D01*
X229651295Y-99166644D01*
X229591069Y-99312041D01*
X228320584Y-100582527D01*
X228034911Y-100868200D01*
X206187295Y-100868200D01*
X206084858Y-100825769D01*
X201696600Y-96437511D01*
X201696600Y-82336895D01*
X201756826Y-82191498D01*
X201796600Y-81991539D01*
X201796600Y-81787661D01*
X201756826Y-81587702D01*
X201678805Y-81399344D01*
X201565537Y-81229826D01*
X201421374Y-81085663D01*
X201251856Y-80972395D01*
X201063498Y-80894374D01*
X200863539Y-80854600D01*
X200659661Y-80854600D01*
X200459702Y-80894374D01*
X200271344Y-80972395D01*
X200101826Y-81085663D01*
X199957663Y-81229826D01*
X199844395Y-81399344D01*
X199766374Y-81587702D01*
X199726600Y-81787661D01*
X170840000Y-81787661D01*
X170840000Y-78569117D01*
X172255000Y-78569117D01*
X172255000Y-78910883D01*
X172321675Y-79246081D01*
X172452463Y-79561831D01*
X172642337Y-79845998D01*
X172884002Y-80087663D01*
X173168169Y-80277537D01*
X173483919Y-80408325D01*
X173819117Y-80475000D01*
X174160883Y-80475000D01*
X174496081Y-80408325D01*
X174811831Y-80277537D01*
X175095998Y-80087663D01*
X175337663Y-79845998D01*
X175527537Y-79561831D01*
X175658325Y-79246081D01*
X175725000Y-78910883D01*
X175725000Y-78569117D01*
X237025000Y-78569117D01*
X237025000Y-78910883D01*
X237091675Y-79246081D01*
X237222463Y-79561831D01*
X237412337Y-79845998D01*
X237654002Y-80087663D01*
X237938169Y-80277537D01*
X238253919Y-80408325D01*
X238589117Y-80475000D01*
X238930883Y-80475000D01*
X239266081Y-80408325D01*
X239581831Y-80277537D01*
X239865998Y-80087663D01*
X240107663Y-79845998D01*
X240297537Y-79561831D01*
X240428325Y-79246081D01*
X240495000Y-78910883D01*
X240495000Y-78569117D01*
X240428325Y-78233919D01*
X240297537Y-77918169D01*
X240107663Y-77634002D01*
X239865998Y-77392337D01*
X239581831Y-77202463D01*
X239266081Y-77071675D01*
X238930883Y-77005000D01*
X238589117Y-77005000D01*
X238253919Y-77071675D01*
X237938169Y-77202463D01*
X237654002Y-77392337D01*
X237412337Y-77634002D01*
X237222463Y-77918169D01*
X237091675Y-78233919D01*
X237025000Y-78569117D01*
X175725000Y-78569117D01*
X175658325Y-78233919D01*
X175527537Y-77918169D01*
X175337663Y-77634002D01*
X175095998Y-77392337D01*
X174811831Y-77202463D01*
X174496081Y-77071675D01*
X174160883Y-77005000D01*
X173819117Y-77005000D01*
X173483919Y-77071675D01*
X173168169Y-77202463D01*
X172884002Y-77392337D01*
X172642337Y-77634002D01*
X172452463Y-77918169D01*
X172321675Y-78233919D01*
X172255000Y-78569117D01*
X170840000Y-78569117D01*
X170840000Y-75590000D01*
X241910001Y-75590000D01*
X241910000Y-128880000D01*
%TA.AperFunction,Conductor*%
D20*
G36*
X241910000Y-128880000D02*
G01*
X170840000Y-128880000D01*
X170840000Y-125559117D01*
X172255000Y-125559117D01*
X172255000Y-125900883D01*
X172321675Y-126236081D01*
X172452463Y-126551831D01*
X172642337Y-126835998D01*
X172884002Y-127077663D01*
X173168169Y-127267537D01*
X173483919Y-127398325D01*
X173819117Y-127465000D01*
X174160883Y-127465000D01*
X174496081Y-127398325D01*
X174811831Y-127267537D01*
X175095998Y-127077663D01*
X175337663Y-126835998D01*
X175527537Y-126551831D01*
X175658325Y-126236081D01*
X175725000Y-125900883D01*
X175725000Y-125559117D01*
X175719617Y-125532050D01*
X178380000Y-125532050D01*
X178380000Y-125927949D01*
X178401487Y-126146110D01*
X178486401Y-126426033D01*
X178624294Y-126684013D01*
X178809866Y-126910134D01*
X179035986Y-127095706D01*
X179293966Y-127233599D01*
X179573889Y-127318513D01*
X179865000Y-127347185D01*
X180156110Y-127318513D01*
X180436033Y-127233599D01*
X180694013Y-127095706D01*
X180920134Y-126910134D01*
X181105706Y-126684014D01*
X181115000Y-126666626D01*
X181124294Y-126684013D01*
X181309866Y-126910134D01*
X181535986Y-127095706D01*
X181793966Y-127233599D01*
X182073889Y-127318513D01*
X182365000Y-127347185D01*
X182656110Y-127318513D01*
X182936033Y-127233599D01*
X183194013Y-127095706D01*
X183420134Y-126910134D01*
X183605706Y-126684014D01*
X183615000Y-126666626D01*
X183624294Y-126684013D01*
X183809866Y-126910134D01*
X184035986Y-127095706D01*
X184293966Y-127233599D01*
X184573889Y-127318513D01*
X184865000Y-127347185D01*
X185156110Y-127318513D01*
X185436033Y-127233599D01*
X185694013Y-127095706D01*
X185920134Y-126910134D01*
X186105706Y-126684014D01*
X186115000Y-126666626D01*
X186124294Y-126684013D01*
X186309866Y-126910134D01*
X186535986Y-127095706D01*
X186793966Y-127233599D01*
X187073889Y-127318513D01*
X187365000Y-127347185D01*
X187656110Y-127318513D01*
X187936033Y-127233599D01*
X188194013Y-127095706D01*
X188414945Y-126914392D01*
X188425498Y-126949180D01*
X188484463Y-127059494D01*
X188563815Y-127156185D01*
X188660506Y-127235537D01*
X188770820Y-127294502D01*
X188890518Y-127330812D01*
X189015000Y-127343072D01*
X189579250Y-127340000D01*
X189738000Y-127181250D01*
X189738000Y-125857000D01*
X189992000Y-125857000D01*
X189992000Y-127181250D01*
X190150750Y-127340000D01*
X190715000Y-127343072D01*
X190839482Y-127330812D01*
X190959180Y-127294502D01*
X191069494Y-127235537D01*
X191166185Y-127156185D01*
X191245537Y-127059494D01*
X191304502Y-126949180D01*
X191340812Y-126829482D01*
X191353072Y-126705000D01*
X191350000Y-126015750D01*
X191191250Y-125857000D01*
X189992000Y-125857000D01*
X189738000Y-125857000D01*
X189718000Y-125857000D01*
X189718000Y-125603000D01*
X189738000Y-125603000D01*
X189738000Y-124278750D01*
X189992000Y-124278750D01*
X189992000Y-125603000D01*
X191191250Y-125603000D01*
X191350000Y-125444250D01*
X191353072Y-124755000D01*
X191340812Y-124630518D01*
X191304502Y-124510820D01*
X191245537Y-124400506D01*
X191166185Y-124303815D01*
X191069494Y-124224463D01*
X190959180Y-124165498D01*
X190839482Y-124129188D01*
X190715000Y-124116928D01*
X190150750Y-124120000D01*
X189992000Y-124278750D01*
X189738000Y-124278750D01*
X189579250Y-124120000D01*
X189015000Y-124116928D01*
X188890518Y-124129188D01*
X188770820Y-124165498D01*
X188660506Y-124224463D01*
X188563815Y-124303815D01*
X188484463Y-124400506D01*
X188425498Y-124510820D01*
X188414945Y-124545608D01*
X188194014Y-124364294D01*
X187936034Y-124226401D01*
X187656111Y-124141487D01*
X187365000Y-124112815D01*
X187073890Y-124141487D01*
X186793967Y-124226401D01*
X186535987Y-124364294D01*
X186309866Y-124549866D01*
X186124294Y-124775986D01*
X186115000Y-124793374D01*
X186105706Y-124775986D01*
X185920134Y-124549866D01*
X185694014Y-124364294D01*
X185436034Y-124226401D01*
X185156111Y-124141487D01*
X184865000Y-124112815D01*
X184573890Y-124141487D01*
X184293967Y-124226401D01*
X184035987Y-124364294D01*
X183809866Y-124549866D01*
X183624294Y-124775986D01*
X183615000Y-124793374D01*
X183605706Y-124775986D01*
X183420134Y-124549866D01*
X183194014Y-124364294D01*
X182936034Y-124226401D01*
X182656111Y-124141487D01*
X182365000Y-124112815D01*
X182073890Y-124141487D01*
X181793967Y-124226401D01*
X181535987Y-124364294D01*
X181309866Y-124549866D01*
X181124294Y-124775986D01*
X181115000Y-124793374D01*
X181105706Y-124775986D01*
X180920134Y-124549866D01*
X180694014Y-124364294D01*
X180436034Y-124226401D01*
X180156111Y-124141487D01*
X179865000Y-124112815D01*
X179573890Y-124141487D01*
X179293967Y-124226401D01*
X179035987Y-124364294D01*
X178809866Y-124549866D01*
X178624294Y-124775986D01*
X178486401Y-125033966D01*
X178401487Y-125313889D01*
X178380000Y-125532050D01*
X175719617Y-125532050D01*
X175658325Y-125223919D01*
X175527537Y-124908169D01*
X175337663Y-124624002D01*
X175095998Y-124382337D01*
X174811831Y-124192463D01*
X174496081Y-124061675D01*
X174160883Y-123995000D01*
X173819117Y-123995000D01*
X173483919Y-124061675D01*
X173168169Y-124192463D01*
X172884002Y-124382337D01*
X172642337Y-124624002D01*
X172452463Y-124908169D01*
X172321675Y-125223919D01*
X172255000Y-125559117D01*
X170840000Y-125559117D01*
X170840000Y-114300000D01*
X172347319Y-114300000D01*
X172377970Y-114611204D01*
X172468745Y-114910449D01*
X172616155Y-115186235D01*
X172814537Y-115427963D01*
X172987609Y-115570000D01*
X172814537Y-115712037D01*
X172616155Y-115953765D01*
X172468745Y-116229551D01*
X172377970Y-116528796D01*
X172347319Y-116840000D01*
X172377970Y-117151204D01*
X172468745Y-117450449D01*
X172616155Y-117726235D01*
X172719446Y-117852095D01*
X172635506Y-117896963D01*
X172538815Y-117976315D01*
X172459463Y-118073006D01*
X172400498Y-118183320D01*
X172364188Y-118303018D01*
X172351928Y-118427500D01*
X172351928Y-120332500D01*
X172364188Y-120456982D01*
X172400498Y-120576680D01*
X172459463Y-120686994D01*
X172538815Y-120783685D01*
X172635506Y-120863037D01*
X172745820Y-120922002D01*
X172865518Y-120958312D01*
X172990000Y-120970572D01*
X174990000Y-120970572D01*
X175114482Y-120958312D01*
X175234180Y-120922002D01*
X175344494Y-120863037D01*
X175441185Y-120783685D01*
X175520537Y-120686994D01*
X175579502Y-120576680D01*
X175615812Y-120456982D01*
X175628072Y-120332500D01*
X175628072Y-118427500D01*
X175615812Y-118303018D01*
X175579502Y-118183320D01*
X175520537Y-118073006D01*
X175441185Y-117976315D01*
X175439583Y-117975000D01*
X178390002Y-117975000D01*
X178574700Y-117993191D01*
X178797199Y-117971277D01*
X179011147Y-117906376D01*
X179208323Y-117800984D01*
X179381149Y-117659149D01*
X179416695Y-117615836D01*
X180699389Y-116333144D01*
X180699398Y-116333133D01*
X180858716Y-116173815D01*
X181124297Y-115908235D01*
X181124301Y-115908231D01*
X185001133Y-112031400D01*
X189199648Y-112031400D01*
X189255400Y-112036891D01*
X189311152Y-112031400D01*
X190476112Y-112031400D01*
X190708000Y-112221707D01*
X190708001Y-118000558D01*
X190703476Y-118046500D01*
X190721529Y-118229791D01*
X190750411Y-118325000D01*
X190774994Y-118406040D01*
X190861815Y-118568472D01*
X190978657Y-118710844D01*
X191014336Y-118740125D01*
X192790874Y-120516664D01*
X192820156Y-120552344D01*
X192962528Y-120669186D01*
X193124960Y-120756007D01*
X193216203Y-120783685D01*
X193301207Y-120809471D01*
X193484499Y-120827524D01*
X193530431Y-120823000D01*
X195461673Y-120823000D01*
X195413529Y-120981709D01*
X195395476Y-121165000D01*
X195400001Y-121210942D01*
X195400000Y-124451275D01*
X195279866Y-124549866D01*
X195094294Y-124775986D01*
X194956401Y-125033966D01*
X194871487Y-125313889D01*
X194850000Y-125532050D01*
X194850000Y-125927949D01*
X194871487Y-126146110D01*
X194956401Y-126426033D01*
X195094294Y-126684013D01*
X195279866Y-126910134D01*
X195505986Y-127095706D01*
X195763966Y-127233599D01*
X196043889Y-127318513D01*
X196335000Y-127347185D01*
X196626110Y-127318513D01*
X196906033Y-127233599D01*
X197164013Y-127095706D01*
X197390134Y-126910134D01*
X197575706Y-126684014D01*
X197585000Y-126666626D01*
X197594294Y-126684013D01*
X197779866Y-126910134D01*
X198005986Y-127095706D01*
X198263966Y-127233599D01*
X198543889Y-127318513D01*
X198835000Y-127347185D01*
X199126110Y-127318513D01*
X199406033Y-127233599D01*
X199664013Y-127095706D01*
X199890134Y-126910134D01*
X200075706Y-126684014D01*
X200085000Y-126666626D01*
X200094294Y-126684013D01*
X200279866Y-126910134D01*
X200505986Y-127095706D01*
X200763966Y-127233599D01*
X201043889Y-127318513D01*
X201335000Y-127347185D01*
X201626110Y-127318513D01*
X201906033Y-127233599D01*
X202164013Y-127095706D01*
X202384945Y-126914392D01*
X202395498Y-126949180D01*
X202454463Y-127059494D01*
X202533815Y-127156185D01*
X202630506Y-127235537D01*
X202740820Y-127294502D01*
X202860518Y-127330812D01*
X202985000Y-127343072D01*
X203549250Y-127340000D01*
X203708000Y-127181250D01*
X203708000Y-125857000D01*
X203962000Y-125857000D01*
X203962000Y-127181250D01*
X204120750Y-127340000D01*
X204685000Y-127343072D01*
X204809482Y-127330812D01*
X204929180Y-127294502D01*
X205039494Y-127235537D01*
X205136185Y-127156185D01*
X205215537Y-127059494D01*
X205274502Y-126949180D01*
X205310812Y-126829482D01*
X205323072Y-126705000D01*
X205320000Y-126015750D01*
X205161250Y-125857000D01*
X203962000Y-125857000D01*
X203708000Y-125857000D01*
X203688000Y-125857000D01*
X203688000Y-125603000D01*
X203708000Y-125603000D01*
X203708000Y-124278750D01*
X203962000Y-124278750D01*
X203962000Y-125603000D01*
X205161250Y-125603000D01*
X205320000Y-125444250D01*
X205323072Y-124755000D01*
X205310812Y-124630518D01*
X205274502Y-124510820D01*
X205215537Y-124400506D01*
X205136185Y-124303815D01*
X205039494Y-124224463D01*
X204929180Y-124165498D01*
X204809482Y-124129188D01*
X204685000Y-124116928D01*
X204120750Y-124120000D01*
X203962000Y-124278750D01*
X203708000Y-124278750D01*
X203549250Y-124120000D01*
X202985000Y-124116928D01*
X202860518Y-124129188D01*
X202740820Y-124165498D01*
X202630506Y-124224463D01*
X202533815Y-124303815D01*
X202454463Y-124400506D01*
X202395498Y-124510820D01*
X202384945Y-124545608D01*
X202164014Y-124364294D01*
X201906034Y-124226401D01*
X201626111Y-124141487D01*
X201335000Y-124112815D01*
X201043890Y-124141487D01*
X200763967Y-124226401D01*
X200505987Y-124364294D01*
X200279866Y-124549866D01*
X200094294Y-124775986D01*
X200085000Y-124793374D01*
X200075706Y-124775986D01*
X199890134Y-124549866D01*
X199664014Y-124364294D01*
X199406034Y-124226401D01*
X199126111Y-124141487D01*
X198835000Y-124112815D01*
X198543890Y-124141487D01*
X198263967Y-124226401D01*
X198005987Y-124364294D01*
X197779866Y-124549866D01*
X197594294Y-124775986D01*
X197585000Y-124793374D01*
X197575706Y-124775986D01*
X197390134Y-124549866D01*
X197270000Y-124451275D01*
X197270000Y-121552289D01*
X197999289Y-120823000D01*
X210066673Y-120823000D01*
X210018529Y-120981709D01*
X210000476Y-121165000D01*
X210005001Y-121210942D01*
X210005000Y-124451275D01*
X209884866Y-124549866D01*
X209699294Y-124775986D01*
X209561401Y-125033966D01*
X209476487Y-125313889D01*
X209455000Y-125532050D01*
X209455000Y-125927949D01*
X209476487Y-126146110D01*
X209561401Y-126426033D01*
X209699294Y-126684013D01*
X209884866Y-126910134D01*
X210110986Y-127095706D01*
X210368966Y-127233599D01*
X210648889Y-127318513D01*
X210940000Y-127347185D01*
X211231110Y-127318513D01*
X211511033Y-127233599D01*
X211769013Y-127095706D01*
X211995134Y-126910134D01*
X212180706Y-126684014D01*
X212190000Y-126666626D01*
X212199294Y-126684013D01*
X212384866Y-126910134D01*
X212610986Y-127095706D01*
X212868966Y-127233599D01*
X213148889Y-127318513D01*
X213440000Y-127347185D01*
X213731110Y-127318513D01*
X214011033Y-127233599D01*
X214269013Y-127095706D01*
X214495134Y-126910134D01*
X214680706Y-126684014D01*
X214690000Y-126666626D01*
X214699294Y-126684013D01*
X214884866Y-126910134D01*
X215110986Y-127095706D01*
X215368966Y-127233599D01*
X215648889Y-127318513D01*
X215940000Y-127347185D01*
X216231110Y-127318513D01*
X216511033Y-127233599D01*
X216769013Y-127095706D01*
X216989945Y-126914392D01*
X217000498Y-126949180D01*
X217059463Y-127059494D01*
X217138815Y-127156185D01*
X217235506Y-127235537D01*
X217345820Y-127294502D01*
X217465518Y-127330812D01*
X217590000Y-127343072D01*
X218154250Y-127340000D01*
X218313000Y-127181250D01*
X218313000Y-125857000D01*
X218567000Y-125857000D01*
X218567000Y-127181250D01*
X218725750Y-127340000D01*
X219290000Y-127343072D01*
X219414482Y-127330812D01*
X219534180Y-127294502D01*
X219644494Y-127235537D01*
X219741185Y-127156185D01*
X219820537Y-127059494D01*
X219879502Y-126949180D01*
X219915812Y-126829482D01*
X219928072Y-126705000D01*
X219925328Y-126089267D01*
X224078680Y-126089267D01*
X224152558Y-126370830D01*
X224279947Y-126632570D01*
X224455951Y-126864429D01*
X224673807Y-127057496D01*
X224925142Y-127204352D01*
X225188110Y-127296476D01*
X225418000Y-127175155D01*
X225418000Y-125857000D01*
X224218835Y-125857000D01*
X224078680Y-126089267D01*
X219925328Y-126089267D01*
X219925000Y-126015750D01*
X219766250Y-125857000D01*
X218567000Y-125857000D01*
X218313000Y-125857000D01*
X218293000Y-125857000D01*
X218293000Y-125603000D01*
X218313000Y-125603000D01*
X218313000Y-124278750D01*
X218567000Y-124278750D01*
X218567000Y-125603000D01*
X219766250Y-125603000D01*
X219925000Y-125444250D01*
X219925327Y-125370733D01*
X224078680Y-125370733D01*
X224218835Y-125603000D01*
X225418000Y-125603000D01*
X225418000Y-124284845D01*
X225188110Y-124163524D01*
X224925142Y-124255648D01*
X224673807Y-124402504D01*
X224455951Y-124595571D01*
X224279947Y-124827430D01*
X224152558Y-125089170D01*
X224078680Y-125370733D01*
X219925327Y-125370733D01*
X219928072Y-124755000D01*
X219915812Y-124630518D01*
X219879502Y-124510820D01*
X219820537Y-124400506D01*
X219741185Y-124303815D01*
X219644494Y-124224463D01*
X219534180Y-124165498D01*
X219414482Y-124129188D01*
X219290000Y-124116928D01*
X218725750Y-124120000D01*
X218567000Y-124278750D01*
X218313000Y-124278750D01*
X218154250Y-124120000D01*
X217590000Y-124116928D01*
X217465518Y-124129188D01*
X217345820Y-124165498D01*
X217235506Y-124224463D01*
X217138815Y-124303815D01*
X217059463Y-124400506D01*
X217000498Y-124510820D01*
X216989945Y-124545608D01*
X216769014Y-124364294D01*
X216511034Y-124226401D01*
X216231111Y-124141487D01*
X215940000Y-124112815D01*
X215648890Y-124141487D01*
X215368967Y-124226401D01*
X215110987Y-124364294D01*
X214884866Y-124549866D01*
X214699294Y-124775986D01*
X214690000Y-124793374D01*
X214680706Y-124775986D01*
X214495134Y-124549866D01*
X214269014Y-124364294D01*
X214011034Y-124226401D01*
X213731111Y-124141487D01*
X213440000Y-124112815D01*
X213148890Y-124141487D01*
X212868967Y-124226401D01*
X212610987Y-124364294D01*
X212384866Y-124549866D01*
X212199294Y-124775986D01*
X212190000Y-124793374D01*
X212180706Y-124775986D01*
X211995134Y-124549866D01*
X211875000Y-124451275D01*
X211875000Y-121552289D01*
X212604289Y-120823000D01*
X227568505Y-120823000D01*
X227713902Y-120883226D01*
X227913861Y-120923000D01*
X228117739Y-120923000D01*
X228317698Y-120883226D01*
X228463095Y-120823000D01*
X228720711Y-120823000D01*
X232090220Y-124192509D01*
X231951614Y-124266595D01*
X231817038Y-124377038D01*
X231706595Y-124511614D01*
X231652223Y-124613337D01*
X231600134Y-124549866D01*
X231374014Y-124364294D01*
X231116034Y-124226401D01*
X230836111Y-124141487D01*
X230545000Y-124112815D01*
X230253890Y-124141487D01*
X229973967Y-124226401D01*
X229715987Y-124364294D01*
X229489866Y-124549866D01*
X229304294Y-124775986D01*
X229295000Y-124793374D01*
X229285706Y-124775986D01*
X229100134Y-124549866D01*
X228874014Y-124364294D01*
X228616034Y-124226401D01*
X228336111Y-124141487D01*
X228045000Y-124112815D01*
X227753890Y-124141487D01*
X227473967Y-124226401D01*
X227215987Y-124364294D01*
X226989866Y-124549866D01*
X226804294Y-124775986D01*
X226790538Y-124801722D01*
X226634049Y-124595571D01*
X226416193Y-124402504D01*
X226164858Y-124255648D01*
X225901890Y-124163524D01*
X225672000Y-124284845D01*
X225672000Y-125603000D01*
X225692000Y-125603000D01*
X225692000Y-125857000D01*
X225672000Y-125857000D01*
X225672000Y-127175155D01*
X225901890Y-127296476D01*
X226164858Y-127204352D01*
X226416193Y-127057496D01*
X226634049Y-126864429D01*
X226790538Y-126658278D01*
X226804294Y-126684013D01*
X226989866Y-126910134D01*
X227215986Y-127095706D01*
X227473966Y-127233599D01*
X227753889Y-127318513D01*
X228045000Y-127347185D01*
X228336110Y-127318513D01*
X228616033Y-127233599D01*
X228874013Y-127095706D01*
X229100134Y-126910134D01*
X229285706Y-126684014D01*
X229295000Y-126666626D01*
X229304294Y-126684013D01*
X229489866Y-126910134D01*
X229715986Y-127095706D01*
X229973966Y-127233599D01*
X230253889Y-127318513D01*
X230545000Y-127347185D01*
X230836110Y-127318513D01*
X231116033Y-127233599D01*
X231374013Y-127095706D01*
X231600134Y-126910134D01*
X231652223Y-126846663D01*
X231706595Y-126948386D01*
X231817038Y-127082962D01*
X231951614Y-127193405D01*
X232105150Y-127275472D01*
X232271746Y-127326008D01*
X232445000Y-127343072D01*
X233645000Y-127343072D01*
X233818254Y-127326008D01*
X233984850Y-127275472D01*
X234138386Y-127193405D01*
X234272962Y-127082962D01*
X234383405Y-126948386D01*
X234465472Y-126794850D01*
X234516008Y-126628254D01*
X234533072Y-126455000D01*
X234533072Y-125559117D01*
X237025000Y-125559117D01*
X237025000Y-125900883D01*
X237091675Y-126236081D01*
X237222463Y-126551831D01*
X237412337Y-126835998D01*
X237654002Y-127077663D01*
X237938169Y-127267537D01*
X238253919Y-127398325D01*
X238589117Y-127465000D01*
X238930883Y-127465000D01*
X239266081Y-127398325D01*
X239581831Y-127267537D01*
X239865998Y-127077663D01*
X240107663Y-126835998D01*
X240297537Y-126551831D01*
X240428325Y-126236081D01*
X240495000Y-125900883D01*
X240495000Y-125559117D01*
X240428325Y-125223919D01*
X240297537Y-124908169D01*
X240107663Y-124624002D01*
X239865998Y-124382337D01*
X239581831Y-124192463D01*
X239266081Y-124061675D01*
X238930883Y-123995000D01*
X238589117Y-123995000D01*
X238253919Y-124061675D01*
X237938169Y-124192463D01*
X237654002Y-124382337D01*
X237412337Y-124624002D01*
X237222463Y-124908169D01*
X237091675Y-125223919D01*
X237025000Y-125559117D01*
X234533072Y-125559117D01*
X234533072Y-125005000D01*
X234516008Y-124831746D01*
X234465472Y-124665150D01*
X234383405Y-124511614D01*
X234272962Y-124377038D01*
X234138386Y-124266595D01*
X233984850Y-124184528D01*
X233980000Y-124183057D01*
X233980000Y-123870935D01*
X233984524Y-123825000D01*
X233966472Y-123641708D01*
X233913007Y-123465461D01*
X233913007Y-123465460D01*
X233826186Y-123303028D01*
X233709344Y-123160656D01*
X233673660Y-123131371D01*
X229801630Y-119259341D01*
X229772344Y-119223656D01*
X229629972Y-119106814D01*
X229467540Y-119019993D01*
X229291292Y-118966529D01*
X229153932Y-118953000D01*
X229108000Y-118948476D01*
X229062068Y-118953000D01*
X228463095Y-118953000D01*
X228317698Y-118892774D01*
X228117739Y-118853000D01*
X227913861Y-118853000D01*
X227713902Y-118892774D01*
X227568505Y-118953000D01*
X212262935Y-118953000D01*
X212217000Y-118948476D01*
X212171065Y-118953000D01*
X197657935Y-118953000D01*
X197612000Y-118948476D01*
X197566065Y-118953000D01*
X193871790Y-118953000D01*
X193243790Y-118325000D01*
X230796928Y-118325000D01*
X230809188Y-118449482D01*
X230845498Y-118569180D01*
X230904463Y-118679494D01*
X230983815Y-118776185D01*
X231080506Y-118855537D01*
X231190820Y-118914502D01*
X231310518Y-118950812D01*
X231435000Y-118963072D01*
X232124250Y-118960000D01*
X232283000Y-118801250D01*
X232283000Y-117602000D01*
X232537000Y-117602000D01*
X232537000Y-118801250D01*
X232695750Y-118960000D01*
X233385000Y-118963072D01*
X233509482Y-118950812D01*
X233629180Y-118914502D01*
X233739494Y-118855537D01*
X233836185Y-118776185D01*
X233915537Y-118679494D01*
X233974502Y-118569180D01*
X234010812Y-118449482D01*
X234023072Y-118325000D01*
X234020000Y-117760750D01*
X233861250Y-117602000D01*
X232537000Y-117602000D01*
X232283000Y-117602000D01*
X230958750Y-117602000D01*
X230800000Y-117760750D01*
X230796928Y-118325000D01*
X193243790Y-118325000D01*
X192578000Y-117659211D01*
X192578000Y-112475000D01*
X230792815Y-112475000D01*
X230821487Y-112766111D01*
X230906401Y-113046034D01*
X231044294Y-113304014D01*
X231229866Y-113530134D01*
X231455986Y-113715706D01*
X231473374Y-113725000D01*
X231455986Y-113734294D01*
X231229866Y-113919866D01*
X231044294Y-114145986D01*
X230906401Y-114403966D01*
X230821487Y-114683889D01*
X230792815Y-114975000D01*
X230821487Y-115266111D01*
X230906401Y-115546034D01*
X231044294Y-115804014D01*
X231225608Y-116024945D01*
X231190820Y-116035498D01*
X231080506Y-116094463D01*
X230983815Y-116173815D01*
X230904463Y-116270506D01*
X230845498Y-116380820D01*
X230809188Y-116500518D01*
X230796928Y-116625000D01*
X230800000Y-117189250D01*
X230958750Y-117348000D01*
X232283000Y-117348000D01*
X232283000Y-117328000D01*
X232537000Y-117328000D01*
X232537000Y-117348000D01*
X233861250Y-117348000D01*
X234020000Y-117189250D01*
X234023072Y-116625000D01*
X234010812Y-116500518D01*
X233974502Y-116380820D01*
X233915537Y-116270506D01*
X233836185Y-116173815D01*
X233739494Y-116094463D01*
X233629180Y-116035498D01*
X233594392Y-116024945D01*
X233775706Y-115804014D01*
X233913599Y-115546034D01*
X233998513Y-115266111D01*
X234027185Y-114975000D01*
X233998513Y-114683889D01*
X233913599Y-114403966D01*
X233775706Y-114145986D01*
X233590134Y-113919866D01*
X233364014Y-113734294D01*
X233346626Y-113725000D01*
X233364014Y-113715706D01*
X233590134Y-113530134D01*
X233775706Y-113304014D01*
X233913599Y-113046034D01*
X233998513Y-112766111D01*
X234027185Y-112475000D01*
X233998513Y-112183889D01*
X233913599Y-111903966D01*
X233775706Y-111645986D01*
X233590134Y-111419866D01*
X233364014Y-111234294D01*
X233106034Y-111096401D01*
X232826111Y-111011487D01*
X232607950Y-110990000D01*
X232212050Y-110990000D01*
X231993889Y-111011487D01*
X231713966Y-111096401D01*
X231455986Y-111234294D01*
X231229866Y-111419866D01*
X231044294Y-111645986D01*
X230906401Y-111903966D01*
X230821487Y-112183889D01*
X230792815Y-112475000D01*
X192578000Y-112475000D01*
X192578000Y-112221707D01*
X192818463Y-112024363D01*
X193016845Y-111782635D01*
X193164255Y-111506849D01*
X193255030Y-111207604D01*
X193285681Y-110896400D01*
X193255030Y-110585196D01*
X193164255Y-110285951D01*
X193016845Y-110010165D01*
X192818463Y-109768437D01*
X192639101Y-109621237D01*
X192824315Y-109465837D01*
X193018969Y-109223323D01*
X193162571Y-108947494D01*
X193233563Y-108729380D01*
X193113594Y-108483400D01*
X191770000Y-108483400D01*
X191770000Y-108503400D01*
X191516000Y-108503400D01*
X191516000Y-108483400D01*
X190172406Y-108483400D01*
X190052437Y-108729380D01*
X190123429Y-108947494D01*
X190267031Y-109223323D01*
X190461685Y-109465837D01*
X190646899Y-109621237D01*
X190476112Y-109761400D01*
X189725533Y-109761400D01*
X188688600Y-108724469D01*
X188688600Y-104863900D01*
X190004928Y-104863900D01*
X190004928Y-106768900D01*
X190017188Y-106893382D01*
X190053498Y-107013080D01*
X190112463Y-107123394D01*
X190191815Y-107220085D01*
X190288506Y-107299437D01*
X190380219Y-107348459D01*
X190267031Y-107489477D01*
X190123429Y-107765306D01*
X190052437Y-107983420D01*
X190172406Y-108229400D01*
X191516000Y-108229400D01*
X191516000Y-108209400D01*
X191770000Y-108209400D01*
X191770000Y-108229400D01*
X193113594Y-108229400D01*
X193233563Y-107983420D01*
X193162571Y-107765306D01*
X193018969Y-107489477D01*
X192905781Y-107348459D01*
X192997494Y-107299437D01*
X193094185Y-107220085D01*
X193173537Y-107123394D01*
X193232502Y-107013080D01*
X193268812Y-106893382D01*
X193281072Y-106768900D01*
X193281072Y-104863900D01*
X193268812Y-104739418D01*
X193232502Y-104619720D01*
X193173537Y-104509406D01*
X193094185Y-104412715D01*
X192997494Y-104333363D01*
X192887180Y-104274398D01*
X192767482Y-104238088D01*
X192643000Y-104225828D01*
X190643000Y-104225828D01*
X190518518Y-104238088D01*
X190398820Y-104274398D01*
X190288506Y-104333363D01*
X190191815Y-104412715D01*
X190112463Y-104509406D01*
X190053498Y-104619720D01*
X190017188Y-104739418D01*
X190004928Y-104863900D01*
X188688600Y-104863900D01*
X188688600Y-98361731D01*
X189623933Y-97426400D01*
X190857112Y-97426400D01*
X191090265Y-97617745D01*
X191366051Y-97765155D01*
X191665296Y-97855930D01*
X191898514Y-97878900D01*
X192149486Y-97878900D01*
X192382704Y-97855930D01*
X192681949Y-97765155D01*
X192957735Y-97617745D01*
X193199463Y-97419363D01*
X193397845Y-97177635D01*
X193545255Y-96901849D01*
X193636030Y-96602604D01*
X193666681Y-96291400D01*
X193636030Y-95980196D01*
X193545255Y-95680951D01*
X193397845Y-95405165D01*
X193199463Y-95163437D01*
X193026391Y-95021400D01*
X193199463Y-94879363D01*
X193397845Y-94637635D01*
X193545255Y-94361849D01*
X193636030Y-94062604D01*
X193666681Y-93751400D01*
X193636030Y-93440196D01*
X193545255Y-93140951D01*
X193397845Y-92865165D01*
X193294554Y-92739305D01*
X193378494Y-92694437D01*
X193475185Y-92615085D01*
X193554537Y-92518394D01*
X193613502Y-92408080D01*
X193649812Y-92288382D01*
X193662072Y-92163900D01*
X193659000Y-91497150D01*
X193500250Y-91338400D01*
X192151000Y-91338400D01*
X192151000Y-91358400D01*
X191897000Y-91358400D01*
X191897000Y-91338400D01*
X190547750Y-91338400D01*
X190389000Y-91497150D01*
X190385928Y-92163900D01*
X190398188Y-92288382D01*
X190434498Y-92408080D01*
X190493463Y-92518394D01*
X190572815Y-92615085D01*
X190669506Y-92694437D01*
X190753446Y-92739305D01*
X190650155Y-92865165D01*
X190502745Y-93140951D01*
X190411970Y-93440196D01*
X190381319Y-93751400D01*
X190411970Y-94062604D01*
X190502745Y-94361849D01*
X190650155Y-94637635D01*
X190848537Y-94879363D01*
X191021609Y-95021400D01*
X190857112Y-95156400D01*
X189209552Y-95156400D01*
X189153800Y-95150909D01*
X188931301Y-95172823D01*
X188717353Y-95237724D01*
X188520177Y-95343116D01*
X188390656Y-95449411D01*
X188390654Y-95449413D01*
X188347351Y-95484951D01*
X188311813Y-95528254D01*
X186790464Y-97049605D01*
X186747151Y-97085151D01*
X186605316Y-97257977D01*
X186515293Y-97426400D01*
X186499924Y-97455154D01*
X186435023Y-97669102D01*
X186413109Y-97891600D01*
X186418600Y-97947352D01*
X186418601Y-109138839D01*
X186413109Y-109194600D01*
X186435023Y-109417098D01*
X186499924Y-109631046D01*
X186499925Y-109631047D01*
X186569600Y-109761400D01*
X184586752Y-109761400D01*
X184531000Y-109755909D01*
X184308501Y-109777823D01*
X184094553Y-109842724D01*
X183897377Y-109948116D01*
X183767856Y-110054411D01*
X183767854Y-110054413D01*
X183724551Y-110089951D01*
X183689013Y-110133254D01*
X179519169Y-114303099D01*
X179519165Y-114303103D01*
X179094266Y-114728003D01*
X179094256Y-114728011D01*
X178117268Y-115705000D01*
X175156888Y-115705000D01*
X174992391Y-115570000D01*
X175165463Y-115427963D01*
X175363845Y-115186235D01*
X175511255Y-114910449D01*
X175602030Y-114611204D01*
X175632681Y-114300000D01*
X175602030Y-113988796D01*
X175511255Y-113689551D01*
X175363845Y-113413765D01*
X175165463Y-113172037D01*
X174923735Y-112973655D01*
X174647949Y-112826245D01*
X174348704Y-112735470D01*
X174115486Y-112712500D01*
X173864514Y-112712500D01*
X173631296Y-112735470D01*
X173332051Y-112826245D01*
X173056265Y-112973655D01*
X172814537Y-113172037D01*
X172616155Y-113413765D01*
X172468745Y-113689551D01*
X172377970Y-113988796D01*
X172347319Y-114300000D01*
X170840000Y-114300000D01*
X170840000Y-105434000D01*
X172105928Y-105434000D01*
X172105928Y-108434000D01*
X172118188Y-108558482D01*
X172154498Y-108678180D01*
X172213463Y-108788494D01*
X172292815Y-108885185D01*
X172389506Y-108964537D01*
X172499820Y-109023502D01*
X172619518Y-109059812D01*
X172744000Y-109072072D01*
X175744000Y-109072072D01*
X175868482Y-109059812D01*
X175988180Y-109023502D01*
X176098494Y-108964537D01*
X176195185Y-108885185D01*
X176274537Y-108788494D01*
X176333502Y-108678180D01*
X176369812Y-108558482D01*
X176382072Y-108434000D01*
X176382072Y-105434000D01*
X176369812Y-105309518D01*
X176333502Y-105189820D01*
X176274537Y-105079506D01*
X176195185Y-104982815D01*
X176098494Y-104903463D01*
X175988180Y-104844498D01*
X175868482Y-104808188D01*
X175744000Y-104795928D01*
X172744000Y-104795928D01*
X172619518Y-104808188D01*
X172499820Y-104844498D01*
X172389506Y-104903463D01*
X172292815Y-104982815D01*
X172213463Y-105079506D01*
X172154498Y-105189820D01*
X172118188Y-105309518D01*
X172105928Y-105434000D01*
X170840000Y-105434000D01*
X170840000Y-103345653D01*
X172931952Y-103345653D01*
X173087962Y-103661214D01*
X173462745Y-103852020D01*
X173867551Y-103966044D01*
X174286824Y-103998902D01*
X174704451Y-103949334D01*
X175104383Y-103819243D01*
X175400038Y-103661214D01*
X175556048Y-103345653D01*
X174244000Y-102033605D01*
X172931952Y-103345653D01*
X170840000Y-103345653D01*
X170840000Y-101896824D01*
X172099098Y-101896824D01*
X172148666Y-102314451D01*
X172278757Y-102714383D01*
X172436786Y-103010038D01*
X172752347Y-103166048D01*
X174064395Y-101854000D01*
X174423605Y-101854000D01*
X175735653Y-103166048D01*
X176051214Y-103010038D01*
X176242020Y-102635255D01*
X176356044Y-102230449D01*
X176388902Y-101811176D01*
X176339334Y-101393549D01*
X176209243Y-100993617D01*
X176051214Y-100697962D01*
X175735653Y-100541952D01*
X174423605Y-101854000D01*
X174064395Y-101854000D01*
X172752347Y-100541952D01*
X172436786Y-100697962D01*
X172245980Y-101072745D01*
X172131956Y-101477551D01*
X172099098Y-101896824D01*
X170840000Y-101896824D01*
X170840000Y-100362347D01*
X172931952Y-100362347D01*
X174244000Y-101674395D01*
X175556048Y-100362347D01*
X175400038Y-100046786D01*
X175025255Y-99855980D01*
X174620449Y-99741956D01*
X174201176Y-99709098D01*
X173783549Y-99758666D01*
X173383617Y-99888757D01*
X173087962Y-100046786D01*
X172931952Y-100362347D01*
X170840000Y-100362347D01*
X170840000Y-90258900D01*
X190385928Y-90258900D01*
X190389000Y-90925650D01*
X190547750Y-91084400D01*
X191897000Y-91084400D01*
X191897000Y-89782650D01*
X192151000Y-89782650D01*
X192151000Y-91084400D01*
X193500250Y-91084400D01*
X193659000Y-90925650D01*
X193662072Y-90258900D01*
X193649812Y-90134418D01*
X193613502Y-90014720D01*
X193554537Y-89904406D01*
X193475185Y-89807715D01*
X193378494Y-89728363D01*
X193268180Y-89669398D01*
X193148482Y-89633088D01*
X193024000Y-89620828D01*
X192309750Y-89623900D01*
X192151000Y-89782650D01*
X191897000Y-89782650D01*
X191738250Y-89623900D01*
X191024000Y-89620828D01*
X190899518Y-89633088D01*
X190779820Y-89669398D01*
X190669506Y-89728363D01*
X190572815Y-89807715D01*
X190493463Y-89904406D01*
X190434498Y-90014720D01*
X190398188Y-90134418D01*
X190385928Y-90258900D01*
X170840000Y-90258900D01*
X170840000Y-81787661D01*
X199726600Y-81787661D01*
X199726600Y-81991539D01*
X199766374Y-82191498D01*
X199826601Y-82336898D01*
X199826600Y-96778868D01*
X199822076Y-96824800D01*
X199826600Y-96870731D01*
X199840129Y-97008091D01*
X199893593Y-97184339D01*
X199980414Y-97346771D01*
X200097256Y-97489144D01*
X200132941Y-97518430D01*
X204762569Y-102148058D01*
X204822795Y-102293456D01*
X204936063Y-102462974D01*
X205080226Y-102607137D01*
X205249744Y-102720405D01*
X205438102Y-102798426D01*
X205638061Y-102838200D01*
X205841939Y-102838200D01*
X206041898Y-102798426D01*
X206187295Y-102738200D01*
X228376268Y-102738200D01*
X228422200Y-102742724D01*
X228468132Y-102738200D01*
X228605492Y-102724671D01*
X228781740Y-102671207D01*
X228944172Y-102584386D01*
X229086544Y-102467544D01*
X229115830Y-102431859D01*
X229642874Y-101904815D01*
X230913359Y-100634331D01*
X231058756Y-100574105D01*
X231228274Y-100460837D01*
X231372437Y-100316674D01*
X231485705Y-100147156D01*
X231563726Y-99958798D01*
X231603500Y-99758839D01*
X231603500Y-99554961D01*
X231563726Y-99355002D01*
X231485705Y-99166644D01*
X231372437Y-98997126D01*
X231228274Y-98852963D01*
X231058756Y-98739695D01*
X230870398Y-98661674D01*
X230670439Y-98621900D01*
X230466561Y-98621900D01*
X230266602Y-98661674D01*
X230078244Y-98739695D01*
X229908726Y-98852963D01*
X229764563Y-98997126D01*
X229651295Y-99166644D01*
X229591069Y-99312041D01*
X228320584Y-100582527D01*
X228034911Y-100868200D01*
X206187295Y-100868200D01*
X206084858Y-100825769D01*
X201696600Y-96437511D01*
X201696600Y-82336895D01*
X201756826Y-82191498D01*
X201796600Y-81991539D01*
X201796600Y-81787661D01*
X201756826Y-81587702D01*
X201678805Y-81399344D01*
X201565537Y-81229826D01*
X201421374Y-81085663D01*
X201251856Y-80972395D01*
X201063498Y-80894374D01*
X200863539Y-80854600D01*
X200659661Y-80854600D01*
X200459702Y-80894374D01*
X200271344Y-80972395D01*
X200101826Y-81085663D01*
X199957663Y-81229826D01*
X199844395Y-81399344D01*
X199766374Y-81587702D01*
X199726600Y-81787661D01*
X170840000Y-81787661D01*
X170840000Y-78569117D01*
X172255000Y-78569117D01*
X172255000Y-78910883D01*
X172321675Y-79246081D01*
X172452463Y-79561831D01*
X172642337Y-79845998D01*
X172884002Y-80087663D01*
X173168169Y-80277537D01*
X173483919Y-80408325D01*
X173819117Y-80475000D01*
X174160883Y-80475000D01*
X174496081Y-80408325D01*
X174811831Y-80277537D01*
X175095998Y-80087663D01*
X175337663Y-79845998D01*
X175527537Y-79561831D01*
X175658325Y-79246081D01*
X175725000Y-78910883D01*
X175725000Y-78569117D01*
X237025000Y-78569117D01*
X237025000Y-78910883D01*
X237091675Y-79246081D01*
X237222463Y-79561831D01*
X237412337Y-79845998D01*
X237654002Y-80087663D01*
X237938169Y-80277537D01*
X238253919Y-80408325D01*
X238589117Y-80475000D01*
X238930883Y-80475000D01*
X239266081Y-80408325D01*
X239581831Y-80277537D01*
X239865998Y-80087663D01*
X240107663Y-79845998D01*
X240297537Y-79561831D01*
X240428325Y-79246081D01*
X240495000Y-78910883D01*
X240495000Y-78569117D01*
X240428325Y-78233919D01*
X240297537Y-77918169D01*
X240107663Y-77634002D01*
X239865998Y-77392337D01*
X239581831Y-77202463D01*
X239266081Y-77071675D01*
X238930883Y-77005000D01*
X238589117Y-77005000D01*
X238253919Y-77071675D01*
X237938169Y-77202463D01*
X237654002Y-77392337D01*
X237412337Y-77634002D01*
X237222463Y-77918169D01*
X237091675Y-78233919D01*
X237025000Y-78569117D01*
X175725000Y-78569117D01*
X175658325Y-78233919D01*
X175527537Y-77918169D01*
X175337663Y-77634002D01*
X175095998Y-77392337D01*
X174811831Y-77202463D01*
X174496081Y-77071675D01*
X174160883Y-77005000D01*
X173819117Y-77005000D01*
X173483919Y-77071675D01*
X173168169Y-77202463D01*
X172884002Y-77392337D01*
X172642337Y-77634002D01*
X172452463Y-77918169D01*
X172321675Y-78233919D01*
X172255000Y-78569117D01*
X170840000Y-78569117D01*
X170840000Y-75590000D01*
X241910001Y-75590000D01*
X241910000Y-128880000D01*
G37*
%TD.AperFunction*%
%TD*%
M02*
