%TF.GenerationSoftware,KiCad,Pcbnew,(5.1.12)-1*%
%TF.CreationDate,2022-01-20T11:47:12-05:00*%
%TF.ProjectId,PCB-ESP32S,5043422d-4553-4503-9332-532e6b696361,rev?*%
%TF.SameCoordinates,Original*%
%TF.FileFunction,Legend,Top*%
%TF.FilePolarity,Positive*%
%FSLAX46Y46*%
G04 Gerber Fmt 4.6, Leading zero omitted, Abs format (unit mm)*
G04 Created by KiCad (PCBNEW (5.1.12)-1) date 2022-01-20 11:47:12*
%MOMM*%
%LPD*%
G01*
G04 APERTURE LIST*
%ADD10C,0.127000*%
%ADD11C,0.300000*%
%ADD12C,0.120000*%
%ADD13C,0.152400*%
%ADD14C,0.500000*%
%ADD15C,0.150000*%
G04 APERTURE END LIST*
D10*
%TO.C,K1*%
X139757960Y-120101760D02*
X155257960Y-120101760D01*
X155257960Y-120101760D02*
X155257960Y-139201760D01*
X155257960Y-139201760D02*
X139757960Y-139201760D01*
X139757960Y-139201760D02*
X139757960Y-120101760D01*
D11*
X153726960Y-119451760D02*
G75*
G03*
X153726960Y-119451760I-100000J0D01*
G01*
D12*
%TO.C,D6*%
X146431120Y-91164960D02*
X146431120Y-94024960D01*
X148351120Y-91164960D02*
X146431120Y-91164960D01*
X148351120Y-94024960D02*
X148351120Y-91164960D01*
%TO.C,J1*%
X165563400Y-106327600D02*
X165563400Y-101647600D01*
X170033400Y-100377600D02*
X170033400Y-102177600D01*
X168433400Y-100377600D02*
X170033400Y-100377600D01*
X170033400Y-105797600D02*
X170973400Y-105797600D01*
X170033400Y-107597600D02*
X170033400Y-105797600D01*
X168433400Y-107597600D02*
X170033400Y-107597600D01*
%TO.C,R5*%
X109766263Y-106765000D02*
X111213737Y-106765000D01*
X109766263Y-104055000D02*
X111213737Y-104055000D01*
%TO.C,Q1*%
X105819600Y-114039400D02*
X105819600Y-112529400D01*
X109520600Y-114039400D02*
X109520600Y-112529400D01*
X112790600Y-112529400D02*
X102550600Y-112529400D01*
X102550600Y-114039400D02*
X102550600Y-109398400D01*
X112790600Y-114039400D02*
X112790600Y-109398400D01*
X112790600Y-109398400D02*
X102550600Y-109398400D01*
X112790600Y-114039400D02*
X102550600Y-114039400D01*
%TO.C,Cdes1*%
X146150000Y-68227752D02*
X146150000Y-67705248D01*
X144680000Y-68227752D02*
X144680000Y-67705248D01*
%TO.C,SW2*%
X163371800Y-92548400D02*
X168111800Y-92548400D01*
X163371800Y-92548400D02*
X163371800Y-92948400D01*
X168111800Y-92548400D02*
X168111800Y-92948400D01*
X163371800Y-97288400D02*
X163371800Y-96888400D01*
X163371800Y-97288400D02*
X168111800Y-97288400D01*
X168111800Y-97288400D02*
X168111800Y-96888400D01*
X168111800Y-95948400D02*
X168111800Y-93888400D01*
X163371800Y-95948400D02*
X163371800Y-93888400D01*
%TO.C,SW1*%
X128186000Y-66133800D02*
X132926000Y-66133800D01*
X128186000Y-66133800D02*
X128186000Y-66533800D01*
X132926000Y-66133800D02*
X132926000Y-66533800D01*
X128186000Y-70873800D02*
X128186000Y-70473800D01*
X128186000Y-70873800D02*
X132926000Y-70873800D01*
X132926000Y-70873800D02*
X132926000Y-70473800D01*
X132926000Y-69533800D02*
X132926000Y-67473800D01*
X128186000Y-69533800D02*
X128186000Y-67473800D01*
%TO.C,U4*%
X162056120Y-112667560D02*
X162056120Y-111017560D01*
X156856120Y-112667560D02*
X162056120Y-112667560D01*
X156856120Y-107367560D02*
X156856120Y-112667560D01*
X162056120Y-107367560D02*
X156856120Y-107367560D01*
X162056120Y-109017560D02*
X162056120Y-107367560D01*
X162056120Y-111017560D02*
G75*
G02*
X162056120Y-109017560I0J1000000D01*
G01*
%TO.C,J4*%
X115082320Y-138983720D02*
X115082320Y-123743720D01*
X107462320Y-138983720D02*
X107462320Y-123743720D01*
X113812320Y-138983720D02*
X113812320Y-123743720D01*
X115082320Y-123743720D02*
X107462320Y-123743720D01*
X115082320Y-138983720D02*
X107462320Y-138983720D01*
D13*
%TO.C,Q3*%
X117602000Y-112836960D02*
X117602000Y-111516160D01*
X117602000Y-111516160D02*
X120446800Y-111516160D01*
X120446800Y-111516160D02*
X120446800Y-112836960D01*
X120446800Y-112836960D02*
X117602000Y-112836960D01*
%TO.C,Q2*%
X146334480Y-107061000D02*
X146334480Y-105740200D01*
X146334480Y-105740200D02*
X149179280Y-105740200D01*
X149179280Y-105740200D02*
X149179280Y-107061000D01*
X149179280Y-107061000D02*
X146334480Y-107061000D01*
D10*
%TO.C,K2*%
X119483680Y-120411640D02*
X134983680Y-120411640D01*
X134983680Y-120411640D02*
X134983680Y-139511640D01*
X134983680Y-139511640D02*
X119483680Y-139511640D01*
X119483680Y-139511640D02*
X119483680Y-120411640D01*
D11*
X133452680Y-119761640D02*
G75*
G03*
X133452680Y-119761640I-100000J0D01*
G01*
D12*
%TO.C,J8*%
X108000800Y-91567000D02*
X108000800Y-101727000D01*
X109270800Y-91567000D02*
X101650800Y-91567000D01*
X101650800Y-91567000D02*
X101650800Y-101727000D01*
X101650800Y-101727000D02*
X109270800Y-101727000D01*
X109270800Y-101727000D02*
X109270800Y-91567000D01*
%TO.C,D2*%
X159085160Y-93471240D02*
X159085160Y-90611240D01*
X159085160Y-90611240D02*
X157165160Y-90611240D01*
X157165160Y-90611240D02*
X157165160Y-93471240D01*
%TO.C,D1*%
X139756000Y-72075800D02*
X139756000Y-74935800D01*
X139756000Y-74935800D02*
X141676000Y-74935800D01*
X141676000Y-74935800D02*
X141676000Y-72075800D01*
%TO.C,D3*%
X137057640Y-91104840D02*
X134197640Y-91104840D01*
X134197640Y-91104840D02*
X134197640Y-93024840D01*
X134197640Y-93024840D02*
X137057640Y-93024840D01*
%TO.C,C5*%
X121289400Y-82321452D02*
X121289400Y-80898948D01*
X123109400Y-82321452D02*
X123109400Y-80898948D01*
%TO.C,C3*%
X116033600Y-69742000D02*
X113683600Y-69742000D01*
X109213600Y-69742000D02*
X111563600Y-69742000D01*
X109213600Y-75497563D02*
X109213600Y-69742000D01*
X116033600Y-75497563D02*
X116033600Y-69742000D01*
X114969163Y-76562000D02*
X113683600Y-76562000D01*
X110278037Y-76562000D02*
X111563600Y-76562000D01*
X110278037Y-76562000D02*
X109213600Y-75497563D01*
X114969163Y-76562000D02*
X116033600Y-75497563D01*
X110776100Y-77589500D02*
X110776100Y-76802000D01*
X110382350Y-77195750D02*
X111169850Y-77195750D01*
%TO.C,C4*%
X120883000Y-100126852D02*
X120883000Y-98704348D01*
X122703000Y-100126852D02*
X122703000Y-98704348D01*
%TO.C,C2*%
X108870800Y-80283000D02*
X106520800Y-80283000D01*
X102050800Y-80283000D02*
X104400800Y-80283000D01*
X102050800Y-86038563D02*
X102050800Y-80283000D01*
X108870800Y-86038563D02*
X108870800Y-80283000D01*
X107806363Y-87103000D02*
X106520800Y-87103000D01*
X103115237Y-87103000D02*
X104400800Y-87103000D01*
X103115237Y-87103000D02*
X102050800Y-86038563D01*
X107806363Y-87103000D02*
X108870800Y-86038563D01*
X103613300Y-88130500D02*
X103613300Y-87343000D01*
X103219550Y-87736750D02*
X104007050Y-87736750D01*
%TO.C,U3*%
X131616200Y-85696400D02*
X130106200Y-85696400D01*
X131616200Y-81995400D02*
X130106200Y-81995400D01*
X130106200Y-78725400D02*
X130106200Y-88965400D01*
X131616200Y-88965400D02*
X126975200Y-88965400D01*
X131616200Y-78725400D02*
X126975200Y-78725400D01*
X126975200Y-78725400D02*
X126975200Y-88965400D01*
X131616200Y-78725400D02*
X131616200Y-88965400D01*
%TO.C,U2*%
X131667000Y-99691800D02*
X130157000Y-99691800D01*
X131667000Y-95990800D02*
X130157000Y-95990800D01*
X130157000Y-92720800D02*
X130157000Y-102960800D01*
X131667000Y-102960800D02*
X127026000Y-102960800D01*
X131667000Y-92720800D02*
X127026000Y-92720800D01*
X127026000Y-92720800D02*
X127026000Y-102960800D01*
X131667000Y-92720800D02*
X131667000Y-102960800D01*
%TO.C,U5*%
X134179800Y-112175600D02*
X135829800Y-112175600D01*
X134179800Y-106975600D02*
X134179800Y-112175600D01*
X139479800Y-106975600D02*
X134179800Y-106975600D01*
X139479800Y-112175600D02*
X139479800Y-106975600D01*
X137829800Y-112175600D02*
X139479800Y-112175600D01*
X135829800Y-112175600D02*
G75*
G02*
X137829800Y-112175600I1000000J0D01*
G01*
%TO.C,R4*%
X154044320Y-92683064D02*
X154044320Y-92228936D01*
X152574320Y-92683064D02*
X152574320Y-92228936D01*
%TO.C,R2*%
X141425600Y-68197464D02*
X141425600Y-67743336D01*
X139955600Y-68197464D02*
X139955600Y-67743336D01*
%TO.C,R7*%
X135911856Y-86866400D02*
X136365984Y-86866400D01*
X135911856Y-85396400D02*
X136365984Y-85396400D01*
%TO.C,R6*%
X135948176Y-97930640D02*
X136402304Y-97930640D01*
X135948176Y-96460640D02*
X136402304Y-96460640D01*
%TO.C,R11*%
X127410704Y-106183760D02*
X126956576Y-106183760D01*
X127410704Y-107653760D02*
X126956576Y-107653760D01*
%TO.C,R9*%
X153424560Y-111098064D02*
X153424560Y-110643936D01*
X151954560Y-111098064D02*
X151954560Y-110643936D01*
%TO.C,R8*%
X159991120Y-101555816D02*
X159991120Y-102009944D01*
X161461120Y-101555816D02*
X161461120Y-102009944D01*
%TO.C,R10*%
X135947416Y-102629640D02*
X136401544Y-102629640D01*
X135947416Y-101159640D02*
X136401544Y-101159640D01*
%TO.C,R3*%
X169475416Y-89477520D02*
X169929544Y-89477520D01*
X169475416Y-88007520D02*
X169929544Y-88007520D01*
%TO.C,R1*%
X135456664Y-74982400D02*
X135002536Y-74982400D01*
X135456664Y-76452400D02*
X135002536Y-76452400D01*
%TO.C,J3*%
X160421320Y-123139200D02*
X160421320Y-138379200D01*
X168041320Y-123139200D02*
X168041320Y-138379200D01*
X161691320Y-123139200D02*
X161691320Y-138379200D01*
X160421320Y-138379200D02*
X168041320Y-138379200D01*
X160421320Y-123139200D02*
X168041320Y-123139200D01*
%TO.C,D4*%
X134131600Y-82260320D02*
X136991600Y-82260320D01*
X134131600Y-80340320D02*
X134131600Y-82260320D01*
X136991600Y-80340320D02*
X134131600Y-80340320D01*
%TO.C,D8*%
X131643840Y-118505240D02*
X124743840Y-118505240D01*
X131643840Y-115205240D02*
X124743840Y-115205240D01*
X131643840Y-118505240D02*
X131643840Y-115205240D01*
%TO.C,D7*%
X151938440Y-118058200D02*
X145038440Y-118058200D01*
X151938440Y-114758200D02*
X145038440Y-114758200D01*
X151938440Y-118058200D02*
X151938440Y-114758200D01*
%TO.C,D5*%
X154940120Y-100034640D02*
X154940120Y-102894640D01*
X156860120Y-100034640D02*
X154940120Y-100034640D01*
X156860120Y-102894640D02*
X156860120Y-100034640D01*
D14*
%TO.C,U1*%
X151615415Y-65582662D02*
G75*
G03*
X151615415Y-65582662I-283981J0D01*
G01*
D15*
X170237434Y-65436662D02*
X152237434Y-65436662D01*
X152237434Y-59436662D02*
X152237434Y-84936662D01*
X170237434Y-59436662D02*
X170237434Y-84936662D01*
X170237434Y-84936662D02*
X152237434Y-84936662D01*
X170237434Y-59436662D02*
X152237434Y-59436662D01*
%TO.C,*%
%TO.C,K1*%
X156796223Y-123764294D02*
X155796129Y-123764294D01*
X156796223Y-123192812D02*
X156224741Y-123621424D01*
X155796129Y-123192812D02*
X156367611Y-123764294D01*
X156796223Y-122240341D02*
X156796223Y-122811824D01*
X156796223Y-122526083D02*
X155796129Y-122526083D01*
X155939000Y-122621330D01*
X156034247Y-122716577D01*
X156081870Y-122811824D01*
%TO.C,D6*%
X149493500Y-93763055D02*
X148493500Y-93763055D01*
X148493500Y-93524960D01*
X148541120Y-93382102D01*
X148636358Y-93286864D01*
X148731596Y-93239245D01*
X148922072Y-93191626D01*
X149064929Y-93191626D01*
X149255405Y-93239245D01*
X149350643Y-93286864D01*
X149445881Y-93382102D01*
X149493500Y-93524960D01*
X149493500Y-93763055D01*
X148493500Y-92334483D02*
X148493500Y-92524960D01*
X148541120Y-92620198D01*
X148588739Y-92667817D01*
X148731596Y-92763055D01*
X148922072Y-92810674D01*
X149303024Y-92810674D01*
X149398262Y-92763055D01*
X149445881Y-92715436D01*
X149493500Y-92620198D01*
X149493500Y-92429721D01*
X149445881Y-92334483D01*
X149398262Y-92286864D01*
X149303024Y-92239245D01*
X149064929Y-92239245D01*
X148969691Y-92286864D01*
X148922072Y-92334483D01*
X148874453Y-92429721D01*
X148874453Y-92620198D01*
X148922072Y-92715436D01*
X148969691Y-92763055D01*
X149064929Y-92810674D01*
%TO.C,J1*%
X163625780Y-104320933D02*
X164340066Y-104320933D01*
X164482923Y-104368552D01*
X164578161Y-104463790D01*
X164625780Y-104606647D01*
X164625780Y-104701885D01*
X164625780Y-103320933D02*
X164625780Y-103892361D01*
X164625780Y-103606647D02*
X163625780Y-103606647D01*
X163768638Y-103701885D01*
X163863876Y-103797123D01*
X163911495Y-103892361D01*
%TO.C,R5*%
X110323333Y-103582380D02*
X109990000Y-103106190D01*
X109751904Y-103582380D02*
X109751904Y-102582380D01*
X110132857Y-102582380D01*
X110228095Y-102630000D01*
X110275714Y-102677619D01*
X110323333Y-102772857D01*
X110323333Y-102915714D01*
X110275714Y-103010952D01*
X110228095Y-103058571D01*
X110132857Y-103106190D01*
X109751904Y-103106190D01*
X111228095Y-102582380D02*
X110751904Y-102582380D01*
X110704285Y-103058571D01*
X110751904Y-103010952D01*
X110847142Y-102963333D01*
X111085238Y-102963333D01*
X111180476Y-103010952D01*
X111228095Y-103058571D01*
X111275714Y-103153809D01*
X111275714Y-103391904D01*
X111228095Y-103487142D01*
X111180476Y-103534761D01*
X111085238Y-103582380D01*
X110847142Y-103582380D01*
X110751904Y-103534761D01*
X110704285Y-103487142D01*
%TO.C,Q1*%
X107575361Y-115587019D02*
X107480123Y-115539400D01*
X107384885Y-115444161D01*
X107242028Y-115301304D01*
X107146790Y-115253685D01*
X107051552Y-115253685D01*
X107099171Y-115491780D02*
X107003933Y-115444161D01*
X106908695Y-115348923D01*
X106861076Y-115158447D01*
X106861076Y-114825114D01*
X106908695Y-114634638D01*
X107003933Y-114539400D01*
X107099171Y-114491780D01*
X107289647Y-114491780D01*
X107384885Y-114539400D01*
X107480123Y-114634638D01*
X107527742Y-114825114D01*
X107527742Y-115158447D01*
X107480123Y-115348923D01*
X107384885Y-115444161D01*
X107289647Y-115491780D01*
X107099171Y-115491780D01*
X108480123Y-115491780D02*
X107908695Y-115491780D01*
X108194409Y-115491780D02*
X108194409Y-114491780D01*
X108099171Y-114634638D01*
X108003933Y-114729876D01*
X107908695Y-114777495D01*
%TO.C,Cdes1*%
X144092142Y-69418880D02*
X144139761Y-69466500D01*
X144187380Y-69609357D01*
X144187380Y-69704595D01*
X144139761Y-69847452D01*
X144044523Y-69942690D01*
X143949285Y-69990309D01*
X143758809Y-70037928D01*
X143615952Y-70037928D01*
X143425476Y-69990309D01*
X143330238Y-69942690D01*
X143235000Y-69847452D01*
X143187380Y-69704595D01*
X143187380Y-69609357D01*
X143235000Y-69466500D01*
X143282619Y-69418880D01*
X144187380Y-68561738D02*
X143187380Y-68561738D01*
X144139761Y-68561738D02*
X144187380Y-68656976D01*
X144187380Y-68847452D01*
X144139761Y-68942690D01*
X144092142Y-68990309D01*
X143996904Y-69037928D01*
X143711190Y-69037928D01*
X143615952Y-68990309D01*
X143568333Y-68942690D01*
X143520714Y-68847452D01*
X143520714Y-68656976D01*
X143568333Y-68561738D01*
X144139761Y-67704595D02*
X144187380Y-67799833D01*
X144187380Y-67990309D01*
X144139761Y-68085547D01*
X144044523Y-68133166D01*
X143663571Y-68133166D01*
X143568333Y-68085547D01*
X143520714Y-67990309D01*
X143520714Y-67799833D01*
X143568333Y-67704595D01*
X143663571Y-67656976D01*
X143758809Y-67656976D01*
X143854047Y-68133166D01*
X144139761Y-67276023D02*
X144187380Y-67180785D01*
X144187380Y-66990309D01*
X144139761Y-66895071D01*
X144044523Y-66847452D01*
X143996904Y-66847452D01*
X143901666Y-66895071D01*
X143854047Y-66990309D01*
X143854047Y-67133166D01*
X143806428Y-67228404D01*
X143711190Y-67276023D01*
X143663571Y-67276023D01*
X143568333Y-67228404D01*
X143520714Y-67133166D01*
X143520714Y-66990309D01*
X143568333Y-66895071D01*
X144187380Y-65895071D02*
X144187380Y-66466500D01*
X144187380Y-66180785D02*
X143187380Y-66180785D01*
X143330238Y-66276023D01*
X143425476Y-66371261D01*
X143473095Y-66466500D01*
%TO.C,SW2*%
X164408466Y-91723161D02*
X164551323Y-91770780D01*
X164789419Y-91770780D01*
X164884657Y-91723161D01*
X164932276Y-91675542D01*
X164979895Y-91580304D01*
X164979895Y-91485066D01*
X164932276Y-91389828D01*
X164884657Y-91342209D01*
X164789419Y-91294590D01*
X164598942Y-91246971D01*
X164503704Y-91199352D01*
X164456085Y-91151733D01*
X164408466Y-91056495D01*
X164408466Y-90961257D01*
X164456085Y-90866019D01*
X164503704Y-90818400D01*
X164598942Y-90770780D01*
X164837038Y-90770780D01*
X164979895Y-90818400D01*
X165313228Y-90770780D02*
X165551323Y-91770780D01*
X165741800Y-91056495D01*
X165932276Y-91770780D01*
X166170371Y-90770780D01*
X166503704Y-90866019D02*
X166551323Y-90818400D01*
X166646561Y-90770780D01*
X166884657Y-90770780D01*
X166979895Y-90818400D01*
X167027514Y-90866019D01*
X167075133Y-90961257D01*
X167075133Y-91056495D01*
X167027514Y-91199352D01*
X166456085Y-91770780D01*
X167075133Y-91770780D01*
%TO.C,SW1*%
X129133766Y-72439161D02*
X129276623Y-72486780D01*
X129514719Y-72486780D01*
X129609957Y-72439161D01*
X129657576Y-72391542D01*
X129705195Y-72296304D01*
X129705195Y-72201066D01*
X129657576Y-72105828D01*
X129609957Y-72058209D01*
X129514719Y-72010590D01*
X129324242Y-71962971D01*
X129229004Y-71915352D01*
X129181385Y-71867733D01*
X129133766Y-71772495D01*
X129133766Y-71677257D01*
X129181385Y-71582019D01*
X129229004Y-71534400D01*
X129324242Y-71486780D01*
X129562338Y-71486780D01*
X129705195Y-71534400D01*
X130038528Y-71486780D02*
X130276623Y-72486780D01*
X130467100Y-71772495D01*
X130657576Y-72486780D01*
X130895671Y-71486780D01*
X131800433Y-72486780D02*
X131229004Y-72486780D01*
X131514719Y-72486780D02*
X131514719Y-71486780D01*
X131419480Y-71629638D01*
X131324242Y-71724876D01*
X131229004Y-71772495D01*
%TO.C,U4*%
X162508500Y-110779464D02*
X163318024Y-110779464D01*
X163413262Y-110731845D01*
X163460881Y-110684226D01*
X163508500Y-110588988D01*
X163508500Y-110398512D01*
X163460881Y-110303274D01*
X163413262Y-110255655D01*
X163318024Y-110208036D01*
X162508500Y-110208036D01*
X162841834Y-109303274D02*
X163508500Y-109303274D01*
X162460881Y-109541369D02*
X163175167Y-109779464D01*
X163175167Y-109160417D01*
%TO.C,J4*%
X106074700Y-131727053D02*
X106788986Y-131727053D01*
X106931843Y-131774672D01*
X107027081Y-131869910D01*
X107074700Y-132012767D01*
X107074700Y-132108005D01*
X106408034Y-130822291D02*
X107074700Y-130822291D01*
X106027081Y-131060386D02*
X106741367Y-131298481D01*
X106741367Y-130679434D01*
%TO.C,Q3*%
X116641566Y-115393330D02*
X116546264Y-115345679D01*
X116450962Y-115250377D01*
X116308009Y-115107424D01*
X116212708Y-115059774D01*
X116117406Y-115059774D01*
X116165057Y-115298028D02*
X116069755Y-115250377D01*
X115974453Y-115155075D01*
X115926802Y-114964472D01*
X115926802Y-114630915D01*
X115974453Y-114440312D01*
X116069755Y-114345010D01*
X116165057Y-114297359D01*
X116355660Y-114297359D01*
X116450962Y-114345010D01*
X116546264Y-114440312D01*
X116593915Y-114630915D01*
X116593915Y-114964472D01*
X116546264Y-115155075D01*
X116450962Y-115250377D01*
X116355660Y-115298028D01*
X116165057Y-115298028D01*
X116927471Y-114297359D02*
X117546933Y-114297359D01*
X117213377Y-114678566D01*
X117356329Y-114678566D01*
X117451631Y-114726217D01*
X117499282Y-114773868D01*
X117546933Y-114869170D01*
X117546933Y-115107424D01*
X117499282Y-115202726D01*
X117451631Y-115250377D01*
X117356329Y-115298028D01*
X117070424Y-115298028D01*
X116975122Y-115250377D01*
X116927471Y-115202726D01*
%TO.C,Q2*%
X145374046Y-109617370D02*
X145278744Y-109569719D01*
X145183442Y-109474417D01*
X145040489Y-109331464D01*
X144945188Y-109283814D01*
X144849886Y-109283814D01*
X144897537Y-109522068D02*
X144802235Y-109474417D01*
X144706933Y-109379115D01*
X144659282Y-109188512D01*
X144659282Y-108854955D01*
X144706933Y-108664352D01*
X144802235Y-108569050D01*
X144897537Y-108521399D01*
X145088140Y-108521399D01*
X145183442Y-108569050D01*
X145278744Y-108664352D01*
X145326395Y-108854955D01*
X145326395Y-109188512D01*
X145278744Y-109379115D01*
X145183442Y-109474417D01*
X145088140Y-109522068D01*
X144897537Y-109522068D01*
X145707602Y-108616701D02*
X145755253Y-108569050D01*
X145850555Y-108521399D01*
X146088809Y-108521399D01*
X146184111Y-108569050D01*
X146231762Y-108616701D01*
X146279413Y-108712003D01*
X146279413Y-108807305D01*
X146231762Y-108950257D01*
X145659951Y-109522068D01*
X146279413Y-109522068D01*
%TO.C,K2*%
X136521943Y-124074174D02*
X135521849Y-124074174D01*
X136521943Y-123502692D02*
X135950461Y-123931304D01*
X135521849Y-123502692D02*
X136093331Y-124074174D01*
X135617096Y-123121704D02*
X135569473Y-123074080D01*
X135521849Y-122978833D01*
X135521849Y-122740715D01*
X135569473Y-122645468D01*
X135617096Y-122597845D01*
X135712343Y-122550221D01*
X135807590Y-122550221D01*
X135950461Y-122597845D01*
X136521943Y-123169327D01*
X136521943Y-122550221D01*
%TO.C,J8*%
X99833180Y-96980333D02*
X100547466Y-96980333D01*
X100690323Y-97027952D01*
X100785561Y-97123190D01*
X100833180Y-97266047D01*
X100833180Y-97361285D01*
X100261752Y-96361285D02*
X100214133Y-96456523D01*
X100166514Y-96504142D01*
X100071276Y-96551761D01*
X100023657Y-96551761D01*
X99928419Y-96504142D01*
X99880800Y-96456523D01*
X99833180Y-96361285D01*
X99833180Y-96170809D01*
X99880800Y-96075571D01*
X99928419Y-96027952D01*
X100023657Y-95980333D01*
X100071276Y-95980333D01*
X100166514Y-96027952D01*
X100214133Y-96075571D01*
X100261752Y-96170809D01*
X100261752Y-96361285D01*
X100309371Y-96456523D01*
X100356990Y-96504142D01*
X100452228Y-96551761D01*
X100642704Y-96551761D01*
X100737942Y-96504142D01*
X100785561Y-96456523D01*
X100833180Y-96361285D01*
X100833180Y-96170809D01*
X100785561Y-96075571D01*
X100737942Y-96027952D01*
X100642704Y-95980333D01*
X100452228Y-95980333D01*
X100356990Y-96027952D01*
X100309371Y-96075571D01*
X100261752Y-96170809D01*
%TO.C,D2*%
X160227540Y-93209335D02*
X159227540Y-93209335D01*
X159227540Y-92971240D01*
X159275160Y-92828382D01*
X159370398Y-92733144D01*
X159465636Y-92685525D01*
X159656112Y-92637906D01*
X159798969Y-92637906D01*
X159989445Y-92685525D01*
X160084683Y-92733144D01*
X160179921Y-92828382D01*
X160227540Y-92971240D01*
X160227540Y-93209335D01*
X159322779Y-92256954D02*
X159275160Y-92209335D01*
X159227540Y-92114097D01*
X159227540Y-91876001D01*
X159275160Y-91780763D01*
X159322779Y-91733144D01*
X159418017Y-91685525D01*
X159513255Y-91685525D01*
X159656112Y-91733144D01*
X160227540Y-92304573D01*
X160227540Y-91685525D01*
%TO.C,D1*%
X139518380Y-73813895D02*
X138518380Y-73813895D01*
X138518380Y-73575800D01*
X138566000Y-73432942D01*
X138661238Y-73337704D01*
X138756476Y-73290085D01*
X138946952Y-73242466D01*
X139089809Y-73242466D01*
X139280285Y-73290085D01*
X139375523Y-73337704D01*
X139470761Y-73432942D01*
X139518380Y-73575800D01*
X139518380Y-73813895D01*
X139518380Y-72290085D02*
X139518380Y-72861514D01*
X139518380Y-72575800D02*
X138518380Y-72575800D01*
X138661238Y-72671038D01*
X138756476Y-72766276D01*
X138804095Y-72861514D01*
%TO.C,D3*%
X135319544Y-90867220D02*
X135319544Y-89867220D01*
X135557640Y-89867220D01*
X135700497Y-89914840D01*
X135795735Y-90010078D01*
X135843354Y-90105316D01*
X135890973Y-90295792D01*
X135890973Y-90438649D01*
X135843354Y-90629125D01*
X135795735Y-90724363D01*
X135700497Y-90819601D01*
X135557640Y-90867220D01*
X135319544Y-90867220D01*
X136224306Y-89867220D02*
X136843354Y-89867220D01*
X136510020Y-90248173D01*
X136652878Y-90248173D01*
X136748116Y-90295792D01*
X136795735Y-90343411D01*
X136843354Y-90438649D01*
X136843354Y-90676744D01*
X136795735Y-90771982D01*
X136748116Y-90819601D01*
X136652878Y-90867220D01*
X136367163Y-90867220D01*
X136271925Y-90819601D01*
X136224306Y-90771982D01*
%TO.C,C5*%
X120706542Y-81776866D02*
X120754161Y-81824485D01*
X120801780Y-81967342D01*
X120801780Y-82062580D01*
X120754161Y-82205438D01*
X120658923Y-82300676D01*
X120563685Y-82348295D01*
X120373209Y-82395914D01*
X120230352Y-82395914D01*
X120039876Y-82348295D01*
X119944638Y-82300676D01*
X119849400Y-82205438D01*
X119801780Y-82062580D01*
X119801780Y-81967342D01*
X119849400Y-81824485D01*
X119897019Y-81776866D01*
X119801780Y-80872104D02*
X119801780Y-81348295D01*
X120277971Y-81395914D01*
X120230352Y-81348295D01*
X120182733Y-81253057D01*
X120182733Y-81014961D01*
X120230352Y-80919723D01*
X120277971Y-80872104D01*
X120373209Y-80824485D01*
X120611304Y-80824485D01*
X120706542Y-80872104D01*
X120754161Y-80919723D01*
X120801780Y-81014961D01*
X120801780Y-81253057D01*
X120754161Y-81348295D01*
X120706542Y-81395914D01*
%TO.C,C3*%
X108630742Y-73318666D02*
X108678361Y-73366285D01*
X108725980Y-73509142D01*
X108725980Y-73604380D01*
X108678361Y-73747238D01*
X108583123Y-73842476D01*
X108487885Y-73890095D01*
X108297409Y-73937714D01*
X108154552Y-73937714D01*
X107964076Y-73890095D01*
X107868838Y-73842476D01*
X107773600Y-73747238D01*
X107725980Y-73604380D01*
X107725980Y-73509142D01*
X107773600Y-73366285D01*
X107821219Y-73318666D01*
X107725980Y-72985333D02*
X107725980Y-72366285D01*
X108106933Y-72699619D01*
X108106933Y-72556761D01*
X108154552Y-72461523D01*
X108202171Y-72413904D01*
X108297409Y-72366285D01*
X108535504Y-72366285D01*
X108630742Y-72413904D01*
X108678361Y-72461523D01*
X108725980Y-72556761D01*
X108725980Y-72842476D01*
X108678361Y-72937714D01*
X108630742Y-72985333D01*
%TO.C,C4*%
X120300142Y-99582266D02*
X120347761Y-99629885D01*
X120395380Y-99772742D01*
X120395380Y-99867980D01*
X120347761Y-100010838D01*
X120252523Y-100106076D01*
X120157285Y-100153695D01*
X119966809Y-100201314D01*
X119823952Y-100201314D01*
X119633476Y-100153695D01*
X119538238Y-100106076D01*
X119443000Y-100010838D01*
X119395380Y-99867980D01*
X119395380Y-99772742D01*
X119443000Y-99629885D01*
X119490619Y-99582266D01*
X119728714Y-98725123D02*
X120395380Y-98725123D01*
X119347761Y-98963219D02*
X120062047Y-99201314D01*
X120062047Y-98582266D01*
%TO.C,C2*%
X110389942Y-83859666D02*
X110437561Y-83907285D01*
X110485180Y-84050142D01*
X110485180Y-84145380D01*
X110437561Y-84288238D01*
X110342323Y-84383476D01*
X110247085Y-84431095D01*
X110056609Y-84478714D01*
X109913752Y-84478714D01*
X109723276Y-84431095D01*
X109628038Y-84383476D01*
X109532800Y-84288238D01*
X109485180Y-84145380D01*
X109485180Y-84050142D01*
X109532800Y-83907285D01*
X109580419Y-83859666D01*
X109580419Y-83478714D02*
X109532800Y-83431095D01*
X109485180Y-83335857D01*
X109485180Y-83097761D01*
X109532800Y-83002523D01*
X109580419Y-82954904D01*
X109675657Y-82907285D01*
X109770895Y-82907285D01*
X109913752Y-82954904D01*
X110485180Y-83526333D01*
X110485180Y-82907285D01*
%TO.C,U3*%
X132068580Y-84607304D02*
X132878104Y-84607304D01*
X132973342Y-84559685D01*
X133020961Y-84512066D01*
X133068580Y-84416828D01*
X133068580Y-84226352D01*
X133020961Y-84131114D01*
X132973342Y-84083495D01*
X132878104Y-84035876D01*
X132068580Y-84035876D01*
X132068580Y-83654923D02*
X132068580Y-83035876D01*
X132449533Y-83369209D01*
X132449533Y-83226352D01*
X132497152Y-83131114D01*
X132544771Y-83083495D01*
X132640009Y-83035876D01*
X132878104Y-83035876D01*
X132973342Y-83083495D01*
X133020961Y-83131114D01*
X133068580Y-83226352D01*
X133068580Y-83512066D01*
X133020961Y-83607304D01*
X132973342Y-83654923D01*
%TO.C,U2*%
X132119380Y-98602704D02*
X132928904Y-98602704D01*
X133024142Y-98555085D01*
X133071761Y-98507466D01*
X133119380Y-98412228D01*
X133119380Y-98221752D01*
X133071761Y-98126514D01*
X133024142Y-98078895D01*
X132928904Y-98031276D01*
X132119380Y-98031276D01*
X132214619Y-97602704D02*
X132167000Y-97555085D01*
X132119380Y-97459847D01*
X132119380Y-97221752D01*
X132167000Y-97126514D01*
X132214619Y-97078895D01*
X132309857Y-97031276D01*
X132405095Y-97031276D01*
X132547952Y-97078895D01*
X133119380Y-97650323D01*
X133119380Y-97031276D01*
%TO.C,U5*%
X136067895Y-112627980D02*
X136067895Y-113437504D01*
X136115514Y-113532742D01*
X136163133Y-113580361D01*
X136258371Y-113627980D01*
X136448847Y-113627980D01*
X136544085Y-113580361D01*
X136591704Y-113532742D01*
X136639323Y-113437504D01*
X136639323Y-112627980D01*
X137591704Y-112627980D02*
X137115514Y-112627980D01*
X137067895Y-113104171D01*
X137115514Y-113056552D01*
X137210752Y-113008933D01*
X137448847Y-113008933D01*
X137544085Y-113056552D01*
X137591704Y-113104171D01*
X137639323Y-113199409D01*
X137639323Y-113437504D01*
X137591704Y-113532742D01*
X137544085Y-113580361D01*
X137448847Y-113627980D01*
X137210752Y-113627980D01*
X137115514Y-113580361D01*
X137067895Y-113532742D01*
%TO.C,R4*%
X152111700Y-92622666D02*
X151635510Y-92956000D01*
X152111700Y-93194095D02*
X151111700Y-93194095D01*
X151111700Y-92813142D01*
X151159320Y-92717904D01*
X151206939Y-92670285D01*
X151302177Y-92622666D01*
X151445034Y-92622666D01*
X151540272Y-92670285D01*
X151587891Y-92717904D01*
X151635510Y-92813142D01*
X151635510Y-93194095D01*
X151445034Y-91765523D02*
X152111700Y-91765523D01*
X151064081Y-92003619D02*
X151778367Y-92241714D01*
X151778367Y-91622666D01*
%TO.C,R2*%
X139492980Y-68137066D02*
X139016790Y-68470400D01*
X139492980Y-68708495D02*
X138492980Y-68708495D01*
X138492980Y-68327542D01*
X138540600Y-68232304D01*
X138588219Y-68184685D01*
X138683457Y-68137066D01*
X138826314Y-68137066D01*
X138921552Y-68184685D01*
X138969171Y-68232304D01*
X139016790Y-68327542D01*
X139016790Y-68708495D01*
X138588219Y-67756114D02*
X138540600Y-67708495D01*
X138492980Y-67613257D01*
X138492980Y-67375161D01*
X138540600Y-67279923D01*
X138588219Y-67232304D01*
X138683457Y-67184685D01*
X138778695Y-67184685D01*
X138921552Y-67232304D01*
X139492980Y-67803733D01*
X139492980Y-67184685D01*
%TO.C,R7*%
X135972253Y-84933780D02*
X135638920Y-84457590D01*
X135400824Y-84933780D02*
X135400824Y-83933780D01*
X135781777Y-83933780D01*
X135877015Y-83981400D01*
X135924634Y-84029019D01*
X135972253Y-84124257D01*
X135972253Y-84267114D01*
X135924634Y-84362352D01*
X135877015Y-84409971D01*
X135781777Y-84457590D01*
X135400824Y-84457590D01*
X136305586Y-83933780D02*
X136972253Y-83933780D01*
X136543681Y-84933780D01*
%TO.C,R6*%
X136008573Y-95998020D02*
X135675240Y-95521830D01*
X135437144Y-95998020D02*
X135437144Y-94998020D01*
X135818097Y-94998020D01*
X135913335Y-95045640D01*
X135960954Y-95093259D01*
X136008573Y-95188497D01*
X136008573Y-95331354D01*
X135960954Y-95426592D01*
X135913335Y-95474211D01*
X135818097Y-95521830D01*
X135437144Y-95521830D01*
X136865716Y-94998020D02*
X136675240Y-94998020D01*
X136580001Y-95045640D01*
X136532382Y-95093259D01*
X136437144Y-95236116D01*
X136389525Y-95426592D01*
X136389525Y-95807544D01*
X136437144Y-95902782D01*
X136484763Y-95950401D01*
X136580001Y-95998020D01*
X136770478Y-95998020D01*
X136865716Y-95950401D01*
X136913335Y-95902782D01*
X136960954Y-95807544D01*
X136960954Y-95569449D01*
X136913335Y-95474211D01*
X136865716Y-95426592D01*
X136770478Y-95378973D01*
X136580001Y-95378973D01*
X136484763Y-95426592D01*
X136437144Y-95474211D01*
X136389525Y-95569449D01*
%TO.C,R11*%
X126540782Y-109021140D02*
X126207449Y-108544950D01*
X125969354Y-109021140D02*
X125969354Y-108021140D01*
X126350306Y-108021140D01*
X126445544Y-108068760D01*
X126493163Y-108116379D01*
X126540782Y-108211617D01*
X126540782Y-108354474D01*
X126493163Y-108449712D01*
X126445544Y-108497331D01*
X126350306Y-108544950D01*
X125969354Y-108544950D01*
X127493163Y-109021140D02*
X126921735Y-109021140D01*
X127207449Y-109021140D02*
X127207449Y-108021140D01*
X127112211Y-108163998D01*
X127016973Y-108259236D01*
X126921735Y-108306855D01*
X128445544Y-109021140D02*
X127874116Y-109021140D01*
X128159830Y-109021140D02*
X128159830Y-108021140D01*
X128064592Y-108163998D01*
X127969354Y-108259236D01*
X127874116Y-108306855D01*
%TO.C,R9*%
X151491940Y-111037666D02*
X151015750Y-111371000D01*
X151491940Y-111609095D02*
X150491940Y-111609095D01*
X150491940Y-111228142D01*
X150539560Y-111132904D01*
X150587179Y-111085285D01*
X150682417Y-111037666D01*
X150825274Y-111037666D01*
X150920512Y-111085285D01*
X150968131Y-111132904D01*
X151015750Y-111228142D01*
X151015750Y-111609095D01*
X151491940Y-110561476D02*
X151491940Y-110371000D01*
X151444321Y-110275761D01*
X151396702Y-110228142D01*
X151253845Y-110132904D01*
X151063369Y-110085285D01*
X150682417Y-110085285D01*
X150587179Y-110132904D01*
X150539560Y-110180523D01*
X150491940Y-110275761D01*
X150491940Y-110466238D01*
X150539560Y-110561476D01*
X150587179Y-110609095D01*
X150682417Y-110656714D01*
X150920512Y-110656714D01*
X151015750Y-110609095D01*
X151063369Y-110561476D01*
X151110988Y-110466238D01*
X151110988Y-110275761D01*
X151063369Y-110180523D01*
X151015750Y-110132904D01*
X150920512Y-110085285D01*
%TO.C,R8*%
X162828500Y-101949546D02*
X162352310Y-102282880D01*
X162828500Y-102520975D02*
X161828500Y-102520975D01*
X161828500Y-102140022D01*
X161876120Y-102044784D01*
X161923739Y-101997165D01*
X162018977Y-101949546D01*
X162161834Y-101949546D01*
X162257072Y-101997165D01*
X162304691Y-102044784D01*
X162352310Y-102140022D01*
X162352310Y-102520975D01*
X162257072Y-101378118D02*
X162209453Y-101473356D01*
X162161834Y-101520975D01*
X162066596Y-101568594D01*
X162018977Y-101568594D01*
X161923739Y-101520975D01*
X161876120Y-101473356D01*
X161828500Y-101378118D01*
X161828500Y-101187641D01*
X161876120Y-101092403D01*
X161923739Y-101044784D01*
X162018977Y-100997165D01*
X162066596Y-100997165D01*
X162161834Y-101044784D01*
X162209453Y-101092403D01*
X162257072Y-101187641D01*
X162257072Y-101378118D01*
X162304691Y-101473356D01*
X162352310Y-101520975D01*
X162447548Y-101568594D01*
X162638024Y-101568594D01*
X162733262Y-101520975D01*
X162780881Y-101473356D01*
X162828500Y-101378118D01*
X162828500Y-101187641D01*
X162780881Y-101092403D01*
X162733262Y-101044784D01*
X162638024Y-100997165D01*
X162447548Y-100997165D01*
X162352310Y-101044784D01*
X162304691Y-101092403D01*
X162257072Y-101187641D01*
%TO.C,R10*%
X135531622Y-100697020D02*
X135198289Y-100220830D01*
X134960194Y-100697020D02*
X134960194Y-99697020D01*
X135341146Y-99697020D01*
X135436384Y-99744640D01*
X135484003Y-99792259D01*
X135531622Y-99887497D01*
X135531622Y-100030354D01*
X135484003Y-100125592D01*
X135436384Y-100173211D01*
X135341146Y-100220830D01*
X134960194Y-100220830D01*
X136484003Y-100697020D02*
X135912575Y-100697020D01*
X136198289Y-100697020D02*
X136198289Y-99697020D01*
X136103051Y-99839878D01*
X136007813Y-99935116D01*
X135912575Y-99982735D01*
X137103051Y-99697020D02*
X137198289Y-99697020D01*
X137293527Y-99744640D01*
X137341146Y-99792259D01*
X137388765Y-99887497D01*
X137436384Y-100077973D01*
X137436384Y-100316068D01*
X137388765Y-100506544D01*
X137341146Y-100601782D01*
X137293527Y-100649401D01*
X137198289Y-100697020D01*
X137103051Y-100697020D01*
X137007813Y-100649401D01*
X136960194Y-100601782D01*
X136912575Y-100506544D01*
X136864956Y-100316068D01*
X136864956Y-100077973D01*
X136912575Y-99887497D01*
X136960194Y-99792259D01*
X137007813Y-99744640D01*
X137103051Y-99697020D01*
%TO.C,R3*%
X169535813Y-87544900D02*
X169202480Y-87068710D01*
X168964384Y-87544900D02*
X168964384Y-86544900D01*
X169345337Y-86544900D01*
X169440575Y-86592520D01*
X169488194Y-86640139D01*
X169535813Y-86735377D01*
X169535813Y-86878234D01*
X169488194Y-86973472D01*
X169440575Y-87021091D01*
X169345337Y-87068710D01*
X168964384Y-87068710D01*
X169869146Y-86544900D02*
X170488194Y-86544900D01*
X170154860Y-86925853D01*
X170297718Y-86925853D01*
X170392956Y-86973472D01*
X170440575Y-87021091D01*
X170488194Y-87116329D01*
X170488194Y-87354424D01*
X170440575Y-87449662D01*
X170392956Y-87497281D01*
X170297718Y-87544900D01*
X170012003Y-87544900D01*
X169916765Y-87497281D01*
X169869146Y-87449662D01*
%TO.C,R1*%
X135062933Y-77819780D02*
X134729600Y-77343590D01*
X134491504Y-77819780D02*
X134491504Y-76819780D01*
X134872457Y-76819780D01*
X134967695Y-76867400D01*
X135015314Y-76915019D01*
X135062933Y-77010257D01*
X135062933Y-77153114D01*
X135015314Y-77248352D01*
X134967695Y-77295971D01*
X134872457Y-77343590D01*
X134491504Y-77343590D01*
X136015314Y-77819780D02*
X135443885Y-77819780D01*
X135729600Y-77819780D02*
X135729600Y-76819780D01*
X135634361Y-76962638D01*
X135539123Y-77057876D01*
X135443885Y-77105495D01*
%TO.C,J3*%
X168333700Y-131062533D02*
X169047986Y-131062533D01*
X169190843Y-131110152D01*
X169286081Y-131205390D01*
X169333700Y-131348247D01*
X169333700Y-131443485D01*
X168333700Y-130681580D02*
X168333700Y-130062533D01*
X168714653Y-130395866D01*
X168714653Y-130253009D01*
X168762272Y-130157771D01*
X168809891Y-130110152D01*
X168905129Y-130062533D01*
X169143224Y-130062533D01*
X169238462Y-130110152D01*
X169286081Y-130157771D01*
X169333700Y-130253009D01*
X169333700Y-130538723D01*
X169286081Y-130633961D01*
X169238462Y-130681580D01*
%TO.C,D4*%
X135253504Y-80102700D02*
X135253504Y-79102700D01*
X135491600Y-79102700D01*
X135634457Y-79150320D01*
X135729695Y-79245558D01*
X135777314Y-79340796D01*
X135824933Y-79531272D01*
X135824933Y-79674129D01*
X135777314Y-79864605D01*
X135729695Y-79959843D01*
X135634457Y-80055081D01*
X135491600Y-80102700D01*
X135253504Y-80102700D01*
X136682076Y-79436034D02*
X136682076Y-80102700D01*
X136443980Y-79055081D02*
X136205885Y-79769367D01*
X136824933Y-79769367D01*
%TO.C,D8*%
X126505744Y-119807620D02*
X126505744Y-118807620D01*
X126743840Y-118807620D01*
X126886697Y-118855240D01*
X126981935Y-118950478D01*
X127029554Y-119045716D01*
X127077173Y-119236192D01*
X127077173Y-119379049D01*
X127029554Y-119569525D01*
X126981935Y-119664763D01*
X126886697Y-119760001D01*
X126743840Y-119807620D01*
X126505744Y-119807620D01*
X127648601Y-119236192D02*
X127553363Y-119188573D01*
X127505744Y-119140954D01*
X127458125Y-119045716D01*
X127458125Y-118998097D01*
X127505744Y-118902859D01*
X127553363Y-118855240D01*
X127648601Y-118807620D01*
X127839078Y-118807620D01*
X127934316Y-118855240D01*
X127981935Y-118902859D01*
X128029554Y-118998097D01*
X128029554Y-119045716D01*
X127981935Y-119140954D01*
X127934316Y-119188573D01*
X127839078Y-119236192D01*
X127648601Y-119236192D01*
X127553363Y-119283811D01*
X127505744Y-119331430D01*
X127458125Y-119426668D01*
X127458125Y-119617144D01*
X127505744Y-119712382D01*
X127553363Y-119760001D01*
X127648601Y-119807620D01*
X127839078Y-119807620D01*
X127934316Y-119760001D01*
X127981935Y-119712382D01*
X128029554Y-119617144D01*
X128029554Y-119426668D01*
X127981935Y-119331430D01*
X127934316Y-119283811D01*
X127839078Y-119236192D01*
%TO.C,D7*%
X146800344Y-119360580D02*
X146800344Y-118360580D01*
X147038440Y-118360580D01*
X147181297Y-118408200D01*
X147276535Y-118503438D01*
X147324154Y-118598676D01*
X147371773Y-118789152D01*
X147371773Y-118932009D01*
X147324154Y-119122485D01*
X147276535Y-119217723D01*
X147181297Y-119312961D01*
X147038440Y-119360580D01*
X146800344Y-119360580D01*
X147705106Y-118360580D02*
X148371773Y-118360580D01*
X147943201Y-119360580D01*
%TO.C,D5*%
X158002500Y-102632735D02*
X157002500Y-102632735D01*
X157002500Y-102394640D01*
X157050120Y-102251782D01*
X157145358Y-102156544D01*
X157240596Y-102108925D01*
X157431072Y-102061306D01*
X157573929Y-102061306D01*
X157764405Y-102108925D01*
X157859643Y-102156544D01*
X157954881Y-102251782D01*
X158002500Y-102394640D01*
X158002500Y-102632735D01*
X157002500Y-101156544D02*
X157002500Y-101632735D01*
X157478691Y-101680354D01*
X157431072Y-101632735D01*
X157383453Y-101537497D01*
X157383453Y-101299401D01*
X157431072Y-101204163D01*
X157478691Y-101156544D01*
X157573929Y-101108925D01*
X157812024Y-101108925D01*
X157907262Y-101156544D01*
X157954881Y-101204163D01*
X158002500Y-101299401D01*
X158002500Y-101537497D01*
X157954881Y-101632735D01*
X157907262Y-101680354D01*
%TO.C,U1*%
X149401280Y-76326904D02*
X150210804Y-76326904D01*
X150306042Y-76279285D01*
X150353661Y-76231666D01*
X150401280Y-76136428D01*
X150401280Y-75945952D01*
X150353661Y-75850714D01*
X150306042Y-75803095D01*
X150210804Y-75755476D01*
X149401280Y-75755476D01*
X150401280Y-74755476D02*
X150401280Y-75326904D01*
X150401280Y-75041190D02*
X149401280Y-75041190D01*
X149544138Y-75136428D01*
X149639376Y-75231666D01*
X149686995Y-75326904D01*
X166018571Y-82492095D02*
X166018571Y-82158761D01*
X166542380Y-82015904D02*
X166542380Y-82492095D01*
X165542380Y-82492095D01*
X165542380Y-82015904D01*
X166494761Y-81634952D02*
X166542380Y-81492095D01*
X166542380Y-81254000D01*
X166494761Y-81158761D01*
X166447142Y-81111142D01*
X166351904Y-81063523D01*
X166256666Y-81063523D01*
X166161428Y-81111142D01*
X166113809Y-81158761D01*
X166066190Y-81254000D01*
X166018571Y-81444476D01*
X165970952Y-81539714D01*
X165923333Y-81587333D01*
X165828095Y-81634952D01*
X165732857Y-81634952D01*
X165637619Y-81587333D01*
X165590000Y-81539714D01*
X165542380Y-81444476D01*
X165542380Y-81206380D01*
X165590000Y-81063523D01*
X166542380Y-80634952D02*
X165542380Y-80634952D01*
X165542380Y-80254000D01*
X165590000Y-80158761D01*
X165637619Y-80111142D01*
X165732857Y-80063523D01*
X165875714Y-80063523D01*
X165970952Y-80111142D01*
X166018571Y-80158761D01*
X166066190Y-80254000D01*
X166066190Y-80634952D01*
X166161428Y-79634952D02*
X166161428Y-78873047D01*
X165542380Y-78492095D02*
X165542380Y-77873047D01*
X165923333Y-78206380D01*
X165923333Y-78063523D01*
X165970952Y-77968285D01*
X166018571Y-77920666D01*
X166113809Y-77873047D01*
X166351904Y-77873047D01*
X166447142Y-77920666D01*
X166494761Y-77968285D01*
X166542380Y-78063523D01*
X166542380Y-78349238D01*
X166494761Y-78444476D01*
X166447142Y-78492095D01*
X165637619Y-77492095D02*
X165590000Y-77444476D01*
X165542380Y-77349238D01*
X165542380Y-77111142D01*
X165590000Y-77015904D01*
X165637619Y-76968285D01*
X165732857Y-76920666D01*
X165828095Y-76920666D01*
X165970952Y-76968285D01*
X166542380Y-77539714D01*
X166542380Y-76920666D01*
X166494761Y-76539714D02*
X166542380Y-76396857D01*
X166542380Y-76158761D01*
X166494761Y-76063523D01*
X166447142Y-76015904D01*
X166351904Y-75968285D01*
X166256666Y-75968285D01*
X166161428Y-76015904D01*
X166113809Y-76063523D01*
X166066190Y-76158761D01*
X166018571Y-76349238D01*
X165970952Y-76444476D01*
X165923333Y-76492095D01*
X165828095Y-76539714D01*
X165732857Y-76539714D01*
X165637619Y-76492095D01*
X165590000Y-76444476D01*
X165542380Y-76349238D01*
X165542380Y-76111142D01*
X165590000Y-75968285D01*
X167756666Y-82520666D02*
X167756666Y-82044476D01*
X168042380Y-82615904D02*
X167042380Y-82282571D01*
X168042380Y-81949238D01*
X168042380Y-81615904D02*
X167042380Y-81615904D01*
X167661428Y-81139714D02*
X167661428Y-80377809D01*
X167042380Y-80044476D02*
X167042380Y-79473047D01*
X168042380Y-79758761D02*
X167042380Y-79758761D01*
X168042380Y-79139714D02*
X167042380Y-79139714D01*
X168042380Y-78711142D02*
X167518571Y-78711142D01*
X167423333Y-78758761D01*
X167375714Y-78854000D01*
X167375714Y-78996857D01*
X167423333Y-79092095D01*
X167470952Y-79139714D01*
X168042380Y-78234952D02*
X167375714Y-78234952D01*
X167042380Y-78234952D02*
X167090000Y-78282571D01*
X167137619Y-78234952D01*
X167090000Y-78187333D01*
X167042380Y-78234952D01*
X167137619Y-78234952D01*
X167375714Y-77758761D02*
X168042380Y-77758761D01*
X167470952Y-77758761D02*
X167423333Y-77711142D01*
X167375714Y-77615904D01*
X167375714Y-77473047D01*
X167423333Y-77377809D01*
X167518571Y-77330190D01*
X168042380Y-77330190D01*
X168042380Y-76854000D02*
X167042380Y-76854000D01*
X167661428Y-76758761D02*
X168042380Y-76473047D01*
X167375714Y-76473047D02*
X167756666Y-76854000D01*
X167994761Y-75663523D02*
X168042380Y-75758761D01*
X168042380Y-75949238D01*
X167994761Y-76044476D01*
X167899523Y-76092095D01*
X167518571Y-76092095D01*
X167423333Y-76044476D01*
X167375714Y-75949238D01*
X167375714Y-75758761D01*
X167423333Y-75663523D01*
X167518571Y-75615904D01*
X167613809Y-75615904D01*
X167709047Y-76092095D01*
X168042380Y-75187333D02*
X167375714Y-75187333D01*
X167566190Y-75187333D02*
X167470952Y-75139714D01*
X167423333Y-75092095D01*
X167375714Y-74996857D01*
X167375714Y-74901619D01*
X166994761Y-73854000D02*
X168280476Y-74711142D01*
X167518571Y-73520666D02*
X167518571Y-73187333D01*
X168042380Y-73044476D02*
X168042380Y-73520666D01*
X167042380Y-73520666D01*
X167042380Y-73044476D01*
X167994761Y-72663523D02*
X168042380Y-72568285D01*
X168042380Y-72377809D01*
X167994761Y-72282571D01*
X167899523Y-72234952D01*
X167851904Y-72234952D01*
X167756666Y-72282571D01*
X167709047Y-72377809D01*
X167709047Y-72520666D01*
X167661428Y-72615904D01*
X167566190Y-72663523D01*
X167518571Y-72663523D01*
X167423333Y-72615904D01*
X167375714Y-72520666D01*
X167375714Y-72377809D01*
X167423333Y-72282571D01*
X167375714Y-71806380D02*
X168375714Y-71806380D01*
X167423333Y-71806380D02*
X167375714Y-71711142D01*
X167375714Y-71520666D01*
X167423333Y-71425428D01*
X167470952Y-71377809D01*
X167566190Y-71330190D01*
X167851904Y-71330190D01*
X167947142Y-71377809D01*
X167994761Y-71425428D01*
X168042380Y-71520666D01*
X168042380Y-71711142D01*
X167994761Y-71806380D01*
X168042380Y-70901619D02*
X167375714Y-70901619D01*
X167566190Y-70901619D02*
X167470952Y-70854000D01*
X167423333Y-70806380D01*
X167375714Y-70711142D01*
X167375714Y-70615904D01*
X167994761Y-69901619D02*
X168042380Y-69996857D01*
X168042380Y-70187333D01*
X167994761Y-70282571D01*
X167899523Y-70330190D01*
X167518571Y-70330190D01*
X167423333Y-70282571D01*
X167375714Y-70187333D01*
X167375714Y-69996857D01*
X167423333Y-69901619D01*
X167518571Y-69854000D01*
X167613809Y-69854000D01*
X167709047Y-70330190D01*
X167994761Y-69473047D02*
X168042380Y-69377809D01*
X168042380Y-69187333D01*
X167994761Y-69092095D01*
X167899523Y-69044476D01*
X167851904Y-69044476D01*
X167756666Y-69092095D01*
X167709047Y-69187333D01*
X167709047Y-69330190D01*
X167661428Y-69425428D01*
X167566190Y-69473047D01*
X167518571Y-69473047D01*
X167423333Y-69425428D01*
X167375714Y-69330190D01*
X167375714Y-69187333D01*
X167423333Y-69092095D01*
X167994761Y-68663523D02*
X168042380Y-68568285D01*
X168042380Y-68377809D01*
X167994761Y-68282571D01*
X167899523Y-68234952D01*
X167851904Y-68234952D01*
X167756666Y-68282571D01*
X167709047Y-68377809D01*
X167709047Y-68520666D01*
X167661428Y-68615904D01*
X167566190Y-68663523D01*
X167518571Y-68663523D01*
X167423333Y-68615904D01*
X167375714Y-68520666D01*
X167375714Y-68377809D01*
X167423333Y-68282571D01*
X168042380Y-67806380D02*
X167375714Y-67806380D01*
X167042380Y-67806380D02*
X167090000Y-67854000D01*
X167137619Y-67806380D01*
X167090000Y-67758761D01*
X167042380Y-67806380D01*
X167137619Y-67806380D01*
X167375714Y-67473047D02*
X167375714Y-67092095D01*
X168042380Y-67330190D02*
X167185238Y-67330190D01*
X167090000Y-67282571D01*
X167042380Y-67187333D01*
X167042380Y-67092095D01*
%TD*%
M02*
