%TF.GenerationSoftware,KiCad,Pcbnew,(5.1.12)-1*%
%TF.CreationDate,2022-01-20T11:47:12-05:00*%
%TF.ProjectId,PCB-ESP32S,5043422d-4553-4503-9332-532e6b696361,rev?*%
%TF.SameCoordinates,Original*%
%TF.FileFunction,Paste,Top*%
%TF.FilePolarity,Positive*%
%FSLAX46Y46*%
G04 Gerber Fmt 4.6, Leading zero omitted, Abs format (unit mm)*
G04 Created by KiCad (PCBNEW (5.1.12)-1) date 2022-01-20 11:47:12*
%MOMM*%
%LPD*%
G01*
G04 APERTURE LIST*
%ADD10R,1.600000X1.400000*%
%ADD11R,1.000000X1.400000*%
%ADD12R,3.500000X1.800000*%
%ADD13R,6.000000X6.000000*%
%ADD14O,2.500000X0.900000*%
%ADD15O,0.900000X2.500000*%
G04 APERTURE END LIST*
%TO.C,D6*%
G36*
G01*
X146941119Y-93474960D02*
X147841121Y-93474960D01*
G75*
G02*
X148091120Y-93724959I0J-249999D01*
G01*
X148091120Y-94374961D01*
G75*
G02*
X147841121Y-94624960I-249999J0D01*
G01*
X146941119Y-94624960D01*
G75*
G02*
X146691120Y-94374961I0J249999D01*
G01*
X146691120Y-93724959D01*
G75*
G02*
X146941119Y-93474960I249999J0D01*
G01*
G37*
G36*
G01*
X146941119Y-91424960D02*
X147841121Y-91424960D01*
G75*
G02*
X148091120Y-91674959I0J-249999D01*
G01*
X148091120Y-92324961D01*
G75*
G02*
X147841121Y-92574960I-249999J0D01*
G01*
X146941119Y-92574960D01*
G75*
G02*
X146691120Y-92324961I0J249999D01*
G01*
X146691120Y-91674959D01*
G75*
G02*
X146941119Y-91424960I249999J0D01*
G01*
G37*
%TD*%
%TO.C,J1*%
G36*
G01*
X167923400Y-101387600D02*
X165623400Y-101387600D01*
G75*
G02*
X165373400Y-101137600I0J250000D01*
G01*
X165373400Y-100637600D01*
G75*
G02*
X165623400Y-100387600I250000J0D01*
G01*
X167923400Y-100387600D01*
G75*
G02*
X168173400Y-100637600I0J-250000D01*
G01*
X168173400Y-101137600D01*
G75*
G02*
X167923400Y-101387600I-250000J0D01*
G01*
G37*
G36*
G01*
X167923400Y-107587600D02*
X165623400Y-107587600D01*
G75*
G02*
X165373400Y-107337600I0J250000D01*
G01*
X165373400Y-106837600D01*
G75*
G02*
X165623400Y-106587600I250000J0D01*
G01*
X167923400Y-106587600D01*
G75*
G02*
X168173400Y-106837600I0J-250000D01*
G01*
X168173400Y-107337600D01*
G75*
G02*
X167923400Y-107587600I-250000J0D01*
G01*
G37*
G36*
G01*
X170823400Y-103037600D02*
X169423400Y-103037600D01*
G75*
G02*
X169273400Y-102887600I0J150000D01*
G01*
X169273400Y-102587600D01*
G75*
G02*
X169423400Y-102437600I150000J0D01*
G01*
X170823400Y-102437600D01*
G75*
G02*
X170973400Y-102587600I0J-150000D01*
G01*
X170973400Y-102887600D01*
G75*
G02*
X170823400Y-103037600I-150000J0D01*
G01*
G37*
G36*
G01*
X170823400Y-104287600D02*
X169423400Y-104287600D01*
G75*
G02*
X169273400Y-104137600I0J150000D01*
G01*
X169273400Y-103837600D01*
G75*
G02*
X169423400Y-103687600I150000J0D01*
G01*
X170823400Y-103687600D01*
G75*
G02*
X170973400Y-103837600I0J-150000D01*
G01*
X170973400Y-104137600D01*
G75*
G02*
X170823400Y-104287600I-150000J0D01*
G01*
G37*
G36*
G01*
X170823400Y-105537600D02*
X169423400Y-105537600D01*
G75*
G02*
X169273400Y-105387600I0J150000D01*
G01*
X169273400Y-105087600D01*
G75*
G02*
X169423400Y-104937600I150000J0D01*
G01*
X170823400Y-104937600D01*
G75*
G02*
X170973400Y-105087600I0J-150000D01*
G01*
X170973400Y-105387600D01*
G75*
G02*
X170823400Y-105537600I-150000J0D01*
G01*
G37*
%TD*%
%TO.C,R5*%
G36*
G01*
X111390000Y-106485000D02*
X111390000Y-104335000D01*
G75*
G02*
X111640000Y-104085000I250000J0D01*
G01*
X112440000Y-104085000D01*
G75*
G02*
X112690000Y-104335000I0J-250000D01*
G01*
X112690000Y-106485000D01*
G75*
G02*
X112440000Y-106735000I-250000J0D01*
G01*
X111640000Y-106735000D01*
G75*
G02*
X111390000Y-106485000I0J250000D01*
G01*
G37*
G36*
G01*
X108290000Y-106485000D02*
X108290000Y-104335000D01*
G75*
G02*
X108540000Y-104085000I250000J0D01*
G01*
X109340000Y-104085000D01*
G75*
G02*
X109590000Y-104335000I0J-250000D01*
G01*
X109590000Y-106485000D01*
G75*
G02*
X109340000Y-106735000I-250000J0D01*
G01*
X108540000Y-106735000D01*
G75*
G02*
X108290000Y-106485000I0J250000D01*
G01*
G37*
%TD*%
%TO.C,Cdes1*%
G36*
G01*
X145890000Y-67516500D02*
X144940000Y-67516500D01*
G75*
G02*
X144690000Y-67266500I0J250000D01*
G01*
X144690000Y-66591500D01*
G75*
G02*
X144940000Y-66341500I250000J0D01*
G01*
X145890000Y-66341500D01*
G75*
G02*
X146140000Y-66591500I0J-250000D01*
G01*
X146140000Y-67266500D01*
G75*
G02*
X145890000Y-67516500I-250000J0D01*
G01*
G37*
G36*
G01*
X145890000Y-69591500D02*
X144940000Y-69591500D01*
G75*
G02*
X144690000Y-69341500I0J250000D01*
G01*
X144690000Y-68666500D01*
G75*
G02*
X144940000Y-68416500I250000J0D01*
G01*
X145890000Y-68416500D01*
G75*
G02*
X146140000Y-68666500I0J-250000D01*
G01*
X146140000Y-69341500D01*
G75*
G02*
X145890000Y-69591500I-250000J0D01*
G01*
G37*
%TD*%
D10*
%TO.C,SW2*%
X162141800Y-96418400D03*
X169341800Y-96418400D03*
X162141800Y-93418400D03*
X169341800Y-93418400D03*
%TD*%
%TO.C,SW1*%
X126956000Y-70003800D03*
X134156000Y-70003800D03*
X126956000Y-67003800D03*
X134156000Y-67003800D03*
%TD*%
D11*
%TO.C,Q3*%
X119974400Y-111076560D03*
X118074400Y-111076560D03*
X119024400Y-113276560D03*
%TD*%
%TO.C,Q2*%
X148706880Y-105300600D03*
X146806880Y-105300600D03*
X147756880Y-107500600D03*
%TD*%
%TO.C,D2*%
G36*
G01*
X157675159Y-92921240D02*
X158575161Y-92921240D01*
G75*
G02*
X158825160Y-93171239I0J-249999D01*
G01*
X158825160Y-93821241D01*
G75*
G02*
X158575161Y-94071240I-249999J0D01*
G01*
X157675159Y-94071240D01*
G75*
G02*
X157425160Y-93821241I0J249999D01*
G01*
X157425160Y-93171239D01*
G75*
G02*
X157675159Y-92921240I249999J0D01*
G01*
G37*
G36*
G01*
X157675159Y-90871240D02*
X158575161Y-90871240D01*
G75*
G02*
X158825160Y-91121239I0J-249999D01*
G01*
X158825160Y-91771241D01*
G75*
G02*
X158575161Y-92021240I-249999J0D01*
G01*
X157675159Y-92021240D01*
G75*
G02*
X157425160Y-91771241I0J249999D01*
G01*
X157425160Y-91121239D01*
G75*
G02*
X157675159Y-90871240I249999J0D01*
G01*
G37*
%TD*%
%TO.C,D1*%
G36*
G01*
X141166001Y-72625800D02*
X140265999Y-72625800D01*
G75*
G02*
X140016000Y-72375801I0J249999D01*
G01*
X140016000Y-71725799D01*
G75*
G02*
X140265999Y-71475800I249999J0D01*
G01*
X141166001Y-71475800D01*
G75*
G02*
X141416000Y-71725799I0J-249999D01*
G01*
X141416000Y-72375801D01*
G75*
G02*
X141166001Y-72625800I-249999J0D01*
G01*
G37*
G36*
G01*
X141166001Y-74675800D02*
X140265999Y-74675800D01*
G75*
G02*
X140016000Y-74425801I0J249999D01*
G01*
X140016000Y-73775799D01*
G75*
G02*
X140265999Y-73525800I249999J0D01*
G01*
X141166001Y-73525800D01*
G75*
G02*
X141416000Y-73775799I0J-249999D01*
G01*
X141416000Y-74425801D01*
G75*
G02*
X141166001Y-74675800I-249999J0D01*
G01*
G37*
%TD*%
%TO.C,D3*%
G36*
G01*
X136507640Y-92514841D02*
X136507640Y-91614839D01*
G75*
G02*
X136757639Y-91364840I249999J0D01*
G01*
X137407641Y-91364840D01*
G75*
G02*
X137657640Y-91614839I0J-249999D01*
G01*
X137657640Y-92514841D01*
G75*
G02*
X137407641Y-92764840I-249999J0D01*
G01*
X136757639Y-92764840D01*
G75*
G02*
X136507640Y-92514841I0J249999D01*
G01*
G37*
G36*
G01*
X134457640Y-92514841D02*
X134457640Y-91614839D01*
G75*
G02*
X134707639Y-91364840I249999J0D01*
G01*
X135357641Y-91364840D01*
G75*
G02*
X135607640Y-91614839I0J-249999D01*
G01*
X135607640Y-92514841D01*
G75*
G02*
X135357641Y-92764840I-249999J0D01*
G01*
X134707639Y-92764840D01*
G75*
G02*
X134457640Y-92514841I0J249999D01*
G01*
G37*
%TD*%
%TO.C,C5*%
G36*
G01*
X122849401Y-80710200D02*
X121549399Y-80710200D01*
G75*
G02*
X121299400Y-80460201I0J249999D01*
G01*
X121299400Y-79635199D01*
G75*
G02*
X121549399Y-79385200I249999J0D01*
G01*
X122849401Y-79385200D01*
G75*
G02*
X123099400Y-79635199I0J-249999D01*
G01*
X123099400Y-80460201D01*
G75*
G02*
X122849401Y-80710200I-249999J0D01*
G01*
G37*
G36*
G01*
X122849401Y-83835200D02*
X121549399Y-83835200D01*
G75*
G02*
X121299400Y-83585201I0J249999D01*
G01*
X121299400Y-82760199D01*
G75*
G02*
X121549399Y-82510200I249999J0D01*
G01*
X122849401Y-82510200D01*
G75*
G02*
X123099400Y-82760199I0J-249999D01*
G01*
X123099400Y-83585201D01*
G75*
G02*
X122849401Y-83835200I-249999J0D01*
G01*
G37*
%TD*%
%TO.C,C3*%
G36*
G01*
X113173600Y-72202000D02*
X112073600Y-72202000D01*
G75*
G02*
X111823600Y-71952000I0J250000D01*
G01*
X111823600Y-68952000D01*
G75*
G02*
X112073600Y-68702000I250000J0D01*
G01*
X113173600Y-68702000D01*
G75*
G02*
X113423600Y-68952000I0J-250000D01*
G01*
X113423600Y-71952000D01*
G75*
G02*
X113173600Y-72202000I-250000J0D01*
G01*
G37*
G36*
G01*
X113173600Y-77602000D02*
X112073600Y-77602000D01*
G75*
G02*
X111823600Y-77352000I0J250000D01*
G01*
X111823600Y-74352000D01*
G75*
G02*
X112073600Y-74102000I250000J0D01*
G01*
X113173600Y-74102000D01*
G75*
G02*
X113423600Y-74352000I0J-250000D01*
G01*
X113423600Y-77352000D01*
G75*
G02*
X113173600Y-77602000I-250000J0D01*
G01*
G37*
%TD*%
%TO.C,C4*%
G36*
G01*
X122443001Y-98515600D02*
X121142999Y-98515600D01*
G75*
G02*
X120893000Y-98265601I0J249999D01*
G01*
X120893000Y-97440599D01*
G75*
G02*
X121142999Y-97190600I249999J0D01*
G01*
X122443001Y-97190600D01*
G75*
G02*
X122693000Y-97440599I0J-249999D01*
G01*
X122693000Y-98265601D01*
G75*
G02*
X122443001Y-98515600I-249999J0D01*
G01*
G37*
G36*
G01*
X122443001Y-101640600D02*
X121142999Y-101640600D01*
G75*
G02*
X120893000Y-101390601I0J249999D01*
G01*
X120893000Y-100565599D01*
G75*
G02*
X121142999Y-100315600I249999J0D01*
G01*
X122443001Y-100315600D01*
G75*
G02*
X122693000Y-100565599I0J-249999D01*
G01*
X122693000Y-101390601D01*
G75*
G02*
X122443001Y-101640600I-249999J0D01*
G01*
G37*
%TD*%
%TO.C,C2*%
G36*
G01*
X106010800Y-82743000D02*
X104910800Y-82743000D01*
G75*
G02*
X104660800Y-82493000I0J250000D01*
G01*
X104660800Y-79493000D01*
G75*
G02*
X104910800Y-79243000I250000J0D01*
G01*
X106010800Y-79243000D01*
G75*
G02*
X106260800Y-79493000I0J-250000D01*
G01*
X106260800Y-82493000D01*
G75*
G02*
X106010800Y-82743000I-250000J0D01*
G01*
G37*
G36*
G01*
X106010800Y-88143000D02*
X104910800Y-88143000D01*
G75*
G02*
X104660800Y-87893000I0J250000D01*
G01*
X104660800Y-84893000D01*
G75*
G02*
X104910800Y-84643000I250000J0D01*
G01*
X106010800Y-84643000D01*
G75*
G02*
X106260800Y-84893000I0J-250000D01*
G01*
X106260800Y-87893000D01*
G75*
G02*
X106010800Y-88143000I-250000J0D01*
G01*
G37*
%TD*%
%TO.C,R4*%
G36*
G01*
X153759321Y-92056000D02*
X152859319Y-92056000D01*
G75*
G02*
X152609320Y-91806001I0J249999D01*
G01*
X152609320Y-91105999D01*
G75*
G02*
X152859319Y-90856000I249999J0D01*
G01*
X153759321Y-90856000D01*
G75*
G02*
X154009320Y-91105999I0J-249999D01*
G01*
X154009320Y-91806001D01*
G75*
G02*
X153759321Y-92056000I-249999J0D01*
G01*
G37*
G36*
G01*
X153759321Y-94056000D02*
X152859319Y-94056000D01*
G75*
G02*
X152609320Y-93806001I0J249999D01*
G01*
X152609320Y-93105999D01*
G75*
G02*
X152859319Y-92856000I249999J0D01*
G01*
X153759321Y-92856000D01*
G75*
G02*
X154009320Y-93105999I0J-249999D01*
G01*
X154009320Y-93806001D01*
G75*
G02*
X153759321Y-94056000I-249999J0D01*
G01*
G37*
%TD*%
%TO.C,R2*%
G36*
G01*
X141140601Y-67570400D02*
X140240599Y-67570400D01*
G75*
G02*
X139990600Y-67320401I0J249999D01*
G01*
X139990600Y-66620399D01*
G75*
G02*
X140240599Y-66370400I249999J0D01*
G01*
X141140601Y-66370400D01*
G75*
G02*
X141390600Y-66620399I0J-249999D01*
G01*
X141390600Y-67320401D01*
G75*
G02*
X141140601Y-67570400I-249999J0D01*
G01*
G37*
G36*
G01*
X141140601Y-69570400D02*
X140240599Y-69570400D01*
G75*
G02*
X139990600Y-69320401I0J249999D01*
G01*
X139990600Y-68620399D01*
G75*
G02*
X140240599Y-68370400I249999J0D01*
G01*
X141140601Y-68370400D01*
G75*
G02*
X141390600Y-68620399I0J-249999D01*
G01*
X141390600Y-69320401D01*
G75*
G02*
X141140601Y-69570400I-249999J0D01*
G01*
G37*
%TD*%
%TO.C,R7*%
G36*
G01*
X136538920Y-86581401D02*
X136538920Y-85681399D01*
G75*
G02*
X136788919Y-85431400I249999J0D01*
G01*
X137488921Y-85431400D01*
G75*
G02*
X137738920Y-85681399I0J-249999D01*
G01*
X137738920Y-86581401D01*
G75*
G02*
X137488921Y-86831400I-249999J0D01*
G01*
X136788919Y-86831400D01*
G75*
G02*
X136538920Y-86581401I0J249999D01*
G01*
G37*
G36*
G01*
X134538920Y-86581401D02*
X134538920Y-85681399D01*
G75*
G02*
X134788919Y-85431400I249999J0D01*
G01*
X135488921Y-85431400D01*
G75*
G02*
X135738920Y-85681399I0J-249999D01*
G01*
X135738920Y-86581401D01*
G75*
G02*
X135488921Y-86831400I-249999J0D01*
G01*
X134788919Y-86831400D01*
G75*
G02*
X134538920Y-86581401I0J249999D01*
G01*
G37*
%TD*%
%TO.C,R6*%
G36*
G01*
X136575240Y-97645641D02*
X136575240Y-96745639D01*
G75*
G02*
X136825239Y-96495640I249999J0D01*
G01*
X137525241Y-96495640D01*
G75*
G02*
X137775240Y-96745639I0J-249999D01*
G01*
X137775240Y-97645641D01*
G75*
G02*
X137525241Y-97895640I-249999J0D01*
G01*
X136825239Y-97895640D01*
G75*
G02*
X136575240Y-97645641I0J249999D01*
G01*
G37*
G36*
G01*
X134575240Y-97645641D02*
X134575240Y-96745639D01*
G75*
G02*
X134825239Y-96495640I249999J0D01*
G01*
X135525241Y-96495640D01*
G75*
G02*
X135775240Y-96745639I0J-249999D01*
G01*
X135775240Y-97645641D01*
G75*
G02*
X135525241Y-97895640I-249999J0D01*
G01*
X134825239Y-97895640D01*
G75*
G02*
X134575240Y-97645641I0J249999D01*
G01*
G37*
%TD*%
%TO.C,R11*%
G36*
G01*
X126783640Y-106468759D02*
X126783640Y-107368761D01*
G75*
G02*
X126533641Y-107618760I-249999J0D01*
G01*
X125833639Y-107618760D01*
G75*
G02*
X125583640Y-107368761I0J249999D01*
G01*
X125583640Y-106468759D01*
G75*
G02*
X125833639Y-106218760I249999J0D01*
G01*
X126533641Y-106218760D01*
G75*
G02*
X126783640Y-106468759I0J-249999D01*
G01*
G37*
G36*
G01*
X128783640Y-106468759D02*
X128783640Y-107368761D01*
G75*
G02*
X128533641Y-107618760I-249999J0D01*
G01*
X127833639Y-107618760D01*
G75*
G02*
X127583640Y-107368761I0J249999D01*
G01*
X127583640Y-106468759D01*
G75*
G02*
X127833639Y-106218760I249999J0D01*
G01*
X128533641Y-106218760D01*
G75*
G02*
X128783640Y-106468759I0J-249999D01*
G01*
G37*
%TD*%
%TO.C,R9*%
G36*
G01*
X153139561Y-110471000D02*
X152239559Y-110471000D01*
G75*
G02*
X151989560Y-110221001I0J249999D01*
G01*
X151989560Y-109520999D01*
G75*
G02*
X152239559Y-109271000I249999J0D01*
G01*
X153139561Y-109271000D01*
G75*
G02*
X153389560Y-109520999I0J-249999D01*
G01*
X153389560Y-110221001D01*
G75*
G02*
X153139561Y-110471000I-249999J0D01*
G01*
G37*
G36*
G01*
X153139561Y-112471000D02*
X152239559Y-112471000D01*
G75*
G02*
X151989560Y-112221001I0J249999D01*
G01*
X151989560Y-111520999D01*
G75*
G02*
X152239559Y-111271000I249999J0D01*
G01*
X153139561Y-111271000D01*
G75*
G02*
X153389560Y-111520999I0J-249999D01*
G01*
X153389560Y-112221001D01*
G75*
G02*
X153139561Y-112471000I-249999J0D01*
G01*
G37*
%TD*%
%TO.C,R8*%
G36*
G01*
X160276119Y-102182880D02*
X161176121Y-102182880D01*
G75*
G02*
X161426120Y-102432879I0J-249999D01*
G01*
X161426120Y-103132881D01*
G75*
G02*
X161176121Y-103382880I-249999J0D01*
G01*
X160276119Y-103382880D01*
G75*
G02*
X160026120Y-103132881I0J249999D01*
G01*
X160026120Y-102432879D01*
G75*
G02*
X160276119Y-102182880I249999J0D01*
G01*
G37*
G36*
G01*
X160276119Y-100182880D02*
X161176121Y-100182880D01*
G75*
G02*
X161426120Y-100432879I0J-249999D01*
G01*
X161426120Y-101132881D01*
G75*
G02*
X161176121Y-101382880I-249999J0D01*
G01*
X160276119Y-101382880D01*
G75*
G02*
X160026120Y-101132881I0J249999D01*
G01*
X160026120Y-100432879D01*
G75*
G02*
X160276119Y-100182880I249999J0D01*
G01*
G37*
%TD*%
%TO.C,R10*%
G36*
G01*
X136574480Y-102344641D02*
X136574480Y-101444639D01*
G75*
G02*
X136824479Y-101194640I249999J0D01*
G01*
X137524481Y-101194640D01*
G75*
G02*
X137774480Y-101444639I0J-249999D01*
G01*
X137774480Y-102344641D01*
G75*
G02*
X137524481Y-102594640I-249999J0D01*
G01*
X136824479Y-102594640D01*
G75*
G02*
X136574480Y-102344641I0J249999D01*
G01*
G37*
G36*
G01*
X134574480Y-102344641D02*
X134574480Y-101444639D01*
G75*
G02*
X134824479Y-101194640I249999J0D01*
G01*
X135524481Y-101194640D01*
G75*
G02*
X135774480Y-101444639I0J-249999D01*
G01*
X135774480Y-102344641D01*
G75*
G02*
X135524481Y-102594640I-249999J0D01*
G01*
X134824479Y-102594640D01*
G75*
G02*
X134574480Y-102344641I0J249999D01*
G01*
G37*
%TD*%
%TO.C,R3*%
G36*
G01*
X170102480Y-89192521D02*
X170102480Y-88292519D01*
G75*
G02*
X170352479Y-88042520I249999J0D01*
G01*
X171052481Y-88042520D01*
G75*
G02*
X171302480Y-88292519I0J-249999D01*
G01*
X171302480Y-89192521D01*
G75*
G02*
X171052481Y-89442520I-249999J0D01*
G01*
X170352479Y-89442520D01*
G75*
G02*
X170102480Y-89192521I0J249999D01*
G01*
G37*
G36*
G01*
X168102480Y-89192521D02*
X168102480Y-88292519D01*
G75*
G02*
X168352479Y-88042520I249999J0D01*
G01*
X169052481Y-88042520D01*
G75*
G02*
X169302480Y-88292519I0J-249999D01*
G01*
X169302480Y-89192521D01*
G75*
G02*
X169052481Y-89442520I-249999J0D01*
G01*
X168352479Y-89442520D01*
G75*
G02*
X168102480Y-89192521I0J249999D01*
G01*
G37*
%TD*%
%TO.C,R1*%
G36*
G01*
X134829600Y-75267399D02*
X134829600Y-76167401D01*
G75*
G02*
X134579601Y-76417400I-249999J0D01*
G01*
X133879599Y-76417400D01*
G75*
G02*
X133629600Y-76167401I0J249999D01*
G01*
X133629600Y-75267399D01*
G75*
G02*
X133879599Y-75017400I249999J0D01*
G01*
X134579601Y-75017400D01*
G75*
G02*
X134829600Y-75267399I0J-249999D01*
G01*
G37*
G36*
G01*
X136829600Y-75267399D02*
X136829600Y-76167401D01*
G75*
G02*
X136579601Y-76417400I-249999J0D01*
G01*
X135879599Y-76417400D01*
G75*
G02*
X135629600Y-76167401I0J249999D01*
G01*
X135629600Y-75267399D01*
G75*
G02*
X135879599Y-75017400I249999J0D01*
G01*
X136579601Y-75017400D01*
G75*
G02*
X136829600Y-75267399I0J-249999D01*
G01*
G37*
%TD*%
%TO.C,D4*%
G36*
G01*
X136441600Y-81750321D02*
X136441600Y-80850319D01*
G75*
G02*
X136691599Y-80600320I249999J0D01*
G01*
X137341601Y-80600320D01*
G75*
G02*
X137591600Y-80850319I0J-249999D01*
G01*
X137591600Y-81750321D01*
G75*
G02*
X137341601Y-82000320I-249999J0D01*
G01*
X136691599Y-82000320D01*
G75*
G02*
X136441600Y-81750321I0J249999D01*
G01*
G37*
G36*
G01*
X134391600Y-81750321D02*
X134391600Y-80850319D01*
G75*
G02*
X134641599Y-80600320I249999J0D01*
G01*
X135291601Y-80600320D01*
G75*
G02*
X135541600Y-80850319I0J-249999D01*
G01*
X135541600Y-81750321D01*
G75*
G02*
X135291601Y-82000320I-249999J0D01*
G01*
X134641599Y-82000320D01*
G75*
G02*
X134391600Y-81750321I0J249999D01*
G01*
G37*
%TD*%
D12*
%TO.C,D8*%
X124743840Y-116855240D03*
X129743840Y-116855240D03*
%TD*%
%TO.C,D7*%
X145038440Y-116408200D03*
X150038440Y-116408200D03*
%TD*%
%TO.C,D5*%
G36*
G01*
X155450119Y-102344640D02*
X156350121Y-102344640D01*
G75*
G02*
X156600120Y-102594639I0J-249999D01*
G01*
X156600120Y-103244641D01*
G75*
G02*
X156350121Y-103494640I-249999J0D01*
G01*
X155450119Y-103494640D01*
G75*
G02*
X155200120Y-103244641I0J249999D01*
G01*
X155200120Y-102594639D01*
G75*
G02*
X155450119Y-102344640I249999J0D01*
G01*
G37*
G36*
G01*
X155450119Y-100294640D02*
X156350121Y-100294640D01*
G75*
G02*
X156600120Y-100544639I0J-249999D01*
G01*
X156600120Y-101194641D01*
G75*
G02*
X156350121Y-101444640I-249999J0D01*
G01*
X155450119Y-101444640D01*
G75*
G02*
X155200120Y-101194641I0J249999D01*
G01*
X155200120Y-100544639D01*
G75*
G02*
X155450119Y-100294640I249999J0D01*
G01*
G37*
%TD*%
D13*
%TO.C,U1*%
X160937434Y-74636662D03*
D14*
X152237434Y-66936662D03*
X152237434Y-68206662D03*
X152237434Y-69476662D03*
X152237434Y-70746662D03*
X152237434Y-72016662D03*
X152237434Y-73286662D03*
X152237434Y-74556662D03*
X152237434Y-75826662D03*
X152237434Y-77096662D03*
X152237434Y-78366662D03*
X152237434Y-79636662D03*
X152237434Y-80906662D03*
X152237434Y-82176662D03*
X152237434Y-83446662D03*
D15*
X155522434Y-84936662D03*
X156792434Y-84936662D03*
X158062434Y-84936662D03*
X159332434Y-84936662D03*
X160602434Y-84936662D03*
X161872434Y-84936662D03*
X163142434Y-84936662D03*
X164412434Y-84936662D03*
X165682434Y-84936662D03*
X166952434Y-84936662D03*
D14*
X170237434Y-83446662D03*
X170237434Y-82176662D03*
X170237434Y-80906662D03*
X170237434Y-79636662D03*
X170237434Y-78366662D03*
X170237434Y-77096662D03*
X170237434Y-75826662D03*
X170237434Y-74556662D03*
X170237434Y-73286662D03*
X170237434Y-72016662D03*
X170237434Y-70746662D03*
X170237434Y-69476662D03*
X170237434Y-68206662D03*
X170237434Y-66936662D03*
%TD*%
M02*
