%TF.GenerationSoftware,KiCad,Pcbnew,(5.1.12)-1*%
%TF.CreationDate,2022-01-20T18:26:47-05:00*%
%TF.ProjectId,PCB-ESP32S,5043422d-4553-4503-9332-532e6b696361,rev?*%
%TF.SameCoordinates,Original*%
%TF.FileFunction,Soldermask,Bot*%
%TF.FilePolarity,Negative*%
%FSLAX46Y46*%
G04 Gerber Fmt 4.6, Leading zero omitted, Abs format (unit mm)*
G04 Created by KiCad (PCBNEW (5.1.12)-1) date 2022-01-20 18:26:47*
%MOMM*%
%LPD*%
G01*
G04 APERTURE LIST*
%ADD10O,1.950000X1.700000*%
%ADD11C,2.200000*%
%ADD12C,1.980000*%
%ADD13C,1.935000*%
%ADD14R,1.980000X1.980000*%
%ADD15O,1.905000X2.000000*%
%ADD16R,1.905000X2.000000*%
%ADD17O,1.600000X1.600000*%
%ADD18R,1.600000X1.600000*%
%ADD19C,3.000000*%
%ADD20R,3.000000X3.000000*%
%ADD21O,2.000000X1.905000*%
%ADD22R,2.000000X1.905000*%
G04 APERTURE END LIST*
D10*
%TO.C,J1*%
X168173400Y-106607600D03*
X168173400Y-109107600D03*
G36*
G01*
X168898400Y-112457600D02*
X167448400Y-112457600D01*
G75*
G02*
X167198400Y-112207600I0J250000D01*
G01*
X167198400Y-111007600D01*
G75*
G02*
X167448400Y-110757600I250000J0D01*
G01*
X168898400Y-110757600D01*
G75*
G02*
X169148400Y-111007600I0J-250000D01*
G01*
X169148400Y-112207600D01*
G75*
G02*
X168898400Y-112457600I-250000J0D01*
G01*
G37*
%TD*%
D11*
%TO.C,*%
X176415700Y-68033900D03*
%TD*%
%TO.C,*%
X104025700Y-68033900D03*
%TD*%
%TO.C,*%
X176415700Y-136613900D03*
%TD*%
%TO.C,*%
X104025700Y-136613900D03*
%TD*%
D12*
%TO.C,K1*%
X153507960Y-135751760D03*
X141507960Y-135751760D03*
X141507960Y-123551760D03*
D13*
X147507960Y-121551760D03*
D14*
X153507960Y-123551760D03*
%TD*%
D15*
%TO.C,Q1*%
X105130600Y-110769400D03*
X107670600Y-110769400D03*
D16*
X110210600Y-110769400D03*
%TD*%
D17*
%TO.C,U4*%
X160726120Y-113827560D03*
X158186120Y-106207560D03*
X158186120Y-113827560D03*
D18*
X160726120Y-106207560D03*
%TD*%
D19*
%TO.C,J4*%
X111272320Y-126283720D03*
X111272320Y-131363720D03*
D20*
X111272320Y-136443720D03*
%TD*%
D12*
%TO.C,K2*%
X133233680Y-136061640D03*
X121233680Y-136061640D03*
X121233680Y-123861640D03*
D13*
X127233680Y-121861640D03*
D14*
X133233680Y-123861640D03*
%TD*%
D19*
%TO.C,J8*%
X105460800Y-94107000D03*
D20*
X105460800Y-99187000D03*
%TD*%
D21*
%TO.C,U3*%
X128346200Y-86385400D03*
X128346200Y-83845400D03*
D22*
X128346200Y-81305400D03*
%TD*%
D21*
%TO.C,U2*%
X128397000Y-100380800D03*
X128397000Y-97840800D03*
D22*
X128397000Y-95300800D03*
%TD*%
D17*
%TO.C,U5*%
X133019800Y-110845600D03*
X140639800Y-108305600D03*
X133019800Y-108305600D03*
D18*
X140639800Y-110845600D03*
%TD*%
D19*
%TO.C,J3*%
X164231320Y-135839200D03*
X164231320Y-130759200D03*
D20*
X164231320Y-125679200D03*
%TD*%
M02*
