M48
; DRILL file {KiCad (5.1.12)-1} date 01/20/22 18:26:34
; FORMAT={-:-/ absolute / inch / decimal}
; #@! TF.CreationDate,2022-01-20T18:26:34-05:00
; #@! TF.GenerationSoftware,Kicad,Pcbnew,(5.1.12)-1
; #@! TF.FileFunction,Plated,1,2,PTH
FMAT,2
INCH
T1C0.0157
T2C0.0315
T3C0.0374
T4C0.0433
T5C0.0508
T6C0.0520
T7C0.0598
%
G90
G05
T1
X5.053Y-3.201
X5.428Y-2.896
X5.512Y-3.532
X5.908Y-3.852
X6.3242Y-3.8854
X6.3242Y-3.8854
X6.462Y-3.486
T2
X5.237Y-4.264
X5.237Y-4.364
X5.537Y-4.264
X5.537Y-4.364
X6.2278Y-4.1814
X6.2278Y-4.4814
X6.3278Y-4.1814
X6.3278Y-4.4814
T3
X6.621Y-4.1971
X6.621Y-4.2956
X6.621Y-4.394
T4
X4.139Y-4.361
X4.239Y-4.361
X4.339Y-4.361
X5.053Y-3.201
X5.053Y-3.301
X5.053Y-3.401
X5.055Y-3.752
X5.055Y-3.852
X5.055Y-3.952
T5
X5.0092Y-4.7977
X5.8074Y-4.7855
T6
X4.773Y-4.8764
X4.773Y-5.3568
X5.2454Y-4.8764
X5.2454Y-5.3568
X5.5712Y-4.8642
X5.5712Y-5.3446
X6.0436Y-4.8642
X6.0436Y-5.3446
T7
X4.152Y-3.705
X4.152Y-3.905
X4.3808Y-4.9718
X4.3808Y-5.1718
X4.3808Y-5.3718
X6.4658Y-4.948
X6.4658Y-5.148
X6.4658Y-5.348
T0
M30
